<svg xmlns="http://www.w3.org/2000/svg" xmlns:xlink="http://www.w3.org/1999/xlink" width="500" zoomAndPan="magnify" viewBox="0 0 375 374.999991" height="500" preserveAspectRatio="xMidYMid meet" version="1.0"><defs><g/><clipPath id="c061f2be2f"><path d="M 10 61 L 291.117188 61 L 291.117188 348.859375 L 10 348.859375 Z M 10 61 " clip-rule="nonzero"/></clipPath></defs><g clip-path="url(#c061f2be2f)"><path fill="#ffffff" d="M 290.347656 153.792969 C 289.714844 153.144531 288.941406 152.816406 288.039062 152.800781 L 250.535156 152.910156 L 250.535156 93.136719 L 260.433594 99.460938 L 263.953125 93.90625 L 249.050781 84.339844 L 213.527344 61.574219 C 212.984375 61.21875 212.390625 61.039062 211.746094 61.03125 C 211.101562 61.019531 210.503906 61.183594 209.953125 61.519531 L 174.429688 84.0625 L 158.921875 93.90625 L 162.441406 99.515625 L 172.886719 92.863281 L 172.886719 153.078125 L 49.160156 153.351562 L 49.160156 111.558594 C 49.140625 110.59375 48.773438 109.789062 48.058594 109.140625 C 47.25 108.410156 46.394531 107.742188 45.488281 107.132812 C 44.582031 106.527344 43.636719 105.988281 42.65625 105.519531 C 41.671875 105.050781 40.660156 104.652344 39.617188 104.328125 C 38.578125 104.003906 37.519531 103.757812 36.441406 103.585938 C 35.367188 103.414062 34.285156 103.320312 33.195312 103.304688 C 32.105469 103.292969 31.019531 103.355469 29.9375 103.496094 C 28.859375 103.636719 27.792969 103.855469 26.742188 104.152344 C 25.695312 104.449219 24.671875 104.816406 23.675781 105.257812 C 22.679688 105.703125 21.722656 106.214844 20.800781 106.796875 C 19.878906 107.378906 19 108.023438 18.171875 108.730469 C 17.34375 109.4375 16.570312 110.199219 15.851562 111.019531 C 15.132812 111.839844 14.476562 112.707031 13.882812 113.621094 C 13.289062 114.535156 12.765625 115.484375 12.308594 116.476562 C 11.851562 117.464844 11.46875 118.484375 11.160156 119.527344 C 10.851562 120.574219 10.617188 121.636719 10.460938 122.714844 C 10.304688 123.792969 10.226562 124.875 10.226562 125.964844 L 10.226562 323.160156 C 10.070312 324.199219 9.996094 325.246094 10.007812 326.296875 L 10.226562 326.296875 L 10.226562 329.210938 C 10.21875 329.378906 10.238281 329.542969 10.28125 329.707031 C 10.488281 331.03125 10.8125 332.328125 11.25 333.597656 C 11.683594 334.863281 12.230469 336.085938 12.882812 337.257812 C 13.535156 338.429688 14.285156 339.535156 15.132812 340.574219 C 15.980469 341.617188 16.914062 342.574219 17.929688 343.449219 C 18.949219 344.320312 20.035156 345.101562 21.1875 345.785156 C 22.34375 346.464844 23.550781 347.042969 24.804688 347.511719 C 26.0625 347.980469 27.351562 348.335938 28.671875 348.578125 C 29.992188 348.820312 31.320312 348.945312 32.664062 348.953125 L 246.628906 348.953125 C 247.15625 348.941406 247.652344 348.8125 248.113281 348.566406 L 288.039062 348.566406 C 288.476562 348.566406 288.894531 348.484375 289.300781 348.316406 C 289.703125 348.148438 290.0625 347.910156 290.371094 347.601562 C 290.679688 347.289062 290.917969 346.933594 291.085938 346.53125 C 291.253906 346.125 291.335938 345.703125 291.335938 345.265625 L 291.335938 156.101562 C 291.351562 155.183594 291.019531 154.414062 290.347656 153.792969 Z M 224.082031 152.800781 L 199.339844 152.800781 L 199.339844 118.269531 L 224.082031 118.269531 Z M 179.488281 88.683594 L 211.710938 68.226562 L 243.933594 88.902344 L 243.933594 152.800781 L 230.683594 152.800781 L 230.683594 114.96875 C 230.683594 114.53125 230.597656 114.109375 230.429688 113.707031 C 230.265625 113.300781 230.027344 112.945312 229.714844 112.636719 C 229.40625 112.324219 229.050781 112.085938 228.644531 111.921875 C 228.242188 111.753906 227.820312 111.667969 227.382812 111.667969 L 196.039062 111.667969 C 195.601562 111.667969 195.179688 111.753906 194.777344 111.921875 C 194.371094 112.085938 194.015625 112.324219 193.707031 112.636719 C 193.398438 112.945312 193.15625 113.300781 192.992188 113.707031 C 192.824219 114.109375 192.738281 114.53125 192.738281 114.96875 L 192.738281 152.800781 L 179.488281 152.800781 Z M 16.824219 125.964844 C 16.832031 124.476562 17.039062 123.011719 17.449219 121.578125 C 17.863281 120.144531 18.460938 118.792969 19.246094 117.527344 C 20.03125 116.261719 20.976562 115.125 22.078125 114.117188 C 23.179688 113.113281 24.398438 112.277344 25.730469 111.609375 C 27.066406 110.941406 28.464844 110.46875 29.929688 110.191406 C 31.394531 109.914062 32.871094 109.839844 34.359375 109.972656 C 35.84375 110.101562 37.28125 110.433594 38.675781 110.964844 C 40.070312 111.496094 41.363281 112.207031 42.5625 113.097656 L 42.5625 305.894531 C 41.515625 305.390625 40.441406 304.96875 39.332031 304.628906 C 38.21875 304.289062 37.089844 304.035156 35.945312 303.871094 C 34.796875 303.703125 33.640625 303.625 32.480469 303.636719 C 31.320312 303.648438 30.167969 303.75 29.023438 303.9375 C 27.878906 304.125 26.753906 304.398438 25.652344 304.761719 C 24.550781 305.121094 23.480469 305.566406 22.445312 306.089844 C 21.410156 306.617188 20.421875 307.214844 19.480469 307.894531 C 18.539062 308.570312 17.652344 309.316406 16.824219 310.128906 Z M 68.242188 342.296875 L 68.242188 319.367188 L 243.332031 319.367188 L 243.332031 341.96875 L 234.753906 341.96875 L 234.753906 333.113281 L 228.152344 333.113281 L 228.152344 341.96875 L 219.464844 341.96875 L 219.464844 329.210938 L 212.867188 329.210938 L 212.867188 342.023438 L 202.914062 342.023438 L 202.914062 333.113281 L 196.3125 333.113281 L 196.3125 342.023438 L 184.765625 342.023438 L 184.765625 333.113281 L 178.167969 333.113281 L 178.167969 342.078125 L 169.753906 342.078125 L 169.753906 329.210938 L 163.15625 329.210938 L 163.15625 342.132812 L 153.203125 342.132812 L 153.203125 333.113281 L 146.601562 333.113281 L 146.601562 342.132812 L 135.054688 342.132812 L 135.054688 333.113281 L 128.457031 333.113281 L 128.457031 342.1875 L 119.824219 342.1875 L 119.824219 329.210938 L 113.222656 329.210938 L 113.222656 342.1875 L 103.269531 342.1875 L 103.269531 333.113281 L 96.671875 333.113281 L 96.671875 342.242188 L 85.125 342.242188 L 85.125 333.113281 L 78.523438 333.113281 L 78.523438 342.296875 Z M 249.929688 341.914062 L 249.929688 316.066406 C 249.929688 315.628906 249.84375 315.210938 249.679688 314.804688 C 249.511719 314.402344 249.273438 314.042969 248.964844 313.734375 C 248.652344 313.425781 248.296875 313.1875 247.890625 313.019531 C 247.488281 312.851562 247.066406 312.769531 246.628906 312.769531 L 64.941406 312.769531 C 64.503906 312.769531 64.082031 312.851562 63.679688 313.019531 C 63.277344 313.1875 62.917969 313.425781 62.609375 313.734375 C 62.300781 314.042969 62.0625 314.402344 61.894531 314.804688 C 61.726562 315.210938 61.644531 315.628906 61.644531 316.066406 L 61.644531 342.296875 L 32.664062 342.296875 C 31.722656 342.296875 30.789062 342.210938 29.863281 342.046875 C 28.9375 341.878906 28.035156 341.636719 27.152344 341.3125 C 26.269531 340.988281 25.421875 340.589844 24.609375 340.117188 C 23.796875 339.644531 23.03125 339.105469 22.3125 338.5 C 21.59375 337.894531 20.933594 337.230469 20.328125 336.507812 C 19.726562 335.785156 19.191406 335.015625 18.726562 334.203125 C 18.257812 333.386719 17.863281 332.535156 17.542969 331.652344 C 17.226562 330.765625 16.984375 329.863281 16.824219 328.933594 L 16.824219 323.601562 C 16.820312 323.539062 16.839844 323.484375 16.878906 323.4375 C 16.890625 323.210938 16.925781 322.992188 16.992188 322.777344 C 17.003906 322.640625 17.039062 322.511719 17.101562 322.390625 C 17.105469 322.238281 17.140625 322.089844 17.210938 321.953125 C 17.375 321.402344 17.539062 320.851562 17.761719 320.300781 C 17.980469 319.75 17.816406 320.136719 17.816406 320.082031 C 18.066406 319.488281 18.351562 318.910156 18.671875 318.351562 C 18.992188 317.792969 19.34375 317.253906 19.730469 316.734375 C 20.113281 316.21875 20.527344 315.726562 20.972656 315.257812 C 21.414062 314.792969 21.886719 314.351562 22.382812 313.941406 C 22.878906 313.527344 23.398438 313.148438 23.941406 312.800781 C 24.480469 312.453125 25.042969 312.136719 25.621094 311.855469 C 26.203125 311.574219 26.796875 311.328125 27.40625 311.117188 C 28.015625 310.90625 28.636719 310.734375 29.265625 310.597656 C 29.898438 310.464844 30.53125 310.367188 31.175781 310.304688 C 31.816406 310.246094 32.460938 310.226562 33.105469 310.242188 C 33.75 310.261719 34.390625 310.316406 35.027344 310.414062 C 35.664062 310.507812 36.296875 310.640625 36.917969 310.808594 C 37.539062 310.980469 38.148438 311.1875 38.746094 311.429688 C 39.339844 311.675781 39.921875 311.953125 40.484375 312.265625 C 41.046875 312.578125 41.589844 312.925781 42.113281 313.304688 C 42.636719 313.683594 43.132812 314.089844 43.605469 314.527344 C 44.09375 314.964844 44.660156 315.234375 45.304688 315.34375 C 45.953125 315.453125 46.574219 315.382812 47.179688 315.132812 C 47.78125 314.871094 48.261719 314.464844 48.621094 313.914062 C 48.980469 313.367188 49.160156 312.765625 49.160156 312.109375 L 49.160156 159.949219 L 284.738281 159.402344 L 284.738281 197.015625 C 283.824219 195.320312 282.632812 193.855469 281.164062 192.613281 L 278.578125 190.359375 C 272.804688 185.464844 264.558594 185.6875 260.210938 190.800781 L 254.21875 197.839844 L 242.503906 211.695312 L 242.503906 170.234375 C 242.503906 169.796875 242.421875 169.375 242.253906 168.972656 C 242.085938 168.566406 241.847656 168.210938 241.539062 167.902344 C 241.230469 167.589844 240.875 167.351562 240.46875 167.183594 C 240.066406 167.019531 239.644531 166.933594 239.207031 166.933594 L 74.015625 166.933594 C 73.578125 166.933594 73.15625 167.019531 72.753906 167.183594 C 72.347656 167.351562 71.992188 167.589844 71.683594 167.902344 C 71.375 168.210938 71.136719 168.566406 70.96875 168.972656 C 70.800781 169.375 70.714844 169.796875 70.714844 170.234375 L 70.714844 301.21875 C 70.714844 301.65625 70.800781 302.078125 70.96875 302.484375 C 71.136719 302.886719 71.375 303.242188 71.683594 303.554688 C 71.992188 303.863281 72.347656 304.101562 72.753906 304.269531 C 73.15625 304.4375 73.578125 304.519531 74.015625 304.519531 L 239.207031 304.519531 C 239.644531 304.519531 240.066406 304.4375 240.46875 304.269531 C 240.875 304.101562 241.230469 303.863281 241.539062 303.554688 C 241.847656 303.242188 242.085938 302.886719 242.253906 302.484375 C 242.421875 302.078125 242.503906 301.65625 242.503906 301.21875 L 242.503906 259.484375 L 277.753906 217.855469 L 283.75 210.761719 C 284.125 210.359375 284.457031 209.917969 284.738281 209.441406 L 284.738281 341.859375 Z M 141.488281 255.027344 L 141.488281 297.921875 L 77.316406 297.921875 L 77.316406 258.328125 L 117.183594 258.328125 L 117.183594 284.886719 L 123.78125 284.886719 L 123.78125 255.027344 C 123.78125 254.589844 123.699219 254.171875 123.53125 253.765625 C 123.363281 253.363281 123.125 253.003906 122.816406 252.695312 C 122.507812 252.386719 122.148438 252.148438 121.746094 251.980469 C 121.339844 251.8125 120.917969 251.730469 120.480469 251.730469 L 77.316406 251.730469 L 77.316406 216.535156 L 122.460938 216.535156 L 122.460938 209.9375 L 77.316406 209.9375 L 77.316406 173.53125 L 119.164062 173.53125 L 119.164062 196.519531 L 125.761719 196.519531 L 125.761719 173.53125 L 235.90625 173.53125 L 235.90625 219.449219 L 231.453125 224.675781 L 186.636719 224.675781 L 186.636719 188.050781 L 180.035156 188.050781 L 180.035156 224.675781 L 144.789062 224.675781 L 144.789062 231.273438 L 225.84375 231.273438 L 199.117188 262.78125 L 199.007812 262.890625 L 198.84375 263.113281 L 198.84375 263.222656 C 198.773438 263.300781 198.738281 263.390625 198.734375 263.496094 L 198.625 263.496094 C 198.550781 263.617188 198.515625 263.742188 198.511719 263.882812 L 198.457031 263.882812 C 198.457031 263.992188 198.402344 264.101562 198.402344 264.210938 L 194.71875 287.308594 C 194.683594 287.542969 194.671875 287.78125 194.6875 288.019531 C 194.703125 288.257812 194.746094 288.492188 194.8125 288.722656 C 194.878906 288.953125 194.96875 289.171875 195.085938 289.382812 C 195.199219 289.59375 195.335938 289.789062 195.492188 289.96875 C 195.648438 290.148438 195.824219 290.308594 196.015625 290.453125 C 196.207031 290.59375 196.410156 290.714844 196.628906 290.8125 C 196.847656 290.910156 197.074219 290.984375 197.308594 291.03125 C 197.542969 291.082031 197.78125 291.105469 198.019531 291.101562 L 199.0625 290.9375 L 221.222656 283.570312 L 221.28125 283.570312 L 221.554688 283.457031 L 221.664062 283.457031 L 221.996094 283.292969 C 221.996094 283.21875 222.03125 283.183594 222.105469 283.183594 L 222.269531 283.019531 L 222.433594 282.910156 L 222.597656 282.742188 L 222.597656 282.632812 L 222.652344 282.632812 L 235.851562 267.070312 L 235.851562 297.757812 L 148.085938 297.757812 L 148.085938 254.863281 Z M 257.078125 204.65625 L 261.3125 208.230469 L 210.5 268.171875 L 206.265625 264.542969 L 234.476562 231.273438 L 242.503906 221.871094 Z M 213.582031 279.390625 L 202.085938 283.183594 L 203.957031 271.25 Z M 219.792969 276.035156 L 215.558594 272.40625 L 266.371094 212.519531 L 270.605469 216.09375 L 242.503906 249.253906 L 235.90625 257.0625 Z M 274.894531 211.035156 L 266.207031 203.722656 L 261.367188 199.597656 L 265.214844 195.035156 C 267.195312 192.722656 271.265625 192.835938 274.289062 195.417969 L 276.929688 197.617188 C 278.429688 198.882812 279.363281 200.476562 279.734375 202.402344 C 279.878906 203.128906 279.863281 203.851562 279.691406 204.574219 C 279.519531 205.292969 279.203125 205.945312 278.746094 206.527344 Z M 274.894531 211.035156 " fill-opacity="1" fill-rule="nonzero"/></g><g fill="#000000" fill-opacity="1"><g transform="translate(240.198313, 209.71153)"><g><path d="M 2.109375 0.078125 C 1.804688 0.078125 1.566406 -0.00390625 1.390625 -0.171875 C 1.222656 -0.335938 1.140625 -0.5625 1.140625 -0.84375 C 1.140625 -1.113281 1.222656 -1.332031 1.390625 -1.5 C 1.566406 -1.675781 1.804688 -1.765625 2.109375 -1.765625 C 2.410156 -1.765625 2.644531 -1.679688 2.8125 -1.515625 C 2.988281 -1.347656 3.078125 -1.128906 3.078125 -0.859375 C 3.078125 -0.578125 2.988281 -0.347656 2.8125 -0.171875 C 2.632812 -0.00390625 2.398438 0.078125 2.109375 0.078125 Z M 2.109375 0.078125 "/></g></g></g></svg>