<svg xmlns="http://www.w3.org/2000/svg" xmlns:xlink="http://www.w3.org/1999/xlink" width="500" zoomAndPan="magnify" viewBox="0 0 375 374.999991" height="500" preserveAspectRatio="xMidYMid meet" version="1.0"><defs><g/><clipPath id="692ff31bcd"><path d="M 26.636719 3.601562 L 348.386719 3.601562 L 348.386719 374.851562 L 26.636719 374.851562 Z M 26.636719 3.601562 " clip-rule="nonzero"/></clipPath></defs><path fill="#ffffff" d="M 255.550781 306.847656 C 255.144531 306.847656 254.742188 306.886719 254.34375 306.964844 C 253.945312 307.042969 253.558594 307.160156 253.183594 307.316406 C 252.808594 307.472656 252.449219 307.664062 252.113281 307.890625 C 251.777344 308.113281 251.464844 308.371094 251.175781 308.660156 C 250.886719 308.945312 250.632812 309.257812 250.40625 309.597656 C 250.179688 309.933594 249.988281 310.289062 249.835938 310.664062 C 249.679688 311.039062 249.5625 311.425781 249.484375 311.824219 C 249.402344 312.222656 249.363281 312.625 249.363281 313.03125 L 249.363281 331.59375 L 230.804688 331.59375 C 230.398438 331.59375 229.996094 331.632812 229.597656 331.710938 C 229.199219 331.792969 228.8125 331.910156 228.433594 332.0625 C 228.058594 332.21875 227.703125 332.410156 227.367188 332.636719 C 227.027344 332.863281 226.714844 333.117188 226.429688 333.40625 C 226.140625 333.691406 225.882812 334.003906 225.660156 334.34375 C 225.433594 334.679688 225.242188 335.039062 225.085938 335.414062 C 224.933594 335.789062 224.8125 336.175781 224.734375 336.574219 C 224.65625 336.972656 224.617188 337.375 224.617188 337.78125 C 224.617188 338.1875 224.65625 338.589844 224.734375 338.988281 C 224.8125 339.386719 224.933594 339.773438 225.085938 340.148438 C 225.242188 340.523438 225.433594 340.878906 225.660156 341.21875 C 225.882812 341.554688 226.140625 341.867188 226.429688 342.15625 C 226.714844 342.441406 227.027344 342.699219 227.367188 342.925781 C 227.703125 343.148438 228.058594 343.339844 228.433594 343.496094 C 228.8125 343.652344 229.199219 343.769531 229.597656 343.847656 C 229.996094 343.925781 230.398438 343.96875 230.804688 343.96875 L 255.550781 343.96875 C 255.957031 343.96875 256.359375 343.925781 256.757812 343.847656 C 257.15625 343.769531 257.542969 343.652344 257.917969 343.496094 C 258.292969 343.339844 258.648438 343.148438 258.988281 342.925781 C 259.324219 342.699219 259.636719 342.441406 259.925781 342.15625 C 260.210938 341.867188 260.46875 341.554688 260.695312 341.21875 C 260.921875 340.878906 261.109375 340.523438 261.265625 340.148438 C 261.421875 339.773438 261.539062 339.386719 261.617188 338.988281 C 261.699219 338.589844 261.738281 338.1875 261.738281 337.78125 L 261.738281 313.03125 C 261.738281 312.625 261.699219 312.222656 261.617188 311.824219 C 261.539062 311.425781 261.421875 311.039062 261.265625 310.664062 C 261.109375 310.289062 260.921875 309.933594 260.695312 309.597656 C 260.46875 309.257812 260.210938 308.945312 259.925781 308.660156 C 259.636719 308.371094 259.324219 308.113281 258.988281 307.890625 C 258.648438 307.664062 258.292969 307.472656 257.917969 307.316406 C 257.542969 307.160156 257.15625 307.042969 256.757812 306.964844 C 256.359375 306.886719 255.957031 306.847656 255.550781 306.847656 Z M 255.550781 306.847656 " fill-opacity="1" fill-rule="nonzero"/><path fill="#ffffff" d="M 119.441406 331.59375 L 100.878906 331.59375 L 100.878906 313.03125 C 100.878906 312.625 100.839844 312.222656 100.761719 311.824219 C 100.683594 311.425781 100.5625 311.039062 100.410156 310.664062 C 100.253906 310.289062 100.0625 309.933594 99.835938 309.597656 C 99.613281 309.257812 99.355469 308.945312 99.066406 308.660156 C 98.78125 308.371094 98.46875 308.113281 98.128906 307.890625 C 97.792969 307.664062 97.4375 307.472656 97.058594 307.316406 C 96.683594 307.160156 96.296875 307.042969 95.898438 306.964844 C 95.5 306.886719 95.097656 306.847656 94.691406 306.847656 C 94.285156 306.847656 93.882812 306.886719 93.484375 306.964844 C 93.085938 307.042969 92.699219 307.160156 92.324219 307.316406 C 91.949219 307.472656 91.59375 307.664062 91.253906 307.890625 C 90.917969 308.113281 90.605469 308.371094 90.316406 308.660156 C 90.03125 308.945312 89.773438 309.257812 89.546875 309.597656 C 89.324219 309.933594 89.132812 310.289062 88.976562 310.664062 C 88.820312 311.039062 88.703125 311.425781 88.625 311.824219 C 88.546875 312.222656 88.507812 312.625 88.507812 313.03125 L 88.507812 337.78125 C 88.507812 338.1875 88.546875 338.589844 88.625 338.988281 C 88.703125 339.386719 88.820312 339.773438 88.976562 340.148438 C 89.132812 340.523438 89.324219 340.878906 89.546875 341.21875 C 89.773438 341.554688 90.03125 341.867188 90.316406 342.15625 C 90.605469 342.441406 90.917969 342.699219 91.253906 342.925781 C 91.59375 343.148438 91.949219 343.339844 92.324219 343.496094 C 92.699219 343.652344 93.085938 343.769531 93.484375 343.847656 C 93.882812 343.925781 94.285156 343.96875 94.691406 343.96875 L 119.441406 343.96875 C 119.847656 343.96875 120.25 343.925781 120.648438 343.847656 C 121.046875 343.769531 121.433594 343.652344 121.808594 343.496094 C 122.183594 343.339844 122.539062 343.148438 122.878906 342.925781 C 123.214844 342.699219 123.527344 342.441406 123.816406 342.15625 C 124.101562 341.867188 124.359375 341.554688 124.585938 341.21875 C 124.808594 340.878906 125 340.523438 125.15625 340.148438 C 125.3125 339.773438 125.429688 339.386719 125.507812 338.988281 C 125.585938 338.589844 125.628906 338.1875 125.628906 337.78125 C 125.628906 337.375 125.585938 336.972656 125.507812 336.574219 C 125.429688 336.175781 125.3125 335.789062 125.15625 335.414062 C 125 335.039062 124.808594 334.679688 124.585938 334.34375 C 124.359375 334.003906 124.101562 333.691406 123.816406 333.40625 C 123.527344 333.117188 123.214844 332.863281 122.878906 332.636719 C 122.539062 332.410156 122.183594 332.21875 121.808594 332.0625 C 121.433594 331.910156 121.046875 331.792969 120.648438 331.710938 C 120.25 331.632812 119.847656 331.59375 119.441406 331.59375 Z M 119.441406 331.59375 " fill-opacity="1" fill-rule="nonzero"/><path fill="#ffffff" d="M 255.550781 170.734375 L 230.804688 170.734375 C 230.398438 170.734375 229.996094 170.777344 229.597656 170.855469 C 229.199219 170.933594 228.8125 171.050781 228.433594 171.207031 C 228.058594 171.363281 227.703125 171.554688 227.367188 171.777344 C 227.027344 172.003906 226.714844 172.261719 226.429688 172.546875 C 226.140625 172.835938 225.882812 173.148438 225.660156 173.484375 C 225.433594 173.824219 225.242188 174.179688 225.085938 174.554688 C 224.933594 174.929688 224.8125 175.316406 224.734375 175.714844 C 224.65625 176.113281 224.617188 176.515625 224.617188 176.921875 C 224.617188 177.328125 224.65625 177.730469 224.734375 178.128906 C 224.8125 178.527344 224.933594 178.914062 225.085938 179.289062 C 225.242188 179.664062 225.433594 180.023438 225.660156 180.359375 C 225.882812 180.699219 226.140625 181.011719 226.429688 181.296875 C 226.714844 181.585938 227.027344 181.839844 227.367188 182.066406 C 227.703125 182.292969 228.058594 182.484375 228.433594 182.640625 C 228.8125 182.792969 229.199219 182.910156 229.597656 182.992188 C 229.996094 183.070312 230.398438 183.109375 230.804688 183.109375 L 249.363281 183.109375 L 249.363281 201.671875 C 249.363281 202.078125 249.402344 202.480469 249.480469 202.878906 C 249.5625 203.277344 249.679688 203.664062 249.835938 204.039062 C 249.988281 204.414062 250.179688 204.769531 250.40625 205.105469 C 250.632812 205.445312 250.886719 205.757812 251.175781 206.042969 C 251.460938 206.332031 251.773438 206.589844 252.113281 206.8125 C 252.449219 207.039062 252.808594 207.230469 253.183594 207.386719 C 253.558594 207.542969 253.945312 207.660156 254.34375 207.738281 C 254.742188 207.816406 255.144531 207.855469 255.550781 207.855469 C 255.957031 207.855469 256.359375 207.816406 256.757812 207.738281 C 257.15625 207.660156 257.542969 207.542969 257.917969 207.386719 C 258.292969 207.230469 258.648438 207.039062 258.988281 206.8125 C 259.324219 206.589844 259.636719 206.332031 259.925781 206.042969 C 260.210938 205.757812 260.46875 205.445312 260.695312 205.105469 C 260.921875 204.769531 261.109375 204.414062 261.265625 204.039062 C 261.421875 203.664062 261.539062 203.277344 261.617188 202.878906 C 261.699219 202.480469 261.738281 202.078125 261.738281 201.671875 L 261.738281 176.921875 C 261.738281 176.515625 261.699219 176.113281 261.617188 175.714844 C 261.539062 175.316406 261.421875 174.929688 261.265625 174.554688 C 261.109375 174.179688 260.921875 173.824219 260.695312 173.484375 C 260.46875 173.148438 260.210938 172.835938 259.925781 172.546875 C 259.636719 172.261719 259.324219 172.003906 258.988281 171.777344 C 258.648438 171.554688 258.292969 171.363281 257.917969 171.207031 C 257.542969 171.050781 257.15625 170.933594 256.757812 170.855469 C 256.359375 170.777344 255.957031 170.734375 255.550781 170.734375 Z M 255.550781 170.734375 " fill-opacity="1" fill-rule="nonzero"/><path fill="#ffffff" d="M 94.691406 207.855469 C 95.097656 207.855469 95.5 207.816406 95.898438 207.738281 C 96.296875 207.660156 96.683594 207.542969 97.058594 207.386719 C 97.4375 207.230469 97.792969 207.039062 98.128906 206.8125 C 98.46875 206.589844 98.78125 206.332031 99.066406 206.042969 C 99.355469 205.757812 99.613281 205.445312 99.835938 205.105469 C 100.0625 204.769531 100.253906 204.414062 100.410156 204.039062 C 100.5625 203.664062 100.683594 203.277344 100.761719 202.878906 C 100.839844 202.480469 100.878906 202.078125 100.878906 201.671875 L 100.878906 183.109375 L 119.441406 183.109375 C 119.847656 183.109375 120.25 183.070312 120.648438 182.992188 C 121.046875 182.910156 121.433594 182.792969 121.808594 182.640625 C 122.183594 182.484375 122.539062 182.292969 122.878906 182.066406 C 123.214844 181.839844 123.527344 181.585938 123.816406 181.296875 C 124.101562 181.011719 124.359375 180.699219 124.585938 180.359375 C 124.808594 180.023438 125 179.664062 125.15625 179.289062 C 125.3125 178.914062 125.429688 178.527344 125.507812 178.128906 C 125.585938 177.730469 125.628906 177.328125 125.628906 176.921875 C 125.628906 176.515625 125.585938 176.113281 125.507812 175.714844 C 125.429688 175.316406 125.3125 174.929688 125.15625 174.554688 C 125 174.179688 124.808594 173.824219 124.585938 173.484375 C 124.359375 173.148438 124.101562 172.835938 123.816406 172.546875 C 123.527344 172.261719 123.214844 172.003906 122.878906 171.777344 C 122.539062 171.554688 122.183594 171.363281 121.808594 171.207031 C 121.433594 171.050781 121.046875 170.933594 120.648438 170.855469 C 120.25 170.777344 119.847656 170.734375 119.441406 170.734375 L 94.691406 170.734375 C 94.285156 170.734375 93.882812 170.777344 93.484375 170.855469 C 93.085938 170.933594 92.699219 171.050781 92.324219 171.207031 C 91.949219 171.363281 91.59375 171.554688 91.253906 171.777344 C 90.917969 172.003906 90.605469 172.261719 90.316406 172.546875 C 90.03125 172.835938 89.773438 173.148438 89.546875 173.484375 C 89.324219 173.824219 89.132812 174.179688 88.976562 174.554688 C 88.820312 174.929688 88.703125 175.316406 88.625 175.714844 C 88.546875 176.113281 88.507812 176.515625 88.507812 176.921875 L 88.507812 201.671875 C 88.507812 202.078125 88.546875 202.480469 88.625 202.878906 C 88.703125 203.277344 88.820312 203.664062 88.976562 204.039062 C 89.132812 204.414062 89.324219 204.769531 89.546875 205.105469 C 89.773438 205.445312 90.03125 205.757812 90.316406 206.042969 C 90.605469 206.332031 90.917969 206.589844 91.253906 206.8125 C 91.59375 207.039062 91.949219 207.230469 92.324219 207.386719 C 92.699219 207.542969 93.085938 207.660156 93.484375 207.738281 C 93.882812 207.816406 94.285156 207.855469 94.691406 207.855469 Z M 94.691406 207.855469 " fill-opacity="1" fill-rule="nonzero"/><path fill="#ffffff" d="M 181.308594 257.351562 C 181.308594 257.757812 181.269531 258.160156 181.191406 258.558594 C 181.109375 258.957031 180.992188 259.34375 180.835938 259.71875 C 180.683594 260.09375 180.492188 260.449219 180.265625 260.789062 C 180.039062 261.125 179.785156 261.4375 179.496094 261.726562 C 179.210938 262.011719 178.898438 262.269531 178.558594 262.496094 C 178.222656 262.722656 177.863281 262.910156 177.488281 263.066406 C 177.113281 263.222656 176.726562 263.339844 176.328125 263.417969 C 175.929688 263.5 175.527344 263.539062 175.121094 263.539062 C 174.714844 263.539062 174.3125 263.5 173.914062 263.417969 C 173.515625 263.339844 173.128906 263.222656 172.753906 263.066406 C 172.378906 262.910156 172.023438 262.722656 171.683594 262.496094 C 171.347656 262.269531 171.035156 262.011719 170.746094 261.726562 C 170.460938 261.4375 170.203125 261.125 169.976562 260.789062 C 169.75 260.449219 169.5625 260.09375 169.40625 259.71875 C 169.25 259.34375 169.132812 258.957031 169.054688 258.558594 C 168.972656 258.160156 168.933594 257.757812 168.933594 257.351562 C 168.933594 256.945312 168.972656 256.542969 169.054688 256.144531 C 169.132812 255.746094 169.25 255.359375 169.40625 254.984375 C 169.5625 254.609375 169.75 254.253906 169.976562 253.914062 C 170.203125 253.578125 170.460938 253.265625 170.746094 252.976562 C 171.035156 252.691406 171.347656 252.433594 171.683594 252.207031 C 172.023438 251.980469 172.378906 251.792969 172.753906 251.636719 C 173.128906 251.480469 173.515625 251.363281 173.914062 251.285156 C 174.3125 251.203125 174.714844 251.164062 175.121094 251.164062 C 175.527344 251.164062 175.929688 251.203125 176.328125 251.285156 C 176.726562 251.363281 177.113281 251.480469 177.488281 251.636719 C 177.863281 251.792969 178.222656 251.980469 178.558594 252.207031 C 178.898438 252.433594 179.210938 252.691406 179.496094 252.976562 C 179.785156 253.265625 180.039062 253.578125 180.265625 253.914062 C 180.492188 254.253906 180.683594 254.609375 180.835938 254.984375 C 180.992188 255.359375 181.109375 255.746094 181.191406 256.144531 C 181.269531 256.542969 181.308594 256.945312 181.308594 257.351562 Z M 181.308594 257.351562 " fill-opacity="1" fill-rule="nonzero"/><path fill="#ffffff" d="M 255.550781 251.164062 L 206.054688 251.164062 L 206.054688 232.605469 C 206.054688 232.199219 206.015625 231.796875 205.9375 231.398438 C 205.859375 231 205.742188 230.613281 205.585938 230.238281 C 205.429688 229.863281 205.238281 229.503906 205.011719 229.167969 C 204.789062 228.828125 204.53125 228.515625 204.242188 228.230469 C 203.957031 227.941406 203.644531 227.6875 203.304688 227.460938 C 202.96875 227.234375 202.613281 227.042969 202.238281 226.886719 C 201.859375 226.734375 201.472656 226.617188 201.074219 226.535156 C 200.675781 226.457031 200.273438 226.417969 199.867188 226.417969 L 181.308594 226.417969 L 181.308594 176.921875 C 181.308594 176.515625 181.269531 176.113281 181.191406 175.714844 C 181.109375 175.316406 180.992188 174.929688 180.835938 174.554688 C 180.683594 174.179688 180.492188 173.824219 180.265625 173.484375 C 180.039062 173.148438 179.785156 172.835938 179.496094 172.546875 C 179.210938 172.261719 178.898438 172.003906 178.558594 171.777344 C 178.222656 171.554688 177.863281 171.363281 177.488281 171.207031 C 177.113281 171.050781 176.726562 170.933594 176.328125 170.855469 C 175.929688 170.777344 175.527344 170.734375 175.121094 170.734375 C 174.714844 170.734375 174.3125 170.777344 173.914062 170.855469 C 173.515625 170.933594 173.128906 171.050781 172.753906 171.207031 C 172.378906 171.363281 172.023438 171.554688 171.683594 171.777344 C 171.347656 172.003906 171.035156 172.261719 170.746094 172.546875 C 170.460938 172.835938 170.203125 173.148438 169.976562 173.484375 C 169.75 173.824219 169.5625 174.179688 169.40625 174.554688 C 169.25 174.929688 169.132812 175.316406 169.054688 175.714844 C 168.972656 176.113281 168.933594 176.515625 168.933594 176.921875 L 168.933594 226.417969 L 150.375 226.417969 C 149.96875 226.417969 149.566406 226.457031 149.167969 226.535156 C 148.769531 226.617188 148.382812 226.734375 148.007812 226.886719 C 147.632812 227.042969 147.273438 227.234375 146.9375 227.460938 C 146.597656 227.6875 146.285156 227.941406 146 228.230469 C 145.710938 228.515625 145.457031 228.828125 145.230469 229.167969 C 145.003906 229.503906 144.8125 229.863281 144.660156 230.238281 C 144.503906 230.613281 144.386719 231 144.304688 231.398438 C 144.226562 231.796875 144.1875 232.199219 144.1875 232.605469 L 144.1875 251.164062 L 94.691406 251.164062 C 94.285156 251.164062 93.882812 251.203125 93.484375 251.285156 C 93.085938 251.363281 92.699219 251.480469 92.324219 251.636719 C 91.949219 251.792969 91.59375 251.980469 91.253906 252.207031 C 90.917969 252.433594 90.605469 252.691406 90.316406 252.976562 C 90.03125 253.265625 89.773438 253.578125 89.546875 253.914062 C 89.324219 254.253906 89.132812 254.609375 88.976562 254.984375 C 88.820312 255.359375 88.703125 255.746094 88.625 256.144531 C 88.546875 256.542969 88.507812 256.945312 88.507812 257.351562 C 88.507812 257.757812 88.546875 258.160156 88.625 258.558594 C 88.703125 258.957031 88.820312 259.34375 88.976562 259.71875 C 89.132812 260.09375 89.324219 260.449219 89.546875 260.789062 C 89.773438 261.125 90.03125 261.4375 90.316406 261.726562 C 90.605469 262.011719 90.917969 262.269531 91.253906 262.496094 C 91.59375 262.722656 91.949219 262.910156 92.324219 263.066406 C 92.699219 263.222656 93.085938 263.339844 93.484375 263.417969 C 93.882812 263.5 94.285156 263.539062 94.691406 263.539062 L 144.1875 263.539062 L 144.1875 282.097656 C 144.1875 282.503906 144.226562 282.90625 144.304688 283.304688 C 144.386719 283.703125 144.503906 284.089844 144.660156 284.464844 C 144.8125 284.839844 145.003906 285.199219 145.230469 285.535156 C 145.457031 285.875 145.710938 286.1875 146 286.472656 C 146.285156 286.761719 146.597656 287.015625 146.9375 287.242188 C 147.273438 287.46875 147.632812 287.660156 148.007812 287.816406 C 148.382812 287.96875 148.769531 288.085938 149.167969 288.167969 C 149.566406 288.246094 149.96875 288.285156 150.375 288.285156 L 168.933594 288.285156 L 168.933594 337.78125 C 168.933594 338.1875 168.972656 338.589844 169.054688 338.988281 C 169.132812 339.386719 169.25 339.773438 169.40625 340.148438 C 169.5625 340.523438 169.75 340.878906 169.976562 341.21875 C 170.203125 341.554688 170.460938 341.867188 170.746094 342.15625 C 171.035156 342.441406 171.347656 342.699219 171.683594 342.925781 C 172.023438 343.148438 172.378906 343.339844 172.753906 343.496094 C 173.128906 343.652344 173.515625 343.769531 173.914062 343.847656 C 174.3125 343.925781 174.714844 343.96875 175.121094 343.96875 C 175.527344 343.96875 175.929688 343.925781 176.328125 343.847656 C 176.726562 343.769531 177.113281 343.652344 177.488281 343.496094 C 177.863281 343.339844 178.222656 343.148438 178.558594 342.925781 C 178.898438 342.699219 179.210938 342.441406 179.496094 342.15625 C 179.785156 341.867188 180.039062 341.554688 180.265625 341.21875 C 180.492188 340.878906 180.683594 340.523438 180.835938 340.148438 C 180.992188 339.773438 181.109375 339.386719 181.191406 338.988281 C 181.269531 338.589844 181.308594 338.1875 181.308594 337.78125 L 181.308594 288.285156 L 199.867188 288.285156 C 200.273438 288.285156 200.675781 288.246094 201.074219 288.167969 C 201.472656 288.085938 201.859375 287.96875 202.238281 287.816406 C 202.613281 287.660156 202.96875 287.46875 203.304688 287.242188 C 203.644531 287.015625 203.957031 286.761719 204.242188 286.472656 C 204.53125 286.1875 204.789062 285.875 205.011719 285.535156 C 205.238281 285.199219 205.429688 284.839844 205.585938 284.464844 C 205.742188 284.089844 205.859375 283.703125 205.9375 283.304688 C 206.015625 282.90625 206.054688 282.503906 206.054688 282.097656 L 206.054688 263.539062 L 255.550781 263.539062 C 255.957031 263.539062 256.359375 263.5 256.757812 263.417969 C 257.15625 263.339844 257.542969 263.222656 257.917969 263.066406 C 258.292969 262.910156 258.648438 262.722656 258.988281 262.496094 C 259.324219 262.269531 259.636719 262.011719 259.925781 261.726562 C 260.210938 261.4375 260.46875 261.125 260.695312 260.789062 C 260.921875 260.449219 261.109375 260.09375 261.265625 259.71875 C 261.421875 259.34375 261.539062 258.957031 261.617188 258.558594 C 261.699219 258.160156 261.738281 257.757812 261.738281 257.351562 C 261.738281 256.945312 261.699219 256.542969 261.617188 256.144531 C 261.539062 255.746094 261.421875 255.359375 261.265625 254.984375 C 261.109375 254.609375 260.921875 254.253906 260.695312 253.914062 C 260.46875 253.578125 260.210938 253.265625 259.925781 252.976562 C 259.636719 252.691406 259.324219 252.433594 258.988281 252.207031 C 258.648438 251.980469 258.292969 251.792969 257.917969 251.636719 C 257.542969 251.480469 257.15625 251.363281 256.757812 251.285156 C 256.359375 251.203125 255.957031 251.164062 255.550781 251.164062 Z M 193.683594 275.910156 L 156.5625 275.910156 L 156.5625 238.792969 L 193.683594 238.792969 Z M 193.683594 275.910156 " fill-opacity="1" fill-rule="nonzero"/><path fill="#ffffff" d="M 63.757812 127.429688 L 76.132812 127.429688 C 77.144531 127.425781 78.15625 127.375 79.164062 127.277344 C 80.171875 127.175781 81.171875 127.027344 82.164062 126.828125 C 83.15625 126.628906 84.140625 126.382812 85.109375 126.085938 C 86.078125 125.792969 87.027344 125.453125 87.964844 125.0625 C 88.898438 124.675781 89.8125 124.242188 90.707031 123.765625 C 91.601562 123.285156 92.46875 122.765625 93.308594 122.203125 C 94.152344 121.640625 94.964844 121.039062 95.746094 120.394531 C 96.53125 119.753906 97.277344 119.074219 97.996094 118.355469 C 98.710938 117.640625 99.390625 116.890625 100.03125 116.109375 C 100.675781 115.324219 101.277344 114.511719 101.839844 113.671875 C 102.40625 112.828125 102.925781 111.960938 103.402344 111.070312 C 103.878906 110.175781 104.3125 109.261719 104.703125 108.324219 C 105.089844 107.390625 105.429688 106.4375 105.726562 105.46875 C 106.019531 104.5 106.265625 103.519531 106.464844 102.527344 C 106.664062 101.535156 106.8125 100.53125 106.914062 99.523438 C 107.015625 98.515625 107.066406 97.507812 107.066406 96.496094 L 107.066406 84.121094 C 107.066406 83.109375 107.015625 82.097656 106.914062 81.089844 C 106.8125 80.082031 106.664062 79.082031 106.464844 78.089844 C 106.265625 77.09375 106.019531 76.113281 105.726562 75.144531 C 105.429688 74.175781 105.089844 73.222656 104.703125 72.289062 C 104.3125 71.351562 103.878906 70.4375 103.402344 69.546875 C 102.925781 68.652344 102.40625 67.785156 101.839844 66.945312 C 101.277344 66.101562 100.675781 65.289062 100.03125 64.507812 C 99.390625 63.722656 98.710938 62.972656 97.996094 62.257812 C 97.277344 61.542969 96.53125 60.863281 95.746094 60.21875 C 94.964844 59.578125 94.152344 58.972656 93.308594 58.410156 C 92.46875 57.847656 91.601562 57.328125 90.707031 56.851562 C 89.8125 56.371094 88.898438 55.941406 87.964844 55.550781 C 87.027344 55.164062 86.078125 54.820312 85.109375 54.527344 C 84.140625 54.230469 83.15625 53.984375 82.164062 53.789062 C 81.171875 53.589844 80.171875 53.4375 79.164062 53.339844 C 78.15625 53.238281 77.144531 53.1875 76.132812 53.1875 L 63.757812 53.1875 C 63.351562 53.1875 62.949219 53.226562 62.550781 53.304688 C 62.152344 53.382812 61.765625 53.5 61.390625 53.65625 C 61.015625 53.8125 60.660156 54.003906 60.320312 54.230469 C 59.984375 54.453125 59.671875 54.710938 59.382812 55 C 59.097656 55.285156 58.839844 55.597656 58.613281 55.9375 C 58.390625 56.273438 58.199219 56.628906 58.042969 57.003906 C 57.886719 57.382812 57.769531 57.769531 57.691406 58.167969 C 57.613281 58.566406 57.570312 58.96875 57.570312 59.375 L 57.570312 121.242188 C 57.570312 121.648438 57.613281 122.050781 57.691406 122.449219 C 57.769531 122.847656 57.886719 123.234375 58.042969 123.609375 C 58.199219 123.984375 58.390625 124.339844 58.613281 124.679688 C 58.839844 125.015625 59.097656 125.328125 59.382812 125.617188 C 59.671875 125.902344 59.984375 126.160156 60.320312 126.386719 C 60.660156 126.609375 61.015625 126.800781 61.390625 126.957031 C 61.765625 127.113281 62.152344 127.230469 62.550781 127.308594 C 62.949219 127.386719 63.351562 127.429688 63.757812 127.429688 Z M 69.945312 65.558594 L 76.132812 65.558594 C 76.742188 65.558594 77.347656 65.589844 77.953125 65.648438 C 78.558594 65.710938 79.15625 65.796875 79.753906 65.917969 C 80.351562 66.035156 80.9375 66.183594 81.519531 66.359375 C 82.101562 66.535156 82.671875 66.742188 83.234375 66.972656 C 83.796875 67.207031 84.347656 67.464844 84.882812 67.75 C 85.417969 68.039062 85.9375 68.351562 86.445312 68.6875 C 86.949219 69.027344 87.4375 69.386719 87.90625 69.773438 C 88.378906 70.160156 88.828125 70.566406 89.257812 70.996094 C 89.6875 71.425781 90.09375 71.875 90.480469 72.347656 C 90.867188 72.816406 91.226562 73.304688 91.566406 73.808594 C 91.902344 74.3125 92.214844 74.835938 92.5 75.371094 C 92.789062 75.90625 93.046875 76.457031 93.28125 77.019531 C 93.511719 77.578125 93.71875 78.152344 93.894531 78.734375 C 94.070312 79.3125 94.21875 79.902344 94.335938 80.5 C 94.453125 81.097656 94.542969 81.695312 94.605469 82.300781 C 94.664062 82.90625 94.691406 83.511719 94.691406 84.121094 L 94.691406 96.496094 C 94.691406 97.101562 94.664062 97.707031 94.605469 98.3125 C 94.542969 98.917969 94.453125 99.519531 94.335938 100.113281 C 94.21875 100.710938 94.070312 101.300781 93.894531 101.882812 C 93.71875 102.464844 93.511719 103.035156 93.28125 103.597656 C 93.046875 104.160156 92.789062 104.707031 92.5 105.242188 C 92.214844 105.78125 91.902344 106.300781 91.566406 106.804688 C 91.226562 107.3125 90.867188 107.800781 90.480469 108.269531 C 90.09375 108.738281 89.6875 109.1875 89.257812 109.617188 C 88.828125 110.046875 88.378906 110.457031 87.90625 110.839844 C 87.4375 111.226562 86.949219 111.589844 86.445312 111.925781 C 85.9375 112.265625 85.417969 112.578125 84.882812 112.863281 C 84.347656 113.148438 83.796875 113.410156 83.234375 113.640625 C 82.671875 113.875 82.101562 114.078125 81.519531 114.253906 C 80.9375 114.433594 80.351562 114.578125 79.753906 114.699219 C 79.15625 114.816406 78.558594 114.90625 77.953125 114.964844 C 77.347656 115.023438 76.742188 115.054688 76.132812 115.054688 L 69.945312 115.054688 Z M 69.945312 65.558594 " fill-opacity="1" fill-rule="nonzero"/><path fill="#ffffff" d="M 123.972656 127.203125 C 124.625 127.386719 125.289062 127.457031 125.964844 127.421875 C 126.640625 127.382812 127.292969 127.238281 127.921875 126.988281 C 128.550781 126.738281 129.121094 126.394531 129.636719 125.957031 C 130.152344 125.515625 130.582031 125.007812 130.933594 124.425781 L 144.1875 102.332031 L 157.441406 124.425781 C 157.789062 125.007812 158.222656 125.515625 158.738281 125.957031 C 159.253906 126.394531 159.824219 126.738281 160.453125 126.988281 C 161.082031 127.242188 161.734375 127.386719 162.410156 127.421875 C 163.085938 127.460938 163.75 127.386719 164.402344 127.207031 C 165.054688 127.027344 165.660156 126.746094 166.21875 126.367188 C 166.78125 125.984375 167.265625 125.527344 167.671875 124.988281 C 168.082031 124.449219 168.394531 123.859375 168.613281 123.21875 C 168.828125 122.578125 168.933594 121.917969 168.933594 121.242188 L 168.933594 59.375 C 168.933594 58.96875 168.894531 58.566406 168.816406 58.167969 C 168.738281 57.769531 168.621094 57.382812 168.464844 57.003906 C 168.308594 56.628906 168.117188 56.273438 167.890625 55.9375 C 167.667969 55.597656 167.410156 55.285156 167.121094 55 C 166.835938 54.710938 166.523438 54.453125 166.183594 54.230469 C 165.847656 54.003906 165.492188 53.8125 165.117188 53.65625 C 164.742188 53.5 164.351562 53.382812 163.953125 53.304688 C 163.554688 53.226562 163.152344 53.1875 162.746094 53.1875 C 162.339844 53.1875 161.9375 53.226562 161.539062 53.304688 C 161.140625 53.382812 160.753906 53.5 160.378906 53.65625 C 160.003906 53.8125 159.648438 54.003906 159.3125 54.230469 C 158.972656 54.453125 158.660156 54.710938 158.375 55 C 158.085938 55.285156 157.828125 55.597656 157.605469 55.9375 C 157.378906 56.273438 157.1875 56.628906 157.03125 57.003906 C 156.875 57.382812 156.757812 57.769531 156.679688 58.167969 C 156.601562 58.566406 156.5625 58.96875 156.5625 59.375 L 156.5625 98.90625 L 149.492188 87.121094 C 147.257812 83.394531 141.117188 83.394531 138.882812 87.121094 L 131.8125 98.90625 L 131.8125 59.375 C 131.8125 58.96875 131.773438 58.566406 131.695312 58.167969 C 131.617188 57.769531 131.5 57.382812 131.34375 57.003906 C 131.1875 56.628906 130.996094 56.273438 130.769531 55.9375 C 130.546875 55.597656 130.289062 55.285156 130 55 C 129.714844 54.710938 129.402344 54.453125 129.0625 54.230469 C 128.726562 54.003906 128.371094 53.8125 127.996094 53.65625 C 127.621094 53.5 127.234375 53.382812 126.835938 53.304688 C 126.4375 53.226562 126.035156 53.1875 125.628906 53.1875 C 125.222656 53.1875 124.820312 53.226562 124.421875 53.304688 C 124.023438 53.382812 123.636719 53.5 123.257812 53.65625 C 122.882812 53.8125 122.527344 54.003906 122.191406 54.230469 C 121.851562 54.453125 121.539062 54.710938 121.253906 55 C 120.964844 55.285156 120.707031 55.597656 120.484375 55.9375 C 120.257812 56.273438 120.066406 56.628906 119.910156 57.003906 C 119.753906 57.382812 119.636719 57.769531 119.558594 58.167969 C 119.480469 58.566406 119.441406 58.96875 119.441406 59.375 L 119.441406 121.242188 C 119.441406 121.917969 119.546875 122.578125 119.765625 123.21875 C 119.980469 123.859375 120.292969 124.449219 120.703125 124.988281 C 121.109375 125.523438 121.59375 125.984375 122.15625 126.363281 C 122.714844 126.742188 123.320312 127.023438 123.972656 127.203125 Z M 123.972656 127.203125 " fill-opacity="1" fill-rule="nonzero"/><path fill="#ffffff" d="M 206.054688 127.429688 C 206.867188 127.429688 207.675781 127.386719 208.480469 127.308594 C 209.289062 127.230469 210.089844 127.109375 210.882812 126.953125 C 211.679688 126.792969 212.464844 126.597656 213.238281 126.363281 C 214.015625 126.128906 214.777344 125.855469 215.527344 125.542969 C 216.273438 125.234375 217.007812 124.886719 217.722656 124.507812 C 218.4375 124.125 219.128906 123.707031 219.804688 123.257812 C 220.480469 122.808594 221.128906 122.324219 221.753906 121.8125 C 222.382812 121.296875 222.980469 120.753906 223.554688 120.179688 C 224.128906 119.605469 224.671875 119.007812 225.1875 118.378906 C 225.699219 117.753906 226.183594 117.105469 226.632812 116.429688 C 227.082031 115.757812 227.5 115.0625 227.882812 114.347656 C 228.261719 113.632812 228.609375 112.898438 228.917969 112.152344 C 229.230469 111.402344 229.503906 110.640625 229.738281 109.863281 C 229.972656 109.089844 230.167969 108.304688 230.328125 107.507812 C 230.484375 106.714844 230.605469 105.914062 230.683594 105.105469 C 230.761719 104.300781 230.804688 103.492188 230.804688 102.679688 L 230.804688 90.308594 C 230.804688 89.902344 230.761719 89.5 230.683594 89.101562 C 230.605469 88.703125 230.488281 88.316406 230.332031 87.941406 C 230.175781 87.5625 229.984375 87.207031 229.761719 86.871094 C 229.535156 86.53125 229.277344 86.21875 228.992188 85.933594 C 228.703125 85.644531 228.390625 85.390625 228.054688 85.164062 C 227.714844 84.9375 227.359375 84.746094 226.984375 84.589844 C 226.609375 84.4375 226.222656 84.320312 225.824219 84.238281 C 225.425781 84.160156 225.023438 84.121094 224.617188 84.121094 L 212.242188 84.121094 C 211.835938 84.121094 211.433594 84.160156 211.035156 84.238281 C 210.636719 84.320312 210.25 84.4375 209.875 84.589844 C 209.5 84.746094 209.144531 84.9375 208.804688 85.164062 C 208.46875 85.390625 208.15625 85.644531 207.867188 85.933594 C 207.582031 86.21875 207.324219 86.53125 207.097656 86.871094 C 206.871094 87.207031 206.683594 87.5625 206.527344 87.941406 C 206.371094 88.316406 206.253906 88.703125 206.175781 89.101562 C 206.09375 89.5 206.054688 89.902344 206.054688 90.308594 C 206.054688 90.714844 206.09375 91.117188 206.175781 91.515625 C 206.253906 91.914062 206.371094 92.300781 206.527344 92.675781 C 206.683594 93.050781 206.871094 93.40625 207.097656 93.746094 C 207.324219 94.082031 207.582031 94.394531 207.867188 94.683594 C 208.15625 94.96875 208.46875 95.226562 208.804688 95.453125 C 209.144531 95.675781 209.5 95.867188 209.875 96.023438 C 210.25 96.179688 210.636719 96.296875 211.035156 96.375 C 211.433594 96.453125 211.835938 96.496094 212.242188 96.496094 L 218.429688 96.496094 L 218.429688 102.679688 C 218.429688 103.492188 218.351562 104.296875 218.191406 105.09375 C 218.03125 105.890625 217.796875 106.664062 217.488281 107.417969 C 217.175781 108.167969 216.796875 108.878906 216.34375 109.554688 C 215.894531 110.230469 215.378906 110.855469 214.804688 111.429688 C 214.230469 112.003906 213.605469 112.519531 212.929688 112.96875 C 212.253906 113.421875 211.542969 113.800781 210.789062 114.113281 C 210.039062 114.421875 209.265625 114.660156 208.46875 114.816406 C 207.671875 114.976562 206.867188 115.054688 206.054688 115.054688 C 205.242188 115.054688 204.4375 114.976562 203.640625 114.816406 C 202.84375 114.660156 202.070312 114.421875 201.320312 114.113281 C 200.570312 113.800781 199.855469 113.421875 199.179688 112.96875 C 198.503906 112.519531 197.878906 112.003906 197.304688 111.429688 C 196.730469 110.855469 196.21875 110.230469 195.765625 109.554688 C 195.316406 108.878906 194.933594 108.167969 194.625 107.417969 C 194.3125 106.664062 194.078125 105.890625 193.917969 105.09375 C 193.761719 104.296875 193.683594 103.492188 193.683594 102.679688 L 193.683594 77.933594 C 193.683594 76.679688 193.867188 75.457031 194.242188 74.261719 C 194.613281 73.066406 195.152344 71.949219 195.863281 70.917969 C 196.574219 69.886719 197.421875 68.984375 198.40625 68.210938 C 199.390625 67.4375 200.46875 66.824219 201.636719 66.378906 C 202.808594 65.929688 204.019531 65.667969 205.269531 65.585938 C 206.519531 65.507812 207.753906 65.617188 208.96875 65.910156 C 210.1875 66.207031 211.332031 66.675781 212.410156 67.316406 C 213.484375 67.960938 214.4375 68.75 215.273438 69.683594 C 215.546875 69.984375 215.84375 70.257812 216.167969 70.503906 C 216.492188 70.746094 216.839844 70.957031 217.207031 71.132812 C 217.570312 71.308594 217.953125 71.449219 218.34375 71.550781 C 218.738281 71.652344 219.140625 71.710938 219.546875 71.734375 C 219.949219 71.757812 220.355469 71.738281 220.757812 71.683594 C 221.160156 71.625 221.554688 71.527344 221.9375 71.394531 C 222.320312 71.261719 222.6875 71.089844 223.035156 70.882812 C 223.386719 70.675781 223.714844 70.4375 224.015625 70.164062 C 224.320312 69.894531 224.59375 69.59375 224.835938 69.269531 C 225.082031 68.945312 225.289062 68.597656 225.464844 68.234375 C 225.640625 67.867188 225.78125 67.484375 225.882812 67.09375 C 225.980469 66.699219 226.042969 66.296875 226.066406 65.890625 C 226.085938 65.488281 226.070312 65.082031 226.011719 64.679688 C 225.953125 64.277344 225.859375 63.882812 225.722656 63.5 C 225.589844 63.117188 225.417969 62.75 225.210938 62.402344 C 225.003906 62.050781 224.765625 61.726562 224.492188 61.421875 C 223.660156 60.496094 222.765625 59.632812 221.804688 58.839844 C 220.84375 58.046875 219.828125 57.332031 218.761719 56.691406 C 217.691406 56.054688 216.582031 55.5 215.425781 55.027344 C 214.273438 54.554688 213.09375 54.171875 211.882812 53.878906 C 210.671875 53.585938 209.445312 53.386719 208.203125 53.277344 C 206.964844 53.167969 205.722656 53.152344 204.480469 53.234375 C 203.234375 53.3125 202.003906 53.484375 200.789062 53.75 C 199.570312 54.015625 198.382812 54.371094 197.21875 54.816406 C 196.054688 55.261719 194.929688 55.789062 193.847656 56.40625 C 192.765625 57.019531 191.734375 57.710938 190.753906 58.480469 C 189.773438 59.25 188.859375 60.089844 188.007812 61 C 187.15625 61.90625 186.375 62.875 185.667969 63.902344 C 184.964844 64.925781 184.339844 66 183.792969 67.121094 C 183.25 68.242188 182.792969 69.398438 182.421875 70.585938 C 182.054688 71.777344 181.777344 72.988281 181.589844 74.21875 C 181.402344 75.449219 181.308594 76.6875 181.308594 77.933594 L 181.308594 102.679688 C 181.308594 103.492188 181.347656 104.300781 181.425781 105.105469 C 181.507812 105.914062 181.625 106.714844 181.785156 107.507812 C 181.941406 108.304688 182.140625 109.089844 182.375 109.863281 C 182.609375 110.640625 182.882812 111.402344 183.191406 112.152344 C 183.503906 112.898438 183.847656 113.632812 184.230469 114.347656 C 184.613281 115.0625 185.027344 115.757812 185.480469 116.429688 C 185.929688 117.105469 186.410156 117.753906 186.925781 118.378906 C 187.441406 119.007812 187.984375 119.605469 188.558594 120.179688 C 189.128906 120.753906 189.730469 121.296875 190.355469 121.8125 C 190.984375 122.324219 191.632812 122.808594 192.308594 123.257812 C 192.980469 123.707031 193.675781 124.125 194.390625 124.507812 C 195.105469 124.886719 195.835938 125.234375 196.585938 125.542969 C 197.335938 125.855469 198.097656 126.128906 198.871094 126.363281 C 199.648438 126.597656 200.433594 126.792969 201.226562 126.953125 C 202.023438 127.109375 202.824219 127.230469 203.628906 127.308594 C 204.4375 127.386719 205.246094 127.429688 206.054688 127.429688 Z M 206.054688 127.429688 " fill-opacity="1" fill-rule="nonzero"/><path fill="#ffffff" d="M 323.605469 257.351562 C 323.605469 257.757812 323.566406 258.160156 323.488281 258.558594 C 323.40625 258.957031 323.289062 259.34375 323.132812 259.71875 C 322.980469 260.09375 322.789062 260.449219 322.5625 260.789062 C 322.335938 261.125 322.082031 261.4375 321.792969 261.726562 C 321.507812 262.011719 321.195312 262.269531 320.855469 262.496094 C 320.519531 262.722656 320.160156 262.910156 319.785156 263.066406 C 319.410156 263.222656 319.023438 263.339844 318.625 263.417969 C 318.226562 263.5 317.824219 263.539062 317.417969 263.539062 C 317.011719 263.539062 316.609375 263.5 316.210938 263.417969 C 315.8125 263.339844 315.425781 263.222656 315.050781 263.066406 C 314.675781 262.910156 314.320312 262.722656 313.980469 262.496094 C 313.644531 262.269531 313.332031 262.011719 313.042969 261.726562 C 312.757812 261.4375 312.5 261.125 312.273438 260.789062 C 312.046875 260.449219 311.859375 260.09375 311.703125 259.71875 C 311.546875 259.34375 311.429688 258.957031 311.351562 258.558594 C 311.269531 258.160156 311.230469 257.757812 311.230469 257.351562 C 311.230469 256.945312 311.269531 256.542969 311.351562 256.144531 C 311.429688 255.746094 311.546875 255.359375 311.703125 254.984375 C 311.859375 254.609375 312.046875 254.253906 312.273438 253.914062 C 312.5 253.578125 312.757812 253.265625 313.042969 252.976562 C 313.332031 252.691406 313.644531 252.433594 313.980469 252.207031 C 314.320312 251.980469 314.675781 251.792969 315.050781 251.636719 C 315.425781 251.480469 315.8125 251.363281 316.210938 251.285156 C 316.609375 251.203125 317.011719 251.164062 317.417969 251.164062 C 317.824219 251.164062 318.226562 251.203125 318.625 251.285156 C 319.023438 251.363281 319.410156 251.480469 319.785156 251.636719 C 320.160156 251.792969 320.519531 251.980469 320.855469 252.207031 C 321.195312 252.433594 321.507812 252.691406 321.792969 252.976562 C 322.082031 253.265625 322.335938 253.578125 322.5625 253.914062 C 322.789062 254.253906 322.980469 254.609375 323.132812 254.984375 C 323.289062 255.359375 323.40625 255.746094 323.488281 256.144531 C 323.566406 256.542969 323.605469 256.945312 323.605469 257.351562 Z M 323.605469 257.351562 " fill-opacity="1" fill-rule="nonzero"/><g clip-path="url(#692ff31bcd)"><path fill="#ffffff" d="M 342.164062 3.691406 L 57.570312 3.691406 C 57.164062 3.691406 56.761719 3.730469 56.363281 3.8125 C 55.964844 3.890625 55.578125 4.007812 55.203125 4.164062 C 54.828125 4.316406 54.472656 4.507812 54.136719 4.734375 C 53.796875 4.960938 53.484375 5.214844 53.199219 5.503906 C 52.910156 5.792969 52.652344 6.105469 52.429688 6.441406 C 52.203125 6.777344 52.011719 7.136719 51.855469 7.511719 C 51.699219 7.886719 51.582031 8.273438 51.503906 8.671875 C 51.425781 9.070312 51.386719 9.472656 51.386719 9.878906 L 51.386719 28.4375 L 32.824219 28.4375 C 32.417969 28.4375 32.015625 28.480469 31.617188 28.558594 C 31.21875 28.636719 30.832031 28.753906 30.457031 28.910156 C 30.082031 29.066406 29.726562 29.257812 29.386719 29.480469 C 29.050781 29.707031 28.738281 29.964844 28.449219 30.25 C 28.164062 30.539062 27.90625 30.851562 27.679688 31.1875 C 27.453125 31.527344 27.265625 31.882812 27.109375 32.257812 C 26.953125 32.632812 26.835938 33.019531 26.757812 33.417969 C 26.675781 33.816406 26.636719 34.21875 26.636719 34.625 L 26.636719 368.714844 C 26.636719 369.121094 26.675781 369.523438 26.757812 369.921875 C 26.835938 370.320312 26.953125 370.707031 27.109375 371.082031 C 27.265625 371.457031 27.453125 371.8125 27.679688 372.152344 C 27.90625 372.488281 28.164062 372.800781 28.449219 373.089844 C 28.738281 373.375 29.050781 373.632812 29.386719 373.859375 C 29.726562 374.085938 30.082031 374.273438 30.457031 374.429688 C 30.832031 374.585938 31.21875 374.703125 31.617188 374.78125 C 32.015625 374.863281 32.417969 374.902344 32.824219 374.902344 L 317.417969 374.902344 C 317.824219 374.902344 318.226562 374.863281 318.625 374.78125 C 319.023438 374.703125 319.410156 374.585938 319.785156 374.429688 C 320.160156 374.273438 320.519531 374.085938 320.855469 373.859375 C 321.195312 373.632812 321.507812 373.375 321.792969 373.089844 C 322.082031 372.800781 322.335938 372.488281 322.5625 372.152344 C 322.789062 371.8125 322.980469 371.457031 323.132812 371.082031 C 323.289062 370.707031 323.40625 370.320312 323.488281 369.921875 C 323.566406 369.523438 323.605469 369.121094 323.605469 368.714844 L 323.605469 350.152344 L 342.164062 350.152344 C 342.570312 350.152344 342.972656 350.113281 343.371094 350.035156 C 343.769531 349.957031 344.15625 349.839844 344.535156 349.683594 C 344.910156 349.527344 345.265625 349.335938 345.601562 349.109375 C 345.941406 348.886719 346.253906 348.628906 346.539062 348.34375 C 346.828125 348.054688 347.085938 347.742188 347.308594 347.402344 C 347.535156 347.066406 347.726562 346.710938 347.882812 346.335938 C 348.039062 345.960938 348.15625 345.574219 348.234375 345.175781 C 348.3125 344.777344 348.351562 344.375 348.351562 343.96875 L 348.351562 9.878906 C 348.351562 9.472656 348.3125 9.070312 348.234375 8.671875 C 348.15625 8.273438 348.039062 7.886719 347.882812 7.511719 C 347.726562 7.136719 347.535156 6.777344 347.308594 6.441406 C 347.085938 6.105469 346.828125 5.792969 346.539062 5.503906 C 346.253906 5.214844 345.941406 4.960938 345.601562 4.734375 C 345.265625 4.507812 344.910156 4.316406 344.535156 4.164062 C 344.15625 4.007812 343.769531 3.890625 343.371094 3.8125 C 342.972656 3.730469 342.570312 3.691406 342.164062 3.691406 Z M 249.363281 40.8125 L 249.363281 84.121094 C 249.363281 84.726562 249.394531 85.335938 249.453125 85.941406 C 249.511719 86.542969 249.601562 87.144531 249.71875 87.742188 C 249.839844 88.335938 249.984375 88.925781 250.164062 89.507812 C 250.339844 90.089844 250.542969 90.660156 250.777344 91.222656 C 251.007812 91.785156 251.269531 92.332031 251.554688 92.871094 C 251.839844 93.40625 252.152344 93.925781 252.492188 94.433594 C 252.828125 94.9375 253.191406 95.425781 253.578125 95.894531 C 253.960938 96.363281 254.371094 96.816406 254.800781 97.246094 C 255.230469 97.675781 255.679688 98.082031 256.148438 98.46875 C 256.621094 98.855469 257.105469 99.214844 257.613281 99.554688 C 258.117188 99.890625 258.636719 100.203125 259.175781 100.488281 C 259.710938 100.777344 260.257812 101.035156 260.820312 101.269531 C 261.382812 101.5 261.953125 101.707031 262.535156 101.882812 C 263.117188 102.058594 263.707031 102.207031 264.304688 102.324219 C 264.898438 102.441406 265.5 102.53125 266.105469 102.589844 C 266.710938 102.652344 267.316406 102.679688 267.925781 102.679688 L 311.230469 102.679688 L 311.230469 139.800781 L 39.011719 139.800781 L 39.011719 40.8125 Z M 261.738281 49.558594 L 302.484375 90.308594 L 267.925781 90.308594 C 267.519531 90.308594 267.117188 90.269531 266.71875 90.1875 C 266.320312 90.109375 265.933594 89.992188 265.554688 89.835938 C 265.179688 89.679688 264.824219 89.492188 264.488281 89.265625 C 264.148438 89.039062 263.835938 88.78125 263.550781 88.496094 C 263.261719 88.207031 263.003906 87.894531 262.78125 87.558594 C 262.554688 87.21875 262.363281 86.863281 262.207031 86.488281 C 262.050781 86.113281 261.933594 85.726562 261.855469 85.328125 C 261.777344 84.929688 261.738281 84.527344 261.738281 84.121094 Z M 335.980469 337.78125 L 323.605469 337.78125 L 323.605469 282.097656 C 323.605469 281.691406 323.566406 281.289062 323.488281 280.890625 C 323.40625 280.492188 323.289062 280.105469 323.132812 279.730469 C 322.980469 279.355469 322.789062 279 322.5625 278.660156 C 322.335938 278.324219 322.082031 278.011719 321.792969 277.722656 C 321.507812 277.4375 321.195312 277.179688 320.855469 276.953125 C 320.519531 276.730469 320.160156 276.539062 319.785156 276.382812 C 319.410156 276.226562 319.023438 276.109375 318.625 276.03125 C 318.226562 275.953125 317.824219 275.910156 317.417969 275.910156 C 317.011719 275.910156 316.609375 275.953125 316.210938 276.03125 C 315.8125 276.109375 315.425781 276.226562 315.050781 276.382812 C 314.675781 276.539062 314.320312 276.730469 313.980469 276.953125 C 313.644531 277.179688 313.332031 277.4375 313.042969 277.722656 C 312.757812 278.011719 312.5 278.324219 312.273438 278.660156 C 312.046875 279 311.859375 279.355469 311.703125 279.730469 C 311.546875 280.105469 311.429688 280.492188 311.351562 280.890625 C 311.269531 281.289062 311.230469 281.691406 311.230469 282.097656 L 311.230469 362.527344 L 39.011719 362.527344 L 39.011719 152.175781 L 311.230469 152.175781 L 311.230469 232.605469 C 311.230469 233.011719 311.269531 233.414062 311.351562 233.8125 C 311.429688 234.210938 311.546875 234.597656 311.703125 234.972656 C 311.859375 235.347656 312.046875 235.703125 312.273438 236.042969 C 312.5 236.378906 312.757812 236.691406 313.042969 236.980469 C 313.332031 237.265625 313.644531 237.523438 313.980469 237.75 C 314.320312 237.972656 314.675781 238.164062 315.050781 238.320312 C 315.425781 238.476562 315.8125 238.59375 316.210938 238.671875 C 316.609375 238.75 317.011719 238.792969 317.417969 238.792969 C 317.824219 238.792969 318.226562 238.75 318.625 238.671875 C 319.023438 238.59375 319.410156 238.476562 319.785156 238.320312 C 320.160156 238.164062 320.519531 237.972656 320.855469 237.75 C 321.195312 237.523438 321.507812 237.265625 321.792969 236.980469 C 322.082031 236.691406 322.335938 236.378906 322.5625 236.042969 C 322.789062 235.703125 322.980469 235.347656 323.132812 234.972656 C 323.289062 234.597656 323.40625 234.210938 323.488281 233.8125 C 323.566406 233.414062 323.605469 233.011719 323.605469 232.605469 L 323.605469 96.496094 C 323.605469 95.671875 323.449219 94.882812 323.136719 94.125 C 322.824219 93.367188 322.375 92.699219 321.796875 92.117188 L 259.925781 30.25 C 259.347656 29.667969 258.675781 29.222656 257.917969 28.910156 C 257.160156 28.59375 256.371094 28.4375 255.550781 28.4375 L 63.757812 28.4375 L 63.757812 16.066406 L 335.980469 16.066406 Z M 335.980469 337.78125 " fill-opacity="1" fill-rule="nonzero"/></g><g fill="#000000" fill-opacity="1"><g transform="translate(171.585931, 234.491322)"><g><path d="M 2.109375 0.078125 C 1.804688 0.078125 1.566406 -0.00390625 1.390625 -0.171875 C 1.222656 -0.335938 1.140625 -0.5625 1.140625 -0.84375 C 1.140625 -1.113281 1.222656 -1.332031 1.390625 -1.5 C 1.566406 -1.675781 1.804688 -1.765625 2.109375 -1.765625 C 2.410156 -1.765625 2.644531 -1.679688 2.8125 -1.515625 C 2.988281 -1.347656 3.078125 -1.128906 3.078125 -0.859375 C 3.078125 -0.578125 2.988281 -0.347656 2.8125 -0.171875 C 2.632812 -0.00390625 2.398438 0.078125 2.109375 0.078125 Z M 2.109375 0.078125 "/></g></g></g></svg>