<svg xmlns="http://www.w3.org/2000/svg" xmlns:xlink="http://www.w3.org/1999/xlink" width="500" zoomAndPan="magnify" viewBox="0 0 375 374.999991" height="500" preserveAspectRatio="xMidYMid meet" version="1.0"><defs><g/></defs><g fill="#ffffff" fill-opacity="1"><g transform="translate(26.08594, 202.499987)"><g><path d="M 12.65625 0.40625 C 10.675781 0.40625 8.914062 0.160156 7.375 -0.328125 C 5.832031 -0.816406 4.546875 -1.457031 3.515625 -2.25 C 2.484375 -3.039062 1.695312 -3.910156 1.15625 -4.859375 L 4.265625 -8.65625 L 4.75 -8.65625 C 5.601562 -7.375 6.691406 -6.351562 8.015625 -5.59375 C 9.335938 -4.84375 10.882812 -4.46875 12.65625 -4.46875 C 14.164062 -4.46875 15.304688 -4.785156 16.078125 -5.421875 C 16.847656 -6.066406 17.234375 -6.945312 17.234375 -8.0625 C 17.234375 -8.738281 17.109375 -9.304688 16.859375 -9.765625 C 16.609375 -10.222656 16.195312 -10.613281 15.625 -10.9375 C 15.050781 -11.257812 14.273438 -11.539062 13.296875 -11.78125 L 9.625 -12.625 C 7.0625 -13.207031 5.148438 -14.175781 3.890625 -15.53125 C 2.640625 -16.894531 2.015625 -18.664062 2.015625 -20.84375 C 2.015625 -22.457031 2.414062 -23.875 3.21875 -25.09375 C 4.03125 -26.320312 5.207031 -27.273438 6.75 -27.953125 C 8.289062 -28.628906 10.132812 -28.96875 12.28125 -28.96875 C 14.488281 -28.96875 16.375 -28.675781 17.9375 -28.09375 C 19.507812 -27.519531 20.835938 -26.632812 21.921875 -25.4375 L 19.125 -21.609375 L 18.640625 -21.609375 C 17.828125 -22.453125 16.898438 -23.082031 15.859375 -23.5 C 14.816406 -23.925781 13.625 -24.140625 12.28125 -24.140625 C 10.738281 -24.140625 9.5625 -23.863281 8.75 -23.3125 C 7.945312 -22.769531 7.546875 -22.019531 7.546875 -21.0625 C 7.546875 -20.15625 7.828125 -19.4375 8.390625 -18.90625 C 8.953125 -18.375 9.929688 -17.957031 11.328125 -17.65625 L 15.078125 -16.875 C 17.847656 -16.289062 19.859375 -15.296875 21.109375 -13.890625 C 22.359375 -12.492188 22.984375 -10.671875 22.984375 -8.421875 C 22.984375 -6.640625 22.597656 -5.085938 21.828125 -3.765625 C 21.066406 -2.441406 19.910156 -1.414062 18.359375 -0.6875 C 16.804688 0.0390625 14.90625 0.40625 12.65625 0.40625 Z M 12.65625 0.40625 "/></g></g></g><g fill="#ffffff" fill-opacity="1"><g transform="translate(50.614793, 202.499987)"><g><path d="M 22.703125 7.109375 C 20.179688 7.109375 18.09375 6.503906 16.4375 5.296875 C 14.78125 4.085938 13.664062 2.398438 13.09375 0.234375 C 10.914062 -0.078125 9.015625 -0.816406 7.390625 -1.984375 C 5.773438 -3.148438 4.515625 -4.757812 3.609375 -6.8125 C 2.703125 -8.875 2.25 -11.363281 2.25 -14.28125 C 2.25 -17.550781 2.8125 -20.28125 3.9375 -22.46875 C 5.070312 -24.664062 6.640625 -26.296875 8.640625 -27.359375 C 10.640625 -28.429688 12.945312 -28.96875 15.5625 -28.96875 C 18.1875 -28.96875 20.492188 -28.4375 22.484375 -27.375 C 24.472656 -26.3125 26.03125 -24.679688 27.15625 -22.484375 C 28.28125 -20.285156 28.84375 -17.550781 28.84375 -14.28125 C 28.84375 -10.007812 27.925781 -6.726562 26.09375 -4.4375 C 24.269531 -2.15625 21.707031 -0.734375 18.40625 -0.171875 L 18.296875 0.21875 C 18.703125 0.90625 19.304688 1.429688 20.109375 1.796875 C 20.910156 2.171875 21.84375 2.359375 22.90625 2.359375 C 23.769531 2.359375 24.546875 2.25 25.234375 2.03125 L 25.625 2.109375 L 26.421875 6.53125 C 26.003906 6.6875 25.441406 6.820312 24.734375 6.9375 C 24.035156 7.050781 23.359375 7.109375 22.703125 7.109375 Z M 15.5625 -4.5 C 17.988281 -4.5 19.835938 -5.273438 21.109375 -6.828125 C 22.390625 -8.378906 23.03125 -10.863281 23.03125 -14.28125 C 23.03125 -17.6875 22.390625 -20.171875 21.109375 -21.734375 C 19.835938 -23.296875 17.988281 -24.078125 15.5625 -24.078125 C 13.132812 -24.078125 11.273438 -23.296875 9.984375 -21.734375 C 8.703125 -20.171875 8.0625 -17.6875 8.0625 -14.28125 C 8.0625 -10.863281 8.703125 -8.378906 9.984375 -6.828125 C 11.273438 -5.273438 13.132812 -4.5 15.5625 -4.5 Z M 15.5625 -4.5 "/></g></g></g><g fill="#ffffff" fill-opacity="1"><g transform="translate(81.725039, 202.499987)"><g><path d="M 15.140625 0.40625 C 11.203125 0.40625 8.28125 -0.523438 6.375 -2.390625 C 4.476562 -4.265625 3.53125 -7.035156 3.53125 -10.703125 L 3.53125 -28.5625 L 9.0625 -28.5625 L 9.0625 -10.75 C 9.0625 -8.664062 9.5625 -7.101562 10.5625 -6.0625 C 11.570312 -5.019531 13.097656 -4.5 15.140625 -4.5 C 19.191406 -4.5 21.21875 -6.582031 21.21875 -10.75 L 21.21875 -28.5625 L 26.734375 -28.5625 L 26.734375 -10.703125 C 26.734375 -7.035156 25.78125 -4.265625 23.875 -2.390625 C 21.976562 -0.523438 19.066406 0.40625 15.140625 0.40625 Z M 15.140625 0.40625 "/></g></g></g><g fill="#ffffff" fill-opacity="1"><g transform="translate(111.995518, 202.499987)"><g><path d="M 27.40625 0 L 21.46875 0 L 19.3125 -6.578125 L 8.375 -6.578125 L 6.234375 0 L 0.4375 0 L 10.296875 -28.5625 L 17.546875 -28.5625 Z M 13.578125 -22.59375 L 9.90625 -11.328125 L 17.75 -11.328125 L 14.0625 -22.59375 Z M 13.578125 -22.59375 "/></g></g></g><g fill="#ffffff" fill-opacity="1"><g transform="translate(139.824835, 202.499987)"><g><path d="M 3.71875 0 L 3.71875 -28.5625 L 15.171875 -28.5625 C 18.128906 -28.5625 20.359375 -27.878906 21.859375 -26.515625 C 23.367188 -25.148438 24.125 -23.269531 24.125 -20.875 C 24.125 -19.144531 23.679688 -17.726562 22.796875 -16.625 C 21.921875 -15.519531 20.613281 -14.671875 18.875 -14.078125 L 18.875 -13.671875 C 19.769531 -13.285156 20.492188 -12.707031 21.046875 -11.9375 C 21.597656 -11.164062 22.125 -10.023438 22.625 -8.515625 L 25.46875 0 L 19.671875 0 L 16.875 -8.53125 C 16.59375 -9.394531 16.269531 -10.0625 15.90625 -10.53125 C 15.550781 -11.007812 15.097656 -11.351562 14.546875 -11.5625 C 13.992188 -11.78125 13.273438 -11.890625 12.390625 -11.890625 L 9.359375 -11.890625 L 9.359375 0 Z M 14.5 -16.375 C 17.226562 -16.375 18.59375 -17.648438 18.59375 -20.203125 C 18.59375 -22.785156 17.226562 -24.078125 14.5 -24.078125 L 9.359375 -24.078125 L 9.359375 -16.375 Z M 14.5 -16.375 "/></g></g></g><g fill="#ffffff" fill-opacity="1"><g transform="translate(166.521451, 202.499987)"><g><path d="M 9.359375 -12.546875 L 9.359375 -4.734375 L 22.984375 -4.734375 L 22.984375 0 L 3.71875 0 L 3.71875 -28.5625 L 22.671875 -28.5625 L 22.671875 -23.828125 L 9.359375 -23.828125 L 9.359375 -17.15625 L 21 -17.15625 L 21 -12.546875 Z M 9.359375 -12.546875 "/></g></g></g><g fill="#ffffff" fill-opacity="1"><g transform="translate(191.069839, 202.499987)"><g><path d="M 13.671875 -11.484375 L 1.703125 -11.484375 L 1.703125 -16.25 L 13.671875 -16.25 Z M 13.671875 -11.484375 "/></g></g></g><g fill="#ffffff" fill-opacity="1"><g transform="translate(206.478495, 202.499987)"><g><path d="M 12.65625 0.40625 C 10.675781 0.40625 8.914062 0.160156 7.375 -0.328125 C 5.832031 -0.816406 4.546875 -1.457031 3.515625 -2.25 C 2.484375 -3.039062 1.695312 -3.910156 1.15625 -4.859375 L 4.265625 -8.65625 L 4.75 -8.65625 C 5.601562 -7.375 6.691406 -6.351562 8.015625 -5.59375 C 9.335938 -4.84375 10.882812 -4.46875 12.65625 -4.46875 C 14.164062 -4.46875 15.304688 -4.785156 16.078125 -5.421875 C 16.847656 -6.066406 17.234375 -6.945312 17.234375 -8.0625 C 17.234375 -8.738281 17.109375 -9.304688 16.859375 -9.765625 C 16.609375 -10.222656 16.195312 -10.613281 15.625 -10.9375 C 15.050781 -11.257812 14.273438 -11.539062 13.296875 -11.78125 L 9.625 -12.625 C 7.0625 -13.207031 5.148438 -14.175781 3.890625 -15.53125 C 2.640625 -16.894531 2.015625 -18.664062 2.015625 -20.84375 C 2.015625 -22.457031 2.414062 -23.875 3.21875 -25.09375 C 4.03125 -26.320312 5.207031 -27.273438 6.75 -27.953125 C 8.289062 -28.628906 10.132812 -28.96875 12.28125 -28.96875 C 14.488281 -28.96875 16.375 -28.675781 17.9375 -28.09375 C 19.507812 -27.519531 20.835938 -26.632812 21.921875 -25.4375 L 19.125 -21.609375 L 18.640625 -21.609375 C 17.828125 -22.453125 16.898438 -23.082031 15.859375 -23.5 C 14.816406 -23.925781 13.625 -24.140625 12.28125 -24.140625 C 10.738281 -24.140625 9.5625 -23.863281 8.75 -23.3125 C 7.945312 -22.769531 7.546875 -22.019531 7.546875 -21.0625 C 7.546875 -20.15625 7.828125 -19.4375 8.390625 -18.90625 C 8.953125 -18.375 9.929688 -17.957031 11.328125 -17.65625 L 15.078125 -16.875 C 17.847656 -16.289062 19.859375 -15.296875 21.109375 -13.890625 C 22.359375 -12.492188 22.984375 -10.671875 22.984375 -8.421875 C 22.984375 -6.640625 22.597656 -5.085938 21.828125 -3.765625 C 21.066406 -2.441406 19.910156 -1.414062 18.359375 -0.6875 C 16.804688 0.0390625 14.90625 0.40625 12.65625 0.40625 Z M 12.65625 0.40625 "/></g></g></g><g fill="#ffffff" fill-opacity="1"><g transform="translate(231.007359, 202.499987)"><g><path d="M 14.75 -28.5625 C 16.789062 -28.5625 18.535156 -28.1875 19.984375 -27.4375 C 21.441406 -26.6875 22.539062 -25.632812 23.28125 -24.28125 C 24.019531 -22.9375 24.390625 -21.375 24.390625 -19.59375 C 24.390625 -17.8125 24.019531 -16.25 23.28125 -14.90625 C 22.539062 -13.5625 21.441406 -12.515625 19.984375 -11.765625 C 18.535156 -11.015625 16.789062 -10.640625 14.75 -10.640625 L 9.359375 -10.640625 L 9.359375 0 L 3.71875 0 L 3.71875 -28.5625 Z M 14 -15.125 C 17.144531 -15.125 18.71875 -16.613281 18.71875 -19.59375 C 18.71875 -22.582031 17.144531 -24.078125 14 -24.078125 L 9.359375 -24.078125 L 9.359375 -15.125 Z M 14 -15.125 "/></g></g></g><g fill="#ffffff" fill-opacity="1"><g transform="translate(257.098559, 202.499987)"><g><path d="M 27.40625 0 L 21.46875 0 L 19.3125 -6.578125 L 8.375 -6.578125 L 6.234375 0 L 0.4375 0 L 10.296875 -28.5625 L 17.546875 -28.5625 Z M 13.578125 -22.59375 L 9.90625 -11.328125 L 17.75 -11.328125 L 14.0625 -22.59375 Z M 13.578125 -22.59375 "/></g></g></g><g fill="#ffffff" fill-opacity="1"><g transform="translate(284.927887, 202.499987)"><g><path d="M 15.609375 0.40625 C 12.972656 0.40625 10.648438 -0.140625 8.640625 -1.234375 C 6.640625 -2.328125 5.070312 -3.96875 3.9375 -6.15625 C 2.8125 -8.351562 2.25 -11.0625 2.25 -14.28125 C 2.25 -17.5 2.8125 -20.203125 3.9375 -22.390625 C 5.070312 -24.585938 6.640625 -26.234375 8.640625 -27.328125 C 10.648438 -28.421875 12.972656 -28.96875 15.609375 -28.96875 C 18.359375 -28.96875 20.691406 -28.429688 22.609375 -27.359375 C 24.523438 -26.285156 25.894531 -24.644531 26.71875 -22.4375 L 22.59375 -19.921875 L 22.109375 -19.9375 C 21.492188 -21.425781 20.660156 -22.492188 19.609375 -23.140625 C 18.566406 -23.785156 17.234375 -24.109375 15.609375 -24.109375 C 13.234375 -24.109375 11.378906 -23.320312 10.046875 -21.75 C 8.722656 -20.175781 8.0625 -17.6875 8.0625 -14.28125 C 8.0625 -10.882812 8.722656 -8.398438 10.046875 -6.828125 C 11.378906 -5.253906 13.234375 -4.46875 15.609375 -4.46875 C 19.316406 -4.46875 21.585938 -6.273438 22.421875 -9.890625 L 22.90625 -9.890625 L 27.078125 -7.71875 C 26.296875 -5.007812 24.957031 -2.976562 23.0625 -1.625 C 21.175781 -0.269531 18.691406 0.40625 15.609375 0.40625 Z M 15.609375 0.40625 "/></g></g></g><g fill="#ffffff" fill-opacity="1"><g transform="translate(312.932952, 202.499987)"><g><path d="M 9.359375 -12.546875 L 9.359375 -4.734375 L 22.984375 -4.734375 L 22.984375 0 L 3.71875 0 L 3.71875 -28.5625 L 22.671875 -28.5625 L 22.671875 -23.828125 L 9.359375 -23.828125 L 9.359375 -17.15625 L 21 -17.15625 L 21 -12.546875 Z M 9.359375 -12.546875 "/></g></g></g></svg>