<svg xmlns="http://www.w3.org/2000/svg" xmlns:xlink="http://www.w3.org/1999/xlink" width="500" zoomAndPan="magnify" viewBox="0 0 375 374.999991" height="500" preserveAspectRatio="xMidYMid meet" version="1.0"><defs><g/><clipPath id="1e9f1804e4"><path d="M 39 215 L 341.800781 215 L 341.800781 231 L 39 231 Z M 39 215 " clip-rule="nonzero"/></clipPath><clipPath id="c37761237c"><path d="M 220 175 L 332 175 L 332 291.160156 L 220 291.160156 Z M 220 175 " clip-rule="nonzero"/></clipPath><clipPath id="41244ebacc"><path d="M 129 84.160156 L 196 84.160156 L 196 126 L 129 126 Z M 129 84.160156 " clip-rule="nonzero"/></clipPath><clipPath id="867c21e1c4"><path d="M 69 250 L 221 250 L 221 291.160156 L 69 291.160156 Z M 69 250 " clip-rule="nonzero"/></clipPath><clipPath id="61f78d3a75"><path d="M 49 230 L 221 230 L 221 291.160156 L 49 291.160156 Z M 49 230 " clip-rule="nonzero"/></clipPath></defs><path fill="#eac6bb" d="M 276.175781 185.148438 C 256.648438 185.148438 240.859375 169.296875 240.859375 149.820312 C 240.859375 149.820312 250.949219 170.007812 276.175781 170.007812 C 301.402344 170.007812 311.492188 149.820312 311.492188 149.820312 C 311.492188 169.296875 295.648438 185.148438 276.175781 185.148438 Z M 276.175781 185.148438 " fill-opacity="1" fill-rule="nonzero"/><path fill="#965353" d="M 296.355469 94.300781 L 296.355469 109.441406 C 304.730469 109.441406 311.441406 116.207031 311.492188 124.582031 L 311.492188 149.820312 C 311.492188 149.820312 301.402344 170.007812 276.175781 170.007812 C 250.949219 170.007812 240.859375 149.820312 240.859375 149.820312 L 240.859375 124.582031 C 240.859375 107.871094 254.382812 94.300781 271.128906 94.300781 Z M 296.355469 94.300781 " fill-opacity="1" fill-rule="nonzero"/><path fill="#844747" d="M 311.492188 149.820312 L 311.492188 124.582031 C 311.441406 116.207031 304.730469 109.441406 296.355469 109.441406 L 296.355469 94.300781 L 286.265625 94.300781 L 286.265625 109.441406 C 286.265625 115.015625 290.78125 119.535156 296.355469 119.535156 C 299.164062 119.535156 301.378906 121.773438 301.402344 124.632812 L 301.402344 161.472656 C 308.398438 155.960938 311.492188 149.820312 311.492188 149.820312 Z M 311.492188 149.820312 " fill-opacity="1" fill-rule="nonzero"/><path fill="#d3b1a9" d="M 301.402344 161.472656 L 301.402344 174.496094 C 307.625 168.125 311.492188 159.421875 311.492188 149.820312 C 311.492188 149.820312 308.398438 155.960938 301.402344 161.472656 Z M 301.402344 161.472656 " fill-opacity="1" fill-rule="nonzero"/><g clip-path="url(#1e9f1804e4)"><path fill="#965353" d="M 336.707031 215.421875 C 339.484375 215.421875 341.75 217.6875 341.75 220.46875 L 341.75 225.515625 C 341.75 228.285156 339.484375 230.5625 336.707031 230.5625 L 64.425781 230.5625 C 61.648438 230.5625 57.105469 230.5625 54.335938 230.5625 L 44.105469 230.5625 C 41.335938 230.5625 39.058594 228.285156 39.058594 225.515625 L 39.058594 220.46875 C 39.058594 217.6875 41.335938 215.421875 44.105469 215.421875 L 181.136719 215.421875 C 183.90625 215.421875 188.449219 215.421875 191.226562 215.421875 L 316.398438 215.421875 C 319.167969 215.421875 323.710938 215.421875 326.488281 215.421875 Z M 336.707031 215.421875 " fill-opacity="1" fill-rule="nonzero"/></g><g clip-path="url(#c37761237c)"><path fill="#656d78" d="M 331.671875 235.609375 L 331.671875 291.125 L 220.679688 291.125 L 220.679688 190.183594 C 220.679688 181.808594 227.441406 175.042969 235.816406 175.042969 L 235.816406 175.09375 L 255.996094 175.09375 L 255.996094 175.042969 L 286.265625 175.042969 L 286.265625 175.09375 L 316.535156 175.09375 L 316.535156 175.042969 C 324.910156 175.042969 331.671875 181.808594 331.671875 190.183594 Z M 331.671875 235.609375 " fill-opacity="1" fill-rule="nonzero"/></g><path fill="#f6bb42" d="M 205.546875 128.96875 C 196.875 117.613281 191.570312 115.59375 185.367188 116.902344 L 195.457031 96.40625 C 201.761719 103.117188 205.546875 112.15625 205.546875 122.046875 Z M 205.546875 128.96875 " fill-opacity="1" fill-rule="nonzero"/><g clip-path="url(#41244ebacc)"><path fill="#ffce54" d="M 195.457031 96.410156 L 185.367188 116.90625 C 175.886719 118.925781 164.230469 128.667969 134.914062 125.285156 C 133.300781 125.078125 131.636719 124.882812 129.871094 124.574219 L 129.871094 122.050781 C 129.871094 101.160156 146.828125 84.195312 167.707031 84.195312 C 178.707031 84.195312 188.597656 88.890625 195.457031 96.410156 Z M 195.457031 96.410156 " fill-opacity="1" fill-rule="nonzero"/></g><path fill="#eac6bb" d="M 205.546875 128.96875 L 205.546875 139.714844 C 205.546875 153.800781 197.328125 165.964844 185.367188 171.613281 C 180.773438 173.828125 175.679688 175.042969 170.230469 175.042969 C 164.78125 175.042969 159.6875 173.832031 155.09375 171.613281 C 143.144531 165.964844 134.914062 153.800781 134.914062 139.714844 L 134.914062 125.285156 C 164.230469 128.667969 175.886719 118.925781 185.367188 116.90625 C 191.574219 115.59375 196.875 117.613281 205.546875 128.96875 Z M 205.546875 128.96875 " fill-opacity="1" fill-rule="nonzero"/><path fill="#d3b1a9" d="M 195.445312 118.792969 L 195.445312 139.714844 C 195.445312 153.800781 187.226562 165.964844 175.265625 171.613281 C 172.132812 173.132812 168.742188 174.136719 165.1875 174.652344 C 166.832031 174.886719 168.503906 175.042969 170.230469 175.042969 C 175.679688 175.042969 180.773438 173.832031 185.367188 171.613281 C 197.328125 165.964844 205.546875 153.800781 205.546875 139.714844 L 205.546875 128.96875 C 201.617188 123.816406 198.390625 120.664062 195.445312 118.792969 Z M 195.445312 118.792969 " fill-opacity="1" fill-rule="nonzero"/><path fill="#f5f7fa" d="M 185.367188 185.136719 L 185.367188 185.1875 L 180.320312 190.183594 L 170.230469 185.136719 L 160.140625 190.183594 L 155.09375 185.1875 L 155.09375 171.613281 C 159.6875 173.828125 164.78125 175.042969 170.230469 175.042969 C 175.679688 175.042969 180.773438 173.832031 185.367188 171.613281 Z M 185.367188 185.136719 " fill-opacity="1" fill-rule="nonzero"/><path fill="#e6e9ed" d="M 180.320312 190.183594 L 185.367188 185.1875 L 195.457031 185.1875 L 195.457031 185.136719 C 203.832031 185.136719 210.589844 191.902344 210.589844 200.28125 L 210.589844 215.421875 L 129.871094 215.421875 L 129.871094 200.28125 C 129.871094 191.902344 136.632812 185.136719 145.003906 185.136719 L 145.003906 185.1875 L 155.09375 185.1875 L 160.140625 190.183594 L 170.230469 185.136719 Z M 180.320312 190.183594 " fill-opacity="1" fill-rule="nonzero"/><path fill="#ccd1d9" d="M 195.457031 185.136719 L 195.457031 185.1875 L 185.851562 185.1875 C 193.988281 185.457031 200.492188 192.066406 200.492188 200.28125 L 200.492188 215.421875 L 210.589844 215.421875 L 210.589844 200.28125 C 210.589844 191.902344 203.832031 185.136719 195.457031 185.136719 Z M 195.457031 185.136719 " fill-opacity="1" fill-rule="nonzero"/><g clip-path="url(#867c21e1c4)"><path fill="#965353" d="M 220.679688 250.75 L 220.679688 291.125 L 69.332031 291.125 L 69.332031 255.796875 C 72.101562 255.796875 74.375 253.570312 74.375 250.75 Z M 220.679688 250.75 " fill-opacity="1" fill-rule="nonzero"/></g><g clip-path="url(#61f78d3a75)"><path fill="#844747" d="M 220.679688 230.5625 L 220.679688 250.75 L 74.375 250.75 C 74.375 253.570312 72.101562 255.796875 69.332031 255.796875 L 69.332031 291.125 L 49.152344 291.125 L 49.152344 230.5625 Z M 220.679688 230.5625 " fill-opacity="1" fill-rule="nonzero"/></g><path fill="#545c66" d="M 306.445312 215.410156 L 245.90625 215.410156 C 243.117188 215.410156 240.859375 213.15625 240.859375 210.363281 C 240.859375 207.574219 243.117188 205.316406 245.90625 205.316406 L 306.445312 205.316406 C 309.234375 205.316406 311.492188 207.574219 311.492188 210.363281 C 311.492188 213.15625 309.234375 215.410156 306.445312 215.410156 Z M 306.445312 215.410156 " fill-opacity="1" fill-rule="nonzero"/><path fill="#545c66" d="M 306.445312 245.691406 L 245.90625 245.691406 C 243.117188 245.691406 240.859375 243.4375 240.859375 240.644531 C 240.859375 237.855469 243.117188 235.597656 245.90625 235.597656 L 306.445312 235.597656 C 309.234375 235.597656 311.492188 237.855469 311.492188 240.644531 C 311.492188 243.4375 309.234375 245.691406 306.445312 245.691406 Z M 306.445312 245.691406 " fill-opacity="1" fill-rule="nonzero"/><path fill="#545c66" d="M 306.445312 275.976562 L 245.90625 275.976562 C 243.117188 275.976562 240.859375 273.71875 240.859375 270.929688 C 240.859375 268.136719 243.117188 265.882812 245.90625 265.882812 L 306.445312 265.882812 C 309.234375 265.882812 311.492188 268.136719 311.492188 270.929688 C 311.492188 273.71875 309.234375 275.976562 306.445312 275.976562 Z M 306.445312 275.976562 " fill-opacity="1" fill-rule="nonzero"/><path fill="#ccd1d9" d="M 79.519531 215.523438 C 76.730469 215.523438 74.476562 213.265625 74.476562 210.476562 L 74.476562 129.726562 C 74.476562 126.9375 76.730469 124.679688 79.519531 124.679688 C 82.3125 124.679688 84.566406 126.9375 84.566406 129.726562 L 84.566406 210.476562 C 84.566406 213.261719 82.304688 215.523438 79.519531 215.523438 Z M 79.519531 215.523438 " fill-opacity="1" fill-rule="nonzero"/><path fill="#e6e9ed" d="M 104.726562 215.523438 L 54.304688 215.523438 C 51.515625 215.523438 49.261719 213.265625 49.261719 210.476562 C 49.261719 207.683594 51.515625 205.425781 54.304688 205.425781 L 104.726562 205.425781 C 107.515625 205.425781 109.769531 207.683594 109.769531 210.476562 C 109.769531 213.265625 107.515625 215.523438 104.726562 215.523438 Z M 104.726562 215.523438 " fill-opacity="1" fill-rule="nonzero"/><path fill="#ccd1d9" d="M 99.679688 175.144531 C 99.152344 175.144531 98.617188 175.054688 98.085938 174.878906 C 95.449219 174 94.015625 171.144531 94.894531 168.5 L 104.984375 138.226562 C 105.863281 135.585938 108.695312 134.152344 111.359375 135.03125 C 114 135.910156 115.433594 138.765625 114.554688 141.421875 L 104.464844 171.691406 C 103.757812 173.800781 101.789062 175.144531 99.679688 175.144531 Z M 99.679688 175.144531 " fill-opacity="1" fill-rule="nonzero"/><path fill="#ccd1d9" d="M 119.851562 175.144531 C 117.730469 175.144531 115.769531 173.800781 115.0625 171.691406 L 104.984375 141.421875 C 104.09375 138.769531 105.523438 135.910156 108.167969 135.03125 C 110.824219 134.152344 113.667969 135.582031 114.554688 138.226562 L 124.632812 168.5 C 125.523438 171.136719 124.09375 174 121.449219 174.878906 C 120.914062 175.054688 120.371094 175.144531 119.851562 175.144531 Z M 119.851562 175.144531 " fill-opacity="1" fill-rule="nonzero"/><path fill="#ccd1d9" d="M 39.171875 175.144531 C 38.648438 175.144531 38.105469 175.054688 37.578125 174.878906 C 34.9375 174 33.507812 171.144531 34.394531 168.5 L 44.472656 138.226562 C 45.363281 135.585938 48.1875 134.152344 50.859375 135.03125 C 53.5 135.910156 54.933594 138.765625 54.042969 141.421875 L 43.964844 171.691406 C 43.246094 173.800781 41.289062 175.144531 39.171875 175.144531 Z M 39.171875 175.144531 " fill-opacity="1" fill-rule="nonzero"/><path fill="#ccd1d9" d="M 59.339844 175.144531 C 57.234375 175.144531 55.261719 173.800781 54.5625 171.691406 L 44.472656 141.421875 C 43.597656 138.769531 45.023438 135.910156 47.667969 135.03125 C 50.324219 134.152344 53.167969 135.582031 54.042969 138.226562 L 64.132812 168.5 C 65.011719 171.136719 63.585938 174 60.941406 174.878906 C 60.40625 175.054688 59.871094 175.144531 59.339844 175.144531 Z M 59.339844 175.144531 " fill-opacity="1" fill-rule="nonzero"/><path fill="#656d78" d="M 64.386719 170.089844 C 64.386719 169.695312 64.25 169.351562 64.160156 168.972656 C 64.097656 168.695312 64.097656 168.390625 63.992188 168.125 C 63.875 167.847656 63.660156 167.628906 63.488281 167.386719 C 63.300781 167.089844 63.15625 166.765625 62.910156 166.519531 C 62.761719 166.382812 62.566406 166.304688 62.394531 166.175781 C 62.050781 165.910156 61.710938 165.617188 61.300781 165.445312 C 60.699219 165.1875 60.039062 165.050781 59.335938 165.050781 L 39.140625 165.050781 C 36.351562 165.050781 34.097656 167.316406 34.105469 170.109375 L 34.117188 170.109375 C 34.117188 170.160156 34.148438 170.210938 34.148438 170.253906 C 34.238281 178.535156 40.976562 185.238281 49.261719 185.238281 C 57.605469 185.238281 64.398438 178.445312 64.398438 170.097656 L 64.398438 170.089844 Z M 64.386719 170.089844 " fill-opacity="1" fill-rule="nonzero"/><path fill="#656d78" d="M 124.894531 170.089844 C 124.894531 167.296875 122.640625 165.050781 119.851562 165.050781 L 99.679688 165.050781 C 96.902344 165.050781 94.675781 167.277344 94.644531 170.046875 C 94.644531 170.066406 94.636719 170.078125 94.636719 170.097656 C 94.636719 178.445312 101.425781 185.238281 109.769531 185.238281 C 118.105469 185.238281 124.886719 178.457031 124.894531 170.128906 C 124.894531 170.109375 124.90625 170.097656 124.90625 170.089844 Z M 124.894531 170.089844 " fill-opacity="1" fill-rule="nonzero"/><path fill="#e6e9ed" d="M 109.761719 144.867188 L 49.261719 144.867188 C 46.472656 144.867188 44.214844 142.613281 44.214844 139.820312 C 44.214844 137.03125 46.472656 134.773438 49.261719 134.773438 L 109.761719 134.773438 C 112.550781 134.773438 114.804688 137.03125 114.804688 139.820312 C 114.804688 142.613281 112.550781 144.867188 109.761719 144.867188 Z M 109.761719 144.867188 " fill-opacity="1" fill-rule="nonzero"/><g fill="#000000" fill-opacity="1"><g transform="translate(185.382005, 289.364542)"><g><path d="M 2.109375 0.078125 C 1.804688 0.078125 1.566406 -0.00390625 1.390625 -0.171875 C 1.222656 -0.335938 1.140625 -0.5625 1.140625 -0.84375 C 1.140625 -1.113281 1.222656 -1.332031 1.390625 -1.5 C 1.566406 -1.675781 1.804688 -1.765625 2.109375 -1.765625 C 2.410156 -1.765625 2.644531 -1.679688 2.8125 -1.515625 C 2.988281 -1.347656 3.078125 -1.128906 3.078125 -0.859375 C 3.078125 -0.578125 2.988281 -0.347656 2.8125 -0.171875 C 2.632812 -0.00390625 2.398438 0.078125 2.109375 0.078125 Z M 2.109375 0.078125 "/></g></g></g></svg>