<svg xmlns="http://www.w3.org/2000/svg" xmlns:xlink="http://www.w3.org/1999/xlink" width="500" zoomAndPan="magnify" viewBox="0 0 375 374.999991" height="500" preserveAspectRatio="xMidYMid meet" version="1.0"><defs><g/><clipPath id="b8a99dda0c"><path d="M 60.855469 144 L 195 144 L 195 288 L 60.855469 288 Z M 60.855469 144 " clip-rule="nonzero"/></clipPath><clipPath id="08b2721fe9"><path d="M 114 70.355469 L 243 70.355469 L 243 213 L 114 213 Z M 114 70.355469 " clip-rule="nonzero"/></clipPath><clipPath id="93df9c4af5"><path d="M 187 137 L 314.355469 137 L 314.355469 280 L 187 280 Z M 187 137 " clip-rule="nonzero"/></clipPath><clipPath id="8fc6405959"><path d="M 215 295 L 218 295 L 218 304.355469 L 215 304.355469 Z M 215 295 " clip-rule="nonzero"/></clipPath></defs><g clip-path="url(#b8a99dda0c)"><path fill="#ffffff" d="M 60.863281 190.472656 L 128.359375 144.472656 L 194.566406 241.222656 L 127.070312 287.21875 Z M 60.863281 190.472656 " fill-opacity="1" fill-rule="nonzero"/></g><path fill="#000000" d="M 98.070312 229.625 L 98.328125 229.449219 L 100.292969 232.316406 L 100.03125 232.492188 Z M 98.070312 229.625 " fill-opacity="1" fill-rule="nonzero"/><path fill="#000000" d="M 109.554688 221.796875 L 109.8125 221.621094 L 111.773438 224.492188 L 111.511719 224.667969 Z M 109.554688 221.796875 " fill-opacity="1" fill-rule="nonzero"/><path fill="#000000" d="M 121.019531 213.976562 L 121.28125 213.800781 L 123.246094 216.664062 L 122.984375 216.839844 Z M 121.019531 213.976562 " fill-opacity="1" fill-rule="nonzero"/><path fill="#000000" d="M 132.5 206.164062 L 132.761719 205.988281 L 134.722656 208.851562 L 134.464844 209.03125 Z M 132.5 206.164062 " fill-opacity="1" fill-rule="nonzero"/><path fill="#000000" d="M 143.976562 198.324219 L 144.238281 198.148438 L 146.199219 201.019531 L 145.9375 201.195312 Z M 143.976562 198.324219 " fill-opacity="1" fill-rule="nonzero"/><path fill="#000000" d="M 155.457031 190.507812 L 155.714844 190.328125 L 157.679688 193.195312 L 157.417969 193.371094 Z M 155.457031 190.507812 " fill-opacity="1" fill-rule="nonzero"/><path fill="#231f20" d="M 69.949219 188.710938 L 70.363281 188.429688 L 101.691406 234.207031 L 101.277344 234.488281 Z M 69.949219 188.710938 " fill-opacity="1" fill-rule="nonzero"/><path fill="#231f20" d="M 96.429688 232.523438 L 156.898438 191.3125 L 157.183594 191.726562 L 96.710938 232.9375 Z M 96.429688 232.523438 " fill-opacity="1" fill-rule="nonzero"/><path fill="#231f20" d="M 93.277344 227.917969 L 153.746094 186.707031 L 153.914062 186.949219 L 93.441406 228.160156 Z M 93.277344 227.917969 " fill-opacity="1" fill-rule="nonzero"/><path fill="#231f20" d="M 90.066406 223.230469 L 150.535156 182.019531 L 150.703125 182.257812 L 90.230469 223.46875 Z M 90.066406 223.230469 " fill-opacity="1" fill-rule="nonzero"/><path fill="#231f20" d="M 86.855469 218.539062 L 147.328125 177.328125 L 147.492188 177.566406 L 87.019531 218.777344 Z M 86.855469 218.539062 " fill-opacity="1" fill-rule="nonzero"/><path fill="#231f20" d="M 83.644531 213.847656 L 144.117188 172.636719 L 144.28125 172.875 L 83.808594 214.085938 Z M 83.644531 213.847656 " fill-opacity="1" fill-rule="nonzero"/><path fill="#231f20" d="M 80.433594 209.15625 L 140.90625 167.945312 L 141.070312 168.183594 L 80.597656 209.398438 Z M 80.433594 209.15625 " fill-opacity="1" fill-rule="nonzero"/><path fill="#231f20" d="M 77.222656 204.464844 L 137.691406 163.253906 L 137.859375 163.496094 L 77.386719 204.707031 Z M 77.222656 204.464844 " fill-opacity="1" fill-rule="nonzero"/><path fill="#231f20" d="M 74.011719 199.773438 L 134.484375 158.5625 L 134.648438 158.804688 L 74.175781 200.015625 Z M 74.011719 199.773438 " fill-opacity="1" fill-rule="nonzero"/><path fill="#231f20" d="M 70.800781 195.082031 L 131.273438 153.871094 L 131.4375 154.113281 L 70.964844 195.324219 Z M 70.800781 195.082031 " fill-opacity="1" fill-rule="nonzero"/><path fill="#a1a1a1" d="M 104.011719 230.59375 L 110.242188 226.347656 L 111.191406 227.730469 L 104.960938 231.976562 Z M 104.011719 230.59375 " fill-opacity="1" fill-rule="nonzero"/><path fill="#a1a1a1" d="M 90.140625 229.21875 L 92.007812 227.945312 L 92.957031 229.332031 L 91.089844 230.605469 Z M 90.140625 229.21875 " fill-opacity="1" fill-rule="nonzero"/><path fill="#a1a1a1" d="M 86.933594 224.519531 L 88.796875 223.246094 L 89.746094 224.632812 L 87.878906 225.90625 Z M 86.933594 224.519531 " fill-opacity="1" fill-rule="nonzero"/><path fill="#a1a1a1" d="M 83.714844 219.835938 L 85.578125 218.5625 L 86.527344 219.949219 L 84.664062 221.222656 Z M 83.714844 219.835938 " fill-opacity="1" fill-rule="nonzero"/><path fill="#a1a1a1" d="M 80.503906 215.144531 L 82.367188 213.871094 L 83.316406 215.257812 L 81.449219 216.53125 Z M 80.503906 215.144531 " fill-opacity="1" fill-rule="nonzero"/><path fill="#a1a1a1" d="M 77.292969 210.453125 L 79.160156 209.179688 L 80.105469 210.566406 L 78.242188 211.839844 Z M 77.292969 210.453125 " fill-opacity="1" fill-rule="nonzero"/><path fill="#a1a1a1" d="M 74.082031 205.761719 L 75.945312 204.488281 L 76.894531 205.875 L 75.03125 207.148438 Z M 74.082031 205.761719 " fill-opacity="1" fill-rule="nonzero"/><path fill="#a1a1a1" d="M 70.871094 201.066406 L 72.738281 199.796875 L 73.6875 201.183594 L 71.820312 202.453125 Z M 70.871094 201.066406 " fill-opacity="1" fill-rule="nonzero"/><path fill="#a1a1a1" d="M 67.667969 196.378906 L 69.53125 195.105469 L 70.480469 196.492188 L 68.617188 197.765625 Z M 67.667969 196.378906 " fill-opacity="1" fill-rule="nonzero"/><path fill="#a1a1a1" d="M 102.699219 243.960938 L 125.175781 228.640625 L 126.429688 230.476562 L 103.953125 245.792969 Z M 102.699219 243.960938 " fill-opacity="1" fill-rule="nonzero"/><path fill="#a1a1a1" d="M 105.777344 248.453125 L 128.25 233.132812 L 129.503906 234.964844 L 107.03125 250.285156 Z M 105.777344 248.453125 " fill-opacity="1" fill-rule="nonzero"/><path fill="#a1a1a1" d="M 108.851562 252.949219 L 131.324219 237.628906 L 132.578125 239.460938 L 110.105469 254.78125 Z M 108.851562 252.949219 " fill-opacity="1" fill-rule="nonzero"/><path fill="#a1a1a1" d="M 111.933594 257.449219 L 134.40625 242.132812 L 135.664062 243.964844 L 113.1875 259.28125 Z M 111.933594 257.449219 " fill-opacity="1" fill-rule="nonzero"/><path fill="#a1a1a1" d="M 115.007812 261.941406 L 137.480469 246.621094 L 138.734375 248.453125 L 116.257812 263.773438 Z M 115.007812 261.941406 " fill-opacity="1" fill-rule="nonzero"/><path fill="#a1a1a1" d="M 118.089844 266.441406 L 140.5625 251.125 L 141.816406 252.957031 L 119.34375 268.273438 Z M 118.089844 266.441406 " fill-opacity="1" fill-rule="nonzero"/><path fill="#a1a1a1" d="M 121.164062 270.941406 L 143.640625 255.625 L 144.894531 257.457031 L 122.417969 272.773438 Z M 121.164062 270.941406 " fill-opacity="1" fill-rule="nonzero"/><path fill="#a1a1a1" d="M 124.246094 275.4375 L 146.71875 260.117188 L 147.972656 261.953125 L 125.5 277.269531 Z M 124.246094 275.4375 " fill-opacity="1" fill-rule="nonzero"/><path fill="#a1a1a1" d="M 127.320312 279.933594 L 149.796875 264.617188 L 151.050781 266.449219 L 128.574219 281.765625 Z M 127.320312 279.933594 " fill-opacity="1" fill-rule="nonzero"/><path fill="#a1a1a1" d="M 128.167969 226.59375 L 145.964844 214.464844 L 147.21875 216.296875 L 129.425781 228.425781 Z M 128.167969 226.59375 " fill-opacity="1" fill-rule="nonzero"/><path fill="#a1a1a1" d="M 144.289062 222.207031 L 167.820312 206.171875 L 169.074219 208.003906 L 145.542969 224.039062 Z M 144.289062 222.207031 " fill-opacity="1" fill-rule="nonzero"/><path fill="#a1a1a1" d="M 134.328125 235.589844 L 170.898438 210.667969 L 172.148438 212.5 L 135.582031 237.421875 Z M 134.328125 235.589844 " fill-opacity="1" fill-rule="nonzero"/><path fill="#a1a1a1" d="M 137.40625 240.085938 L 165.339844 221.050781 L 166.59375 222.882812 L 138.660156 241.917969 Z M 137.40625 240.085938 " fill-opacity="1" fill-rule="nonzero"/><path fill="#a1a1a1" d="M 145.628906 241.078125 L 169.792969 224.609375 L 171.050781 226.441406 L 146.882812 242.910156 Z M 145.628906 241.078125 " fill-opacity="1" fill-rule="nonzero"/><path fill="#a1a1a1" d="M 143.5625 249.078125 L 175.609375 227.238281 L 176.863281 229.070312 L 144.816406 250.914062 Z M 143.5625 249.078125 " fill-opacity="1" fill-rule="nonzero"/><path fill="#a1a1a1" d="M 147.648438 252.890625 L 183.207031 228.652344 L 184.460938 230.484375 L 148.898438 254.71875 Z M 147.648438 252.890625 " fill-opacity="1" fill-rule="nonzero"/><path fill="#a1a1a1" d="M 149.71875 258.074219 L 186.285156 233.152344 L 187.539062 234.984375 L 150.972656 259.90625 Z M 149.71875 258.074219 " fill-opacity="1" fill-rule="nonzero"/><path fill="#a1a1a1" d="M 155.03125 261.046875 L 187.125 239.171875 L 188.378906 241.007812 L 156.285156 262.878906 Z M 155.03125 261.046875 " fill-opacity="1" fill-rule="nonzero"/><path fill="#231f20" d="M 85.480469 197.5625 L 86.15625 197.101562 L 103.804688 222.890625 L 103.128906 223.351562 Z M 85.480469 197.5625 " fill-opacity="1" fill-rule="nonzero"/><path fill="#a1a1a1" d="M 114.773438 223.257812 L 121.003906 219.011719 L 121.953125 220.398438 L 115.722656 224.644531 Z M 114.773438 223.257812 " fill-opacity="1" fill-rule="nonzero"/><path fill="#231f20" d="M 95.5 189.144531 L 96.175781 188.683594 L 112.304688 212.25 L 111.628906 212.710938 Z M 95.5 189.144531 " fill-opacity="1" fill-rule="nonzero"/><path fill="#a1a1a1" d="M 125.996094 215.609375 L 132.226562 211.363281 L 133.175781 212.75 L 126.945312 216.996094 Z M 125.996094 215.609375 " fill-opacity="1" fill-rule="nonzero"/><path fill="#231f20" d="M 105.785156 180.121094 L 106.460938 179.660156 L 122.585938 203.226562 L 121.914062 203.6875 Z M 105.785156 180.121094 " fill-opacity="1" fill-rule="nonzero"/><path fill="#a1a1a1" d="M 137.535156 207.742188 L 143.765625 203.496094 L 144.714844 204.882812 L 138.484375 209.128906 Z M 137.535156 207.742188 " fill-opacity="1" fill-rule="nonzero"/><path fill="#231f20" d="M 120.941406 177.542969 L 121.617188 177.082031 L 137.742188 200.652344 L 137.070312 201.113281 Z M 120.941406 177.542969 " fill-opacity="1" fill-rule="nonzero"/><path fill="#a1a1a1" d="M 149.125 199.828125 L 155.355469 195.578125 L 156.304688 196.964844 L 150.074219 201.210938 Z M 149.125 199.828125 " fill-opacity="1" fill-rule="nonzero"/><path fill="#231f20" d="M 132.109375 169.035156 L 132.785156 168.574219 L 148.914062 192.140625 L 148.238281 192.597656 Z M 132.109375 169.035156 " fill-opacity="1" fill-rule="nonzero"/><path fill="#00e950" d="M 90.507812 206.953125 L 93.09375 205.1875 L 101.585938 217.597656 L 99 219.359375 Z M 90.507812 206.953125 " fill-opacity="1" fill-rule="nonzero"/><path fill="#00e950" d="M 98.160156 195.078125 L 100.746094 193.316406 L 107.15625 202.683594 L 104.570312 204.445312 Z M 98.160156 195.078125 " fill-opacity="1" fill-rule="nonzero"/><path fill="#00e950" d="M 106.511719 183.222656 L 109.097656 181.460938 L 115.046875 190.148438 L 112.457031 191.910156 Z M 106.511719 183.222656 " fill-opacity="1" fill-rule="nonzero"/><path fill="#00e950" d="M 124.125 184.253906 L 126.710938 182.488281 L 131.996094 190.214844 L 129.410156 191.976562 Z M 124.125 184.253906 " fill-opacity="1" fill-rule="nonzero"/><path fill="#00e950" d="M 138.457031 180.359375 L 141.042969 178.597656 L 149.535156 191.003906 L 146.949219 192.769531 Z M 138.457031 180.359375 " fill-opacity="1" fill-rule="nonzero"/><g clip-path="url(#08b2721fe9)"><path fill="#ffffff" d="M 114.390625 109.402344 L 186.175781 70.40625 L 242.304688 173.304688 L 170.519531 212.300781 Z M 114.390625 109.402344 " fill-opacity="1" fill-rule="nonzero"/></g><path fill="#a1a1a1" d="M 145.757812 160.710938 L 169.660156 147.726562 L 170.726562 149.675781 L 146.820312 162.660156 Z M 145.757812 160.710938 " fill-opacity="1" fill-rule="nonzero"/><path fill="#a1a1a1" d="M 148.367188 165.492188 L 172.273438 152.507812 L 173.335938 154.457031 L 149.433594 167.441406 Z M 148.367188 165.492188 " fill-opacity="1" fill-rule="nonzero"/><path fill="#a1a1a1" d="M 150.976562 170.273438 L 174.878906 157.289062 L 175.945312 159.238281 L 152.039062 172.222656 Z M 150.976562 170.273438 " fill-opacity="1" fill-rule="nonzero"/><path fill="#a1a1a1" d="M 153.585938 175.058594 L 177.488281 162.074219 L 178.554688 164.023438 L 154.648438 177.007812 Z M 153.585938 175.058594 " fill-opacity="1" fill-rule="nonzero"/><path fill="#a1a1a1" d="M 156.191406 179.839844 L 180.097656 166.855469 L 181.160156 168.804688 L 157.257812 181.792969 Z M 156.191406 179.839844 " fill-opacity="1" fill-rule="nonzero"/><path fill="#a1a1a1" d="M 158.804688 184.625 L 182.707031 171.636719 L 183.773438 173.585938 L 159.867188 186.574219 Z M 158.804688 184.625 " fill-opacity="1" fill-rule="nonzero"/><path fill="#a1a1a1" d="M 161.410156 189.40625 L 185.316406 176.421875 L 186.378906 178.371094 L 162.476562 191.355469 Z M 161.410156 189.40625 " fill-opacity="1" fill-rule="nonzero"/><path fill="#a1a1a1" d="M 164.019531 194.1875 L 187.925781 181.203125 L 188.988281 183.148438 L 165.082031 196.136719 Z M 164.019531 194.1875 " fill-opacity="1" fill-rule="nonzero"/><path fill="#a1a1a1" d="M 166.628906 198.972656 L 190.53125 185.988281 L 191.597656 187.9375 L 167.691406 200.921875 Z M 166.628906 198.972656 " fill-opacity="1" fill-rule="nonzero"/><path fill="#a1a1a1" d="M 172.851562 145.992188 L 191.78125 135.710938 L 192.84375 137.660156 L 173.917969 147.941406 Z M 172.851562 145.992188 " fill-opacity="1" fill-rule="nonzero"/><path fill="#a1a1a1" d="M 189.328125 143.242188 L 214.355469 129.648438 L 215.421875 131.597656 L 190.390625 145.191406 Z M 189.328125 143.242188 " fill-opacity="1" fill-rule="nonzero"/><path fill="#a1a1a1" d="M 178.070312 155.558594 L 216.960938 134.429688 L 218.027344 136.378906 L 179.132812 157.507812 Z M 178.070312 155.558594 " fill-opacity="1" fill-rule="nonzero"/><path fill="#a1a1a1" d="M 180.679688 160.339844 L 210.386719 144.203125 L 211.449219 146.152344 L 181.742188 162.289062 Z M 180.679688 160.339844 " fill-opacity="1" fill-rule="nonzero"/><path fill="#a1a1a1" d="M 188.757812 162.152344 L 214.460938 148.191406 L 215.523438 150.140625 L 189.820312 164.101562 Z M 188.757812 162.152344 " fill-opacity="1" fill-rule="nonzero"/><path fill="#a1a1a1" d="M 185.898438 169.90625 L 219.984375 151.390625 L 221.046875 153.339844 L 186.960938 171.855469 Z M 185.898438 169.90625 " fill-opacity="1" fill-rule="nonzero"/><path fill="#a1a1a1" d="M 189.578125 174.105469 L 227.398438 153.558594 L 228.460938 155.507812 L 190.640625 176.054688 Z M 189.578125 174.105469 " fill-opacity="1" fill-rule="nonzero"/><path fill="#a1a1a1" d="M 191.113281 179.472656 L 230.007812 158.34375 L 231.070312 160.292969 L 192.175781 181.417969 Z M 191.113281 179.472656 " fill-opacity="1" fill-rule="nonzero"/><path fill="#a1a1a1" d="M 196.101562 182.960938 L 230.234375 164.417969 L 231.296875 166.367188 L 197.164062 184.910156 Z M 196.101562 182.960938 " fill-opacity="1" fill-rule="nonzero"/><path fill="#000000" d="M 153.890625 107.296875 L 163.097656 98.640625 L 163.519531 99.085938 L 154.308594 107.742188 Z M 153.890625 107.296875 " fill-opacity="1" fill-rule="nonzero"/><path fill="#000000" d="M 165.378906 131.035156 L 179.207031 127.253906 L 179.371094 127.847656 L 165.539062 131.625 Z M 165.378906 131.035156 " fill-opacity="1" fill-rule="nonzero"/><path fill="#000000" d="M 162.0625 112.074219 C 162.449219 112.460938 162.820312 112.867188 163.167969 113.289062 C 163.515625 113.714844 163.84375 114.152344 164.148438 114.609375 C 164.453125 115.0625 164.734375 115.53125 164.992188 116.015625 C 165.25 116.5 165.484375 116.992188 165.695312 117.5 C 165.90625 118.003906 166.089844 118.519531 166.25 119.042969 C 166.410156 119.570312 166.542969 120.101562 166.648438 120.636719 C 166.757812 121.175781 166.835938 121.714844 166.890625 122.261719 C 166.945312 122.804688 166.972656 123.351562 166.972656 123.898438 C 166.972656 124.445312 166.945312 124.992188 166.890625 125.539062 C 166.835938 126.082031 166.757812 126.625 166.648438 127.160156 C 166.542969 127.699219 166.410156 128.230469 166.25 128.753906 C 166.089844 129.277344 165.90625 129.792969 165.695312 130.300781 C 165.484375 130.804688 165.25 131.300781 164.992188 131.78125 C 164.734375 132.265625 164.453125 132.734375 164.148438 133.191406 C 163.84375 133.644531 163.515625 134.085938 163.167969 134.507812 C 162.820312 134.933594 162.453125 135.335938 162.0625 135.726562 C 161.675781 136.113281 161.269531 136.480469 160.84375 136.828125 C 160.421875 137.175781 159.980469 137.5 159.523438 137.804688 C 159.066406 138.109375 158.597656 138.390625 158.113281 138.648438 C 157.628906 138.90625 157.132812 139.140625 156.625 139.351562 C 156.121094 139.558594 155.601562 139.742188 155.078125 139.902344 C 154.554688 140.0625 154.019531 140.195312 153.484375 140.300781 C 152.945312 140.410156 152.402344 140.488281 151.855469 140.542969 C 151.308594 140.597656 150.761719 140.625 150.214844 140.625 C 149.664062 140.625 149.117188 140.597656 148.570312 140.542969 C 148.023438 140.488281 147.480469 140.410156 146.945312 140.300781 C 146.40625 140.195312 145.875 140.0625 145.347656 139.902344 C 144.824219 139.746094 144.308594 139.558594 143.800781 139.351562 C 143.292969 139.140625 142.796875 138.90625 142.3125 138.648438 C 141.828125 138.390625 141.359375 138.109375 140.902344 137.804688 C 140.445312 137.5 140.007812 137.175781 139.582031 136.828125 C 139.15625 136.480469 138.75 136.113281 138.363281 135.726562 C 137.976562 135.339844 137.605469 134.933594 137.257812 134.507812 C 136.910156 134.085938 136.585938 133.644531 136.277344 133.191406 C 135.972656 132.734375 135.691406 132.265625 135.433594 131.785156 C 135.175781 131.300781 134.941406 130.804688 134.730469 130.300781 C 134.519531 129.792969 134.335938 129.277344 134.175781 128.753906 C 134.015625 128.230469 133.882812 127.699219 133.777344 127.164062 C 133.667969 126.625 133.589844 126.085938 133.535156 125.539062 C 133.480469 124.992188 133.453125 124.449219 133.453125 123.898438 C 133.453125 123.351562 133.480469 122.804688 133.535156 122.261719 C 133.589844 121.714844 133.667969 121.175781 133.777344 120.636719 C 133.882812 120.101562 134.015625 119.570312 134.175781 119.046875 C 134.335938 118.519531 134.519531 118.007812 134.730469 117.5 C 134.941406 116.996094 135.175781 116.5 135.433594 116.015625 C 135.691406 115.535156 135.972656 115.0625 136.277344 114.609375 C 136.582031 114.152344 136.910156 113.714844 137.257812 113.289062 C 137.605469 112.867188 137.976562 112.460938 138.363281 112.074219 C 138.75 111.6875 139.15625 111.320312 139.582031 110.972656 C 140.003906 110.625 140.445312 110.300781 140.902344 109.996094 C 141.359375 109.691406 141.828125 109.410156 142.3125 109.152344 C 142.796875 108.894531 143.292969 108.660156 143.800781 108.449219 C 144.308594 108.238281 144.824219 108.054688 145.347656 107.894531 C 145.875 107.738281 146.40625 107.605469 146.945312 107.496094 C 147.480469 107.390625 148.023438 107.308594 148.570312 107.257812 C 149.117188 107.203125 149.664062 107.175781 150.210938 107.175781 C 150.761719 107.175781 151.308594 107.203125 151.855469 107.257812 C 152.402344 107.308594 152.945312 107.390625 153.480469 107.496094 C 154.019531 107.605469 154.550781 107.738281 155.078125 107.894531 C 155.601562 108.054688 156.117188 108.238281 156.625 108.449219 C 157.132812 108.660156 157.628906 108.894531 158.113281 109.152344 C 158.597656 109.410156 159.066406 109.691406 159.523438 109.996094 C 159.980469 110.296875 160.417969 110.625 160.84375 110.972656 C 161.269531 111.320312 161.675781 111.6875 162.0625 112.074219 Z M 162.0625 112.074219 " fill-opacity="1" fill-rule="nonzero"/><path fill="#ff5548" d="M 161.84375 111.851562 C 159.636719 109.730469 156.914062 108.285156 154.003906 107.609375 L 150.214844 123.898438 Z M 161.84375 111.851562 " fill-opacity="1" fill-rule="nonzero"/><path fill="#3349ff" d="M 161.828125 111.835938 L 150.214844 123.898438 L 165.207031 131.375 C 167.566406 126.648438 167.652344 120.890625 164.933594 115.902344 C 164.089844 114.355469 163.035156 112.996094 161.828125 111.835938 Z M 161.828125 111.835938 " fill-opacity="1" fill-rule="nonzero"/><path fill="#fffb6c" d="M 163.234375 98.824219 L 173.585938 93.203125 L 189.339844 122.082031 L 178.988281 127.703125 Z M 163.234375 98.824219 " fill-opacity="1" fill-rule="nonzero"/><path fill="#fff80a" d="M 174.726562 119.894531 L 185.078125 114.269531 L 189.339844 122.082031 L 178.988281 127.703125 Z M 174.726562 119.894531 " fill-opacity="1" fill-rule="nonzero"/><path fill="#fffece" d="M 163.234375 98.824219 L 173.585938 93.199219 L 178.984375 103.101562 L 168.632812 108.722656 Z M 163.234375 98.824219 " fill-opacity="1" fill-rule="nonzero"/><path fill="#fffece" d="M 182.519531 97.753906 L 184.355469 96.757812 L 185.355469 98.589844 L 183.519531 99.585938 Z M 182.519531 97.753906 " fill-opacity="1" fill-rule="nonzero"/><path fill="#fffb6c" d="M 185.9375 104.023438 L 187.773438 103.027344 L 188.773438 104.859375 L 186.9375 105.859375 Z M 185.9375 104.023438 " fill-opacity="1" fill-rule="nonzero"/><path fill="#fff80a" d="M 189.355469 110.285156 L 191.191406 109.285156 L 192.191406 111.117188 L 190.355469 112.117188 Z M 189.355469 110.285156 " fill-opacity="1" fill-rule="nonzero"/><path fill="#000000" d="M 143.035156 153.265625 L 120.960938 112.796875 L 185.472656 77.753906 L 207.546875 118.21875 Z M 121.792969 113.042969 L 143.28125 152.433594 L 206.714844 117.972656 L 185.226562 78.582031 Z M 121.792969 113.042969 " fill-opacity="1" fill-rule="nonzero"/><path fill="#bbbbbb" d="M 143.5625 102.347656 L 162.988281 91.792969 L 163.632812 92.972656 L 144.207031 103.527344 Z M 143.5625 102.347656 " fill-opacity="1" fill-rule="nonzero"/><path fill="#bbbbbb" d="M 187.433594 95.695312 L 191.328125 93.578125 L 191.816406 94.472656 L 187.921875 96.589844 Z M 187.433594 95.695312 " fill-opacity="1" fill-rule="nonzero"/><path fill="#bbbbbb" d="M 190.851562 101.960938 L 194.746094 99.84375 L 195.230469 100.738281 L 191.339844 102.851562 Z M 190.851562 101.960938 " fill-opacity="1" fill-rule="nonzero"/><path fill="#bbbbbb" d="M 194.269531 108.226562 L 198.164062 106.109375 L 198.648438 107.003906 L 194.753906 109.117188 Z M 194.269531 108.226562 " fill-opacity="1" fill-rule="nonzero"/><g clip-path="url(#93df9c4af5)"><path fill="#ffffff" d="M 187.199219 240.953125 L 242.132812 137.410156 L 314.363281 175.574219 L 259.433594 279.113281 Z M 187.199219 240.953125 " fill-opacity="1" fill-rule="nonzero"/></g><path fill="#a1a1a1" d="M 215.570312 193.816406 L 216.609375 191.855469 L 240.664062 204.5625 L 239.621094 206.527344 Z M 215.570312 193.816406 " fill-opacity="1" fill-rule="nonzero"/><path fill="#a1a1a1" d="M 213.015625 198.632812 L 214.058594 196.671875 L 238.109375 209.378906 L 237.070312 211.339844 Z M 213.015625 198.632812 " fill-opacity="1" fill-rule="nonzero"/><path fill="#a1a1a1" d="M 210.460938 203.441406 L 211.503906 201.476562 L 235.554688 214.1875 L 234.515625 216.148438 Z M 210.460938 203.441406 " fill-opacity="1" fill-rule="nonzero"/><path fill="#a1a1a1" d="M 207.910156 208.257812 L 208.949219 206.296875 L 233.003906 219.003906 L 231.964844 220.964844 Z M 207.910156 208.257812 " fill-opacity="1" fill-rule="nonzero"/><path fill="#a1a1a1" d="M 205.355469 213.070312 L 206.398438 211.109375 L 230.449219 223.816406 L 229.410156 225.777344 Z M 205.355469 213.070312 " fill-opacity="1" fill-rule="nonzero"/><path fill="#a1a1a1" d="M 202.804688 217.882812 L 203.84375 215.921875 L 227.898438 228.628906 L 226.855469 230.589844 Z M 202.804688 217.882812 " fill-opacity="1" fill-rule="nonzero"/><path fill="#a1a1a1" d="M 200.25 222.691406 L 201.289062 220.730469 L 225.34375 233.4375 L 224.304688 235.398438 Z M 200.25 222.691406 " fill-opacity="1" fill-rule="nonzero"/><path fill="#a1a1a1" d="M 197.695312 227.503906 L 198.738281 225.542969 L 222.792969 238.25 L 221.75 240.210938 Z M 197.695312 227.503906 " fill-opacity="1" fill-rule="nonzero"/><path fill="#a1a1a1" d="M 195.144531 232.316406 L 196.183594 230.355469 L 220.238281 243.0625 L 219.199219 245.023438 Z M 195.144531 232.316406 " fill-opacity="1" fill-rule="nonzero"/><path fill="#a1a1a1" d="M 242.828125 208.214844 L 243.867188 206.253906 L 262.914062 216.316406 L 261.875 218.277344 Z M 242.828125 208.214844 " fill-opacity="1" fill-rule="nonzero"/><path fill="#a1a1a1" d="M 254.230469 220.402344 L 255.269531 218.441406 L 280.457031 231.746094 L 279.414062 233.707031 Z M 254.230469 220.402344 " fill-opacity="1" fill-rule="nonzero"/><path fill="#a1a1a1" d="M 237.726562 217.847656 L 238.765625 215.882812 L 277.902344 236.5625 L 276.863281 238.523438 Z M 237.726562 217.847656 " fill-opacity="1" fill-rule="nonzero"/><path fill="#a1a1a1" d="M 235.171875 222.65625 L 236.210938 220.695312 L 266.105469 236.488281 L 265.066406 238.449219 Z M 235.171875 222.65625 " fill-opacity="1" fill-rule="nonzero"/><path fill="#a1a1a1" d="M 238.125 230.378906 L 239.164062 228.417969 L 265.027344 242.082031 L 263.988281 244.042969 Z M 238.125 230.378906 " fill-opacity="1" fill-rule="nonzero"/><path fill="#a1a1a1" d="M 230.066406 232.285156 L 231.105469 230.320312 L 265.40625 248.445312 L 264.367188 250.40625 Z M 230.066406 232.285156 " fill-opacity="1" fill-rule="nonzero"/><path fill="#a1a1a1" d="M 228.589844 237.664062 L 229.632812 235.703125 L 267.691406 255.808594 L 266.648438 257.769531 Z M 228.589844 237.664062 " fill-opacity="1" fill-rule="nonzero"/><path fill="#a1a1a1" d="M 224.957031 241.90625 L 226 239.945312 L 265.136719 260.621094 L 264.09375 262.582031 Z M 224.957031 241.90625 " fill-opacity="1" fill-rule="nonzero"/><path fill="#000000" d="M 228.074219 182.457031 L 228.128906 182.355469 L 288.808594 214.417969 L 288.757812 214.519531 Z M 228.074219 182.457031 " fill-opacity="1" fill-rule="nonzero"/><path fill="#000000" d="M 229.980469 178.863281 L 230.035156 178.761719 L 290.71875 210.820312 L 290.664062 210.921875 Z M 229.980469 178.863281 " fill-opacity="1" fill-rule="nonzero"/><path fill="#000000" d="M 231.890625 175.265625 L 231.945312 175.164062 L 292.625 207.222656 L 292.574219 207.324219 Z M 231.890625 175.265625 " fill-opacity="1" fill-rule="nonzero"/><path fill="#000000" d="M 294.476562 203.730469 L 233.792969 171.671875 L 233.847656 171.570312 L 294.53125 203.628906 Z M 294.476562 203.730469 " fill-opacity="1" fill-rule="nonzero"/><path fill="#000000" d="M 235.707031 168.074219 L 235.757812 167.972656 L 296.441406 200.03125 L 296.386719 200.132812 Z M 235.707031 168.074219 " fill-opacity="1" fill-rule="nonzero"/><path fill="#000000" d="M 237.613281 164.476562 L 237.667969 164.375 L 298.351562 196.433594 L 298.296875 196.535156 Z M 237.613281 164.476562 " fill-opacity="1" fill-rule="nonzero"/><path fill="#000000" d="M 239.523438 160.878906 L 239.574219 160.777344 L 300.257812 192.839844 L 300.203125 192.941406 Z M 239.523438 160.878906 " fill-opacity="1" fill-rule="nonzero"/><path fill="#000000" d="M 241.429688 157.28125 L 241.484375 157.179688 L 302.164062 189.242188 L 302.113281 189.339844 Z M 241.429688 157.28125 " fill-opacity="1" fill-rule="nonzero"/><path fill="#000000" d="M 243.339844 153.6875 L 243.390625 153.585938 L 304.074219 185.644531 L 304.019531 185.746094 Z M 243.339844 153.6875 " fill-opacity="1" fill-rule="nonzero"/><path fill="#000000" d="M 245.246094 150.089844 L 245.300781 149.988281 L 305.980469 182.050781 L 305.929688 182.152344 Z M 245.246094 150.089844 " fill-opacity="1" fill-rule="nonzero"/><path fill="#000000" d="M 226.449219 185.339844 L 246.875 146.917969 L 246.976562 146.972656 L 226.550781 185.390625 Z M 226.449219 185.339844 " fill-opacity="1" fill-rule="nonzero"/><path fill="#000000" d="M 231.304688 187.917969 L 251.707031 149.484375 L 251.808594 149.535156 L 231.40625 187.972656 Z M 231.304688 187.917969 " fill-opacity="1" fill-rule="nonzero"/><path fill="#000000" d="M 236.234375 190.519531 L 236.136719 190.46875 L 256.527344 152.027344 L 256.628906 152.082031 Z M 236.234375 190.519531 " fill-opacity="1" fill-rule="nonzero"/><path fill="#000000" d="M 240.957031 193.023438 L 261.363281 154.589844 L 261.464844 154.644531 L 241.058594 193.078125 Z M 240.957031 193.023438 " fill-opacity="1" fill-rule="nonzero"/><path fill="#000000" d="M 245.863281 195.609375 L 266.136719 157.109375 L 266.238281 157.164062 L 245.964844 195.664062 Z M 245.863281 195.609375 " fill-opacity="1" fill-rule="nonzero"/><path fill="#000000" d="M 250.664062 198.15625 L 271.007812 159.691406 L 271.105469 159.742188 L 250.765625 198.210938 Z M 250.664062 198.15625 " fill-opacity="1" fill-rule="nonzero"/><path fill="#000000" d="M 255.449219 200.683594 L 275.875 162.261719 L 275.976562 162.316406 L 255.550781 200.734375 Z M 255.449219 200.683594 " fill-opacity="1" fill-rule="nonzero"/><path fill="#000000" d="M 260.402344 203.289062 L 260.300781 203.234375 L 280.695312 164.792969 L 280.792969 164.847656 Z M 260.402344 203.289062 " fill-opacity="1" fill-rule="nonzero"/><path fill="#000000" d="M 265.117188 205.792969 L 285.546875 167.371094 L 285.648438 167.425781 L 265.21875 205.847656 Z M 265.117188 205.792969 " fill-opacity="1" fill-rule="nonzero"/><path fill="#000000" d="M 269.953125 208.347656 L 290.378906 169.925781 L 290.480469 169.980469 L 270.050781 208.402344 Z M 269.953125 208.347656 " fill-opacity="1" fill-rule="nonzero"/><path fill="#000000" d="M 274.785156 210.878906 L 295.21875 172.464844 L 295.320312 172.515625 L 274.882812 210.933594 Z M 274.785156 210.878906 " fill-opacity="1" fill-rule="nonzero"/><path fill="#000000" d="M 279.679688 213.480469 L 299.984375 174.996094 L 300.085938 175.050781 L 279.78125 213.535156 Z M 279.679688 213.480469 " fill-opacity="1" fill-rule="nonzero"/><path fill="#000000" d="M 287.121094 217.597656 L 226.285156 185.457031 L 246.757812 146.867188 L 247.0625 147.027344 L 226.75 185.316406 L 287.28125 217.296875 Z M 287.121094 217.597656 " fill-opacity="1" fill-rule="nonzero"/><path fill="#000000" d="M 284.5 216.03125 L 304.839844 177.566406 L 304.941406 177.621094 L 284.601562 216.085938 Z M 284.5 216.03125 " fill-opacity="1" fill-rule="nonzero"/><path fill="#da1f20" d="M 226.539062 185.671875 L 226.5 185.101562 L 232.851562 184.683594 L 241.710938 179.929688 L 244.609375 186.03125 L 254.980469 177.941406 L 266.632812 179.460938 L 280.027344 177.390625 L 288.734375 172.71875 L 304.988281 177.316406 L 304.835938 177.863281 L 288.804688 173.328125 L 280.210938 177.9375 L 266.640625 180.035156 L 255.144531 178.535156 L 244.402344 186.917969 L 241.453125 180.714844 L 233.011719 185.242188 Z M 226.539062 185.671875 " fill-opacity="1" fill-rule="nonzero"/><path fill="#ffffff" d="M 233.425781 185.222656 C 233.28125 185.496094 232.945312 185.601562 232.671875 185.457031 C 232.398438 185.3125 232.292969 184.976562 232.4375 184.703125 C 232.582031 184.429688 232.917969 184.324219 233.191406 184.46875 C 233.464844 184.613281 233.570312 184.949219 233.425781 185.222656 Z M 233.425781 185.222656 " fill-opacity="1" fill-rule="nonzero"/><path fill="#da1f20" d="M 232.640625 185.507812 C 232.339844 185.347656 232.226562 184.972656 232.386719 184.671875 C 232.546875 184.375 232.917969 184.257812 233.21875 184.417969 C 233.519531 184.578125 233.636719 184.949219 233.476562 185.25 C 233.316406 185.550781 232.941406 185.664062 232.640625 185.507812 Z M 233.167969 184.519531 C 232.921875 184.390625 232.617188 184.484375 232.488281 184.730469 C 232.359375 184.972656 232.453125 185.277344 232.695312 185.40625 C 232.941406 185.535156 233.246094 185.441406 233.375 185.199219 C 233.503906 184.953125 233.410156 184.648438 233.167969 184.519531 Z M 233.167969 184.519531 " fill-opacity="1" fill-rule="nonzero"/><path fill="#ffffff" d="M 227.09375 185.691406 C 226.949219 185.964844 226.609375 186.070312 226.335938 185.925781 C 226.066406 185.78125 225.960938 185.441406 226.105469 185.167969 C 226.25 184.894531 226.585938 184.792969 226.859375 184.9375 C 227.132812 185.082031 227.238281 185.417969 227.09375 185.691406 Z M 227.09375 185.691406 " fill-opacity="1" fill-rule="nonzero"/><path fill="#da1f20" d="M 226.3125 185.972656 C 226.011719 185.8125 225.894531 185.441406 226.054688 185.140625 C 226.214844 184.839844 226.589844 184.726562 226.890625 184.886719 C 227.191406 185.046875 227.304688 185.417969 227.144531 185.71875 C 226.984375 186.019531 226.609375 186.132812 226.3125 185.972656 Z M 226.832031 184.984375 C 226.589844 184.855469 226.285156 184.949219 226.15625 185.195312 C 226.027344 185.4375 226.117188 185.742188 226.363281 185.871094 C 226.609375 186 226.914062 185.90625 227.042969 185.664062 C 227.171875 185.421875 227.078125 185.117188 226.832031 184.984375 Z M 226.832031 184.984375 " fill-opacity="1" fill-rule="nonzero"/><path fill="#ffffff" d="M 242.074219 180.585938 C 241.929688 180.859375 241.59375 180.964844 241.320312 180.816406 C 241.046875 180.671875 240.941406 180.335938 241.085938 180.0625 C 241.230469 179.789062 241.570312 179.6875 241.84375 179.832031 C 242.113281 179.972656 242.21875 180.3125 242.074219 180.585938 Z M 242.074219 180.585938 " fill-opacity="1" fill-rule="nonzero"/><path fill="#da1f20" d="M 241.292969 180.867188 C 240.992188 180.707031 240.878906 180.335938 241.035156 180.035156 C 241.195312 179.734375 241.570312 179.621094 241.867188 179.78125 C 242.167969 179.9375 242.285156 180.3125 242.125 180.613281 C 241.96875 180.910156 241.59375 181.027344 241.292969 180.867188 Z M 241.816406 179.878906 C 241.570312 179.75 241.265625 179.84375 241.136719 180.085938 C 241.007812 180.332031 241.101562 180.636719 241.34375 180.765625 C 241.589844 180.894531 241.894531 180.800781 242.023438 180.558594 C 242.152344 180.3125 242.058594 180.011719 241.816406 179.878906 Z M 241.816406 179.878906 " fill-opacity="1" fill-rule="nonzero"/><path fill="#ffffff" d="M 245 186.734375 C 244.855469 187.007812 244.519531 187.113281 244.246094 186.964844 C 243.972656 186.820312 243.867188 186.484375 244.011719 186.210938 C 244.15625 185.9375 244.492188 185.835938 244.765625 185.980469 C 245.042969 186.125 245.144531 186.460938 245 186.734375 Z M 245 186.734375 " fill-opacity="1" fill-rule="nonzero"/><path fill="#da1f20" d="M 244.21875 187.015625 C 243.917969 186.859375 243.800781 186.484375 243.960938 186.183594 C 244.121094 185.886719 244.496094 185.769531 244.796875 185.929688 C 245.097656 186.089844 245.210938 186.460938 245.050781 186.761719 C 244.890625 187.058594 244.519531 187.175781 244.21875 187.015625 Z M 244.742188 186.03125 C 244.496094 185.902344 244.191406 185.992188 244.0625 186.238281 C 243.933594 186.484375 244.027344 186.785156 244.269531 186.914062 C 244.515625 187.042969 244.820312 186.949219 244.949219 186.707031 C 245.078125 186.460938 244.984375 186.160156 244.742188 186.03125 Z M 244.742188 186.03125 " fill-opacity="1" fill-rule="nonzero"/><path fill="#ffffff" d="M 255.558594 178.5 C 255.410156 178.773438 255.074219 178.875 254.800781 178.730469 C 254.527344 178.585938 254.425781 178.25 254.566406 177.976562 C 254.710938 177.707031 255.050781 177.597656 255.324219 177.742188 C 255.597656 177.890625 255.703125 178.226562 255.558594 178.5 Z M 255.558594 178.5 " fill-opacity="1" fill-rule="nonzero"/><path fill="#da1f20" d="M 254.773438 178.78125 C 254.472656 178.625 254.359375 178.25 254.519531 177.949219 C 254.679688 177.648438 255.050781 177.535156 255.351562 177.695312 C 255.652344 177.855469 255.765625 178.226562 255.609375 178.527344 C 255.449219 178.824219 255.074219 178.941406 254.773438 178.78125 Z M 255.296875 177.796875 C 255.050781 177.667969 254.746094 177.757812 254.617188 178.003906 C 254.488281 178.246094 254.582031 178.550781 254.828125 178.679688 C 255.074219 178.808594 255.375 178.71875 255.503906 178.472656 C 255.636719 178.226562 255.542969 177.921875 255.296875 177.796875 Z M 255.296875 177.796875 " fill-opacity="1" fill-rule="nonzero"/><path fill="#ffffff" d="M 267.132812 180.011719 C 266.984375 180.285156 266.648438 180.386719 266.375 180.242188 C 266.101562 180.097656 265.996094 179.761719 266.140625 179.488281 C 266.285156 179.214844 266.625 179.109375 266.898438 179.253906 C 267.171875 179.402344 267.277344 179.738281 267.132812 180.011719 Z M 267.132812 180.011719 " fill-opacity="1" fill-rule="nonzero"/><path fill="#da1f20" d="M 266.351562 180.292969 C 266.050781 180.132812 265.933594 179.757812 266.09375 179.460938 C 266.253906 179.160156 266.628906 179.046875 266.925781 179.203125 C 267.226562 179.363281 267.34375 179.734375 267.183594 180.035156 C 267.023438 180.335938 266.648438 180.449219 266.351562 180.292969 Z M 266.875 179.304688 C 266.628906 179.175781 266.324219 179.269531 266.195312 179.511719 C 266.066406 179.757812 266.15625 180.0625 266.402344 180.191406 C 266.648438 180.320312 266.953125 180.226562 267.082031 179.980469 C 267.210938 179.738281 267.117188 179.433594 266.875 179.304688 Z M 266.875 179.304688 " fill-opacity="1" fill-rule="nonzero"/><path fill="#ffffff" d="M 273.871094 178.96875 C 273.726562 179.242188 273.390625 179.34375 273.117188 179.199219 C 272.84375 179.054688 272.738281 178.71875 272.882812 178.445312 C 273.027344 178.171875 273.367188 178.066406 273.640625 178.214844 C 273.914062 178.355469 274.019531 178.695312 273.871094 178.96875 Z M 273.871094 178.96875 " fill-opacity="1" fill-rule="nonzero"/><path fill="#da1f20" d="M 273.089844 179.25 C 272.789062 179.089844 272.675781 178.71875 272.835938 178.417969 C 272.992188 178.117188 273.367188 178.003906 273.667969 178.160156 C 273.96875 178.320312 274.082031 178.691406 273.921875 178.992188 C 273.765625 179.292969 273.390625 179.410156 273.089844 179.25 Z M 273.613281 178.261719 C 273.367188 178.132812 273.0625 178.226562 272.933594 178.46875 C 272.804688 178.714844 272.898438 179.019531 273.144531 179.148438 C 273.386719 179.277344 273.691406 179.183594 273.820312 178.9375 C 273.953125 178.695312 273.859375 178.394531 273.613281 178.261719 Z M 273.613281 178.261719 " fill-opacity="1" fill-rule="nonzero"/><path fill="#ffffff" d="M 280.613281 177.921875 C 280.46875 178.195312 280.132812 178.300781 279.859375 178.15625 C 279.585938 178.011719 279.480469 177.675781 279.625 177.402344 C 279.769531 177.128906 280.109375 177.023438 280.382812 177.167969 C 280.65625 177.3125 280.757812 177.652344 280.613281 177.921875 Z M 280.613281 177.921875 " fill-opacity="1" fill-rule="nonzero"/><path fill="#da1f20" d="M 279.832031 178.207031 C 279.53125 178.046875 279.417969 177.675781 279.574219 177.375 C 279.734375 177.074219 280.109375 176.960938 280.410156 177.117188 C 280.710938 177.277344 280.824219 177.648438 280.664062 177.949219 C 280.507812 178.25 280.132812 178.367188 279.832031 178.207031 Z M 280.355469 177.21875 C 280.109375 177.089844 279.804688 177.183594 279.675781 177.429688 C 279.546875 177.671875 279.640625 177.976562 279.882812 178.105469 C 280.128906 178.234375 280.433594 178.140625 280.5625 177.898438 C 280.695312 177.652344 280.601562 177.347656 280.355469 177.21875 Z M 280.355469 177.21875 " fill-opacity="1" fill-rule="nonzero"/><path fill="#ffffff" d="M 289.261719 173.285156 C 289.117188 173.558594 288.78125 173.660156 288.507812 173.515625 C 288.234375 173.371094 288.132812 173.035156 288.273438 172.761719 C 288.417969 172.488281 288.757812 172.386719 289.03125 172.53125 C 289.304688 172.675781 289.410156 173.011719 289.261719 173.285156 Z M 289.261719 173.285156 " fill-opacity="1" fill-rule="nonzero"/><path fill="#da1f20" d="M 288.480469 173.566406 C 288.179688 173.40625 288.066406 173.035156 288.226562 172.734375 C 288.382812 172.433594 288.757812 172.320312 289.058594 172.480469 C 289.359375 172.636719 289.472656 173.011719 289.316406 173.3125 C 289.15625 173.609375 288.78125 173.726562 288.480469 173.566406 Z M 289.003906 172.582031 C 288.757812 172.453125 288.453125 172.542969 288.324219 172.789062 C 288.195312 173.035156 288.289062 173.335938 288.535156 173.464844 C 288.777344 173.59375 289.082031 173.503906 289.210938 173.257812 C 289.34375 173.011719 289.25 172.710938 289.003906 172.582031 Z M 289.003906 172.582031 " fill-opacity="1" fill-rule="nonzero"/><path fill="#0078b7" d="M 237.632812 187.769531 C 237.578125 187.738281 237.53125 187.695312 237.507812 187.636719 L 234.621094 181.574219 L 229.871094 179.0625 L 230.140625 178.558594 L 234.972656 181.113281 C 235.023438 181.140625 235.070312 181.1875 235.097656 181.246094 L 237.894531 187.125 L 246.242188 182.644531 L 258.679688 170.839844 C 258.765625 170.757812 258.890625 170.738281 259 170.789062 C 259.105469 170.839844 259.171875 170.945312 259.164062 171.066406 L 258.277344 184.335938 L 260.972656 190.285156 L 269.425781 185.652344 C 269.519531 185.601562 269.628906 185.605469 269.71875 185.660156 C 269.804688 185.714844 269.855469 185.816406 269.847656 185.921875 L 269 198.625 L 279.054688 190.785156 C 279.074219 190.765625 279.101562 190.75 279.128906 190.742188 L 294.519531 185.058594 C 294.660156 185.007812 294.816406 185.070312 294.878906 185.203125 L 297.804688 191.355469 L 297.289062 191.597656 L 294.476562 185.683594 L 279.371094 191.261719 L 268.851562 199.46875 C 268.761719 199.539062 268.640625 199.550781 268.542969 199.496094 C 268.441406 199.441406 268.382812 199.335938 268.390625 199.222656 L 269.246094 186.402344 L 260.976562 190.933594 C 260.910156 190.972656 260.824219 190.976562 260.75 190.953125 C 260.675781 190.929688 260.613281 190.875 260.582031 190.800781 L 257.730469 184.507812 C 257.714844 184.464844 257.703125 184.417969 257.707031 184.371094 L 258.550781 171.753906 L 246.617188 183.082031 C 246.597656 183.101562 246.578125 183.113281 246.554688 183.128906 L 237.90625 187.765625 C 237.835938 187.804688 237.757812 187.8125 237.679688 187.785156 C 237.660156 187.78125 237.644531 187.777344 237.632812 187.769531 Z M 237.632812 187.769531 " fill-opacity="1" fill-rule="nonzero"/><path fill="#ffffff" d="M 230.582031 179.117188 C 230.4375 179.390625 230.097656 179.496094 229.824219 179.347656 C 229.550781 179.203125 229.449219 178.867188 229.589844 178.59375 C 229.738281 178.320312 230.074219 178.21875 230.347656 178.363281 C 230.621094 178.507812 230.726562 178.84375 230.582031 179.117188 Z M 230.582031 179.117188 " fill-opacity="1" fill-rule="nonzero"/><path fill="#0078b7" d="M 229.796875 179.402344 C 229.496094 179.242188 229.382812 178.867188 229.542969 178.566406 C 229.703125 178.269531 230.074219 178.152344 230.375 178.3125 C 230.675781 178.472656 230.792969 178.84375 230.632812 179.144531 C 230.472656 179.441406 230.097656 179.558594 229.796875 179.402344 Z M 230.320312 178.414062 C 230.074219 178.285156 229.769531 178.375 229.644531 178.621094 C 229.515625 178.867188 229.605469 179.167969 229.851562 179.296875 C 230.097656 179.425781 230.402344 179.332031 230.53125 179.089844 C 230.660156 178.84375 230.566406 178.542969 230.320312 178.414062 Z M 230.320312 178.414062 " fill-opacity="1" fill-rule="nonzero"/><path fill="#ffffff" d="M 235.332031 181.628906 C 235.1875 181.902344 234.851562 182.003906 234.578125 181.859375 C 234.304688 181.714844 234.199219 181.378906 234.34375 181.105469 C 234.488281 180.832031 234.828125 180.730469 235.101562 180.875 C 235.375 181.019531 235.480469 181.355469 235.332031 181.628906 Z M 235.332031 181.628906 " fill-opacity="1" fill-rule="nonzero"/><path fill="#0078b7" d="M 234.550781 181.910156 C 234.25 181.75 234.136719 181.378906 234.296875 181.078125 C 234.453125 180.777344 234.828125 180.664062 235.128906 180.820312 C 235.429688 180.980469 235.542969 181.355469 235.382812 181.65625 C 235.226562 181.953125 234.851562 182.070312 234.550781 181.910156 Z M 235.074219 180.921875 C 234.828125 180.792969 234.523438 180.886719 234.394531 181.128906 C 234.265625 181.375 234.359375 181.679688 234.605469 181.808594 C 234.847656 181.9375 235.152344 181.84375 235.28125 181.597656 C 235.414062 181.355469 235.320312 181.054688 235.074219 180.921875 Z M 235.074219 180.921875 " fill-opacity="1" fill-rule="nonzero"/><path fill="#ffffff" d="M 238.257812 187.777344 C 238.113281 188.050781 237.777344 188.152344 237.503906 188.011719 C 237.230469 187.867188 237.125 187.53125 237.269531 187.257812 C 237.414062 186.984375 237.75 186.878906 238.027344 187.023438 C 238.300781 187.167969 238.402344 187.503906 238.257812 187.777344 Z M 238.257812 187.777344 " fill-opacity="1" fill-rule="nonzero"/><path fill="#0078b7" d="M 237.476562 188.058594 C 237.175781 187.902344 237.0625 187.527344 237.21875 187.226562 C 237.378906 186.929688 237.753906 186.8125 238.054688 186.972656 C 238.355469 187.132812 238.46875 187.503906 238.308594 187.804688 C 238.152344 188.105469 237.777344 188.21875 237.476562 188.058594 Z M 238 187.074219 C 237.753906 186.945312 237.449219 187.035156 237.320312 187.28125 C 237.191406 187.527344 237.285156 187.828125 237.527344 187.957031 C 237.773438 188.085938 238.078125 187.996094 238.207031 187.75 C 238.339844 187.507812 238.246094 187.203125 238 187.074219 Z M 238 187.074219 " fill-opacity="1" fill-rule="nonzero"/><path fill="#ffffff" d="M 246.90625 183.136719 C 246.761719 183.410156 246.425781 183.511719 246.152344 183.371094 C 245.878906 183.226562 245.773438 182.890625 245.917969 182.617188 C 246.0625 182.34375 246.402344 182.238281 246.675781 182.382812 C 246.949219 182.527344 247.054688 182.867188 246.90625 183.136719 Z M 246.90625 183.136719 " fill-opacity="1" fill-rule="nonzero"/><path fill="#0078b7" d="M 246.125 183.421875 C 245.824219 183.261719 245.710938 182.890625 245.871094 182.589844 C 246.027344 182.289062 246.402344 182.175781 246.703125 182.332031 C 247.003906 182.492188 247.117188 182.867188 246.957031 183.167969 C 246.800781 183.464844 246.425781 183.582031 246.125 183.421875 Z M 246.648438 182.433594 C 246.402344 182.304688 246.097656 182.398438 245.96875 182.640625 C 245.839844 182.886719 245.933594 183.191406 246.179688 183.320312 C 246.421875 183.449219 246.726562 183.355469 246.855469 183.109375 C 246.988281 182.867188 246.894531 182.5625 246.648438 182.433594 Z M 246.648438 182.433594 " fill-opacity="1" fill-rule="nonzero"/><path fill="#ffffff" d="M 258.484375 184.648438 C 258.339844 184.921875 258 185.027344 257.726562 184.882812 C 257.453125 184.738281 257.347656 184.398438 257.496094 184.128906 C 257.640625 183.855469 257.976562 183.75 258.25 183.894531 C 258.523438 184.039062 258.628906 184.375 258.484375 184.648438 Z M 258.484375 184.648438 " fill-opacity="1" fill-rule="nonzero"/><path fill="#0078b7" d="M 257.699219 184.929688 C 257.398438 184.773438 257.285156 184.398438 257.445312 184.097656 C 257.601562 183.796875 257.976562 183.683594 258.277344 183.84375 C 258.578125 184.003906 258.691406 184.375 258.53125 184.675781 C 258.375 184.976562 258 185.089844 257.699219 184.929688 Z M 258.222656 183.945312 C 257.980469 183.816406 257.675781 183.910156 257.546875 184.152344 C 257.417969 184.398438 257.511719 184.703125 257.753906 184.832031 C 258 184.960938 258.304688 184.867188 258.433594 184.621094 C 258.5625 184.378906 258.46875 184.074219 258.222656 183.945312 Z M 258.222656 183.945312 " fill-opacity="1" fill-rule="nonzero"/><path fill="#ffffff" d="M 261.40625 190.800781 C 261.261719 191.074219 260.925781 191.175781 260.652344 191.03125 C 260.378906 190.886719 260.273438 190.550781 260.417969 190.277344 C 260.5625 190.003906 260.898438 189.898438 261.175781 190.042969 C 261.449219 190.1875 261.550781 190.527344 261.40625 190.800781 Z M 261.40625 190.800781 " fill-opacity="1" fill-rule="nonzero"/><path fill="#0078b7" d="M 260.625 191.082031 C 260.324219 190.921875 260.210938 190.546875 260.371094 190.25 C 260.53125 189.949219 260.90625 189.835938 261.203125 189.992188 C 261.503906 190.152344 261.617188 190.527344 261.457031 190.824219 C 261.300781 191.125 260.925781 191.242188 260.625 191.082031 Z M 261.148438 190.097656 C 260.902344 189.96875 260.597656 190.058594 260.46875 190.304688 C 260.339844 190.546875 260.433594 190.851562 260.675781 190.980469 C 260.921875 191.109375 261.226562 191.019531 261.355469 190.773438 C 261.488281 190.527344 261.394531 190.222656 261.148438 190.097656 Z M 261.148438 190.097656 " fill-opacity="1" fill-rule="nonzero"/><path fill="#ffffff" d="M 270.058594 186.160156 C 269.914062 186.433594 269.574219 186.535156 269.300781 186.390625 C 269.027344 186.246094 268.921875 185.910156 269.070312 185.636719 C 269.214844 185.363281 269.550781 185.261719 269.824219 185.402344 C 270.097656 185.546875 270.203125 185.886719 270.058594 186.160156 Z M 270.058594 186.160156 " fill-opacity="1" fill-rule="nonzero"/><path fill="#0078b7" d="M 269.273438 186.441406 C 268.976562 186.28125 268.859375 185.910156 269.019531 185.609375 C 269.179688 185.308594 269.550781 185.195312 269.851562 185.355469 C 270.152344 185.515625 270.265625 185.886719 270.109375 186.1875 C 269.949219 186.488281 269.574219 186.601562 269.273438 186.441406 Z M 269.796875 185.453125 C 269.554688 185.328125 269.25 185.417969 269.121094 185.664062 C 268.988281 185.90625 269.082031 186.210938 269.328125 186.339844 C 269.574219 186.46875 269.878906 186.378906 270.007812 186.132812 C 270.136719 185.890625 270.042969 185.585938 269.796875 185.453125 Z M 269.796875 185.453125 " fill-opacity="1" fill-rule="nonzero"/><path fill="#ffffff" d="M 269.167969 199.503906 C 269.023438 199.773438 268.683594 199.878906 268.410156 199.734375 C 268.136719 199.589844 268.035156 199.253906 268.175781 198.980469 C 268.324219 198.707031 268.660156 198.605469 268.933594 198.746094 C 269.207031 198.890625 269.3125 199.230469 269.167969 199.503906 Z M 269.167969 199.503906 " fill-opacity="1" fill-rule="nonzero"/><path fill="#0078b7" d="M 268.382812 199.785156 C 268.082031 199.625 267.96875 199.253906 268.128906 198.953125 C 268.289062 198.652344 268.660156 198.539062 268.960938 198.699219 C 269.261719 198.855469 269.375 199.230469 269.214844 199.53125 C 269.058594 199.828125 268.683594 199.945312 268.382812 199.785156 Z M 268.90625 198.796875 C 268.660156 198.667969 268.359375 198.761719 268.230469 199.007812 C 268.101562 199.25 268.191406 199.554688 268.4375 199.683594 C 268.683594 199.8125 268.988281 199.71875 269.117188 199.476562 C 269.246094 199.230469 269.152344 198.925781 268.90625 198.796875 Z M 268.90625 198.796875 " fill-opacity="1" fill-rule="nonzero"/><path fill="#ffffff" d="M 279.726562 191.265625 C 279.582031 191.539062 279.242188 191.644531 278.96875 191.5 C 278.695312 191.355469 278.59375 191.019531 278.734375 190.746094 C 278.882812 190.472656 279.21875 190.371094 279.492188 190.511719 C 279.765625 190.65625 279.867188 190.992188 279.726562 191.265625 Z M 279.726562 191.265625 " fill-opacity="1" fill-rule="nonzero"/><path fill="#0078b7" d="M 278.941406 191.546875 C 278.640625 191.390625 278.527344 191.015625 278.6875 190.714844 C 278.847656 190.417969 279.21875 190.300781 279.519531 190.460938 C 279.820312 190.621094 279.9375 190.992188 279.777344 191.292969 C 279.617188 191.59375 279.242188 191.707031 278.941406 191.546875 Z M 279.464844 190.5625 C 279.21875 190.433594 278.914062 190.527344 278.785156 190.769531 C 278.65625 191.015625 278.75 191.320312 278.996094 191.449219 C 279.242188 191.578125 279.546875 191.484375 279.675781 191.242188 C 279.804688 190.996094 279.707031 190.691406 279.464844 190.5625 Z M 279.464844 190.5625 " fill-opacity="1" fill-rule="nonzero"/><path fill="#ffffff" d="M 298.042969 191.734375 C 297.894531 192.007812 297.558594 192.109375 297.285156 191.96875 C 297.011719 191.824219 296.90625 191.488281 297.050781 191.214844 C 297.195312 190.941406 297.535156 190.839844 297.808594 190.980469 C 298.078125 191.125 298.183594 191.460938 298.042969 191.734375 Z M 298.042969 191.734375 " fill-opacity="1" fill-rule="nonzero"/><path fill="#0078b7" d="M 297.257812 192.015625 C 296.957031 191.859375 296.84375 191.484375 297.003906 191.183594 C 297.164062 190.886719 297.535156 190.769531 297.835938 190.929688 C 298.136719 191.089844 298.25 191.460938 298.09375 191.761719 C 297.933594 192.058594 297.558594 192.175781 297.257812 192.015625 Z M 297.78125 191.03125 C 297.535156 190.902344 297.230469 190.996094 297.101562 191.238281 C 296.972656 191.484375 297.066406 191.785156 297.3125 191.914062 C 297.558594 192.042969 297.859375 191.953125 297.988281 191.707031 C 298.117188 191.464844 298.027344 191.160156 297.78125 191.03125 Z M 297.78125 191.03125 " fill-opacity="1" fill-rule="nonzero"/><path fill="#ffffff" d="M 295.117188 185.585938 C 294.972656 185.859375 294.632812 185.964844 294.359375 185.816406 C 294.085938 185.671875 293.984375 185.335938 294.125 185.0625 C 294.273438 184.789062 294.609375 184.6875 294.882812 184.832031 C 295.15625 184.972656 295.257812 185.3125 295.117188 185.585938 Z M 295.117188 185.585938 " fill-opacity="1" fill-rule="nonzero"/><path fill="#0078b7" d="M 294.332031 185.867188 C 294.03125 185.707031 293.917969 185.335938 294.074219 185.035156 C 294.234375 184.734375 294.609375 184.621094 294.910156 184.777344 C 295.210938 184.9375 295.324219 185.308594 295.164062 185.609375 C 295.003906 185.910156 294.632812 186.027344 294.332031 185.867188 Z M 294.855469 184.878906 C 294.609375 184.75 294.304688 184.84375 294.175781 185.085938 C 294.050781 185.332031 294.144531 185.636719 294.386719 185.765625 C 294.632812 185.894531 294.9375 185.800781 295.066406 185.558594 C 295.195312 185.3125 295.097656 185.011719 294.855469 184.878906 Z M 294.855469 184.878906 " fill-opacity="1" fill-rule="nonzero"/><path fill="#ffffff" d="M 259.375 171.304688 C 259.226562 171.578125 258.890625 171.679688 258.617188 171.539062 C 258.34375 171.394531 258.242188 171.058594 258.382812 170.785156 C 258.527344 170.511719 258.867188 170.40625 259.140625 170.550781 C 259.414062 170.695312 259.519531 171.035156 259.375 171.304688 Z M 259.375 171.304688 " fill-opacity="1" fill-rule="nonzero"/><path fill="#0078b7" d="M 258.589844 171.589844 C 258.289062 171.429688 258.175781 171.058594 258.335938 170.757812 C 258.496094 170.457031 258.867188 170.34375 259.167969 170.5 C 259.46875 170.660156 259.582031 171.03125 259.425781 171.332031 C 259.265625 171.632812 258.890625 171.746094 258.589844 171.589844 Z M 259.113281 170.601562 C 258.867188 170.472656 258.5625 170.566406 258.433594 170.808594 C 258.304688 171.054688 258.398438 171.359375 258.644531 171.488281 C 258.890625 171.617188 259.195312 171.523438 259.320312 171.28125 C 259.453125 171.035156 259.359375 170.730469 259.113281 170.601562 Z M 259.113281 170.601562 " fill-opacity="1" fill-rule="nonzero"/><path fill="#000000" d="M 225.300781 180.316406 L 225.296875 180.3125 L 225.007812 180.316406 L 225.046875 180.164062 L 225.40625 180.164062 L 225.554688 180.242188 L 224.871094 181.527344 L 224.703125 181.4375 Z M 225.300781 180.316406 " fill-opacity="1" fill-rule="nonzero"/><path fill="#000000" d="M 226.546875 181.574219 C 226.316406 182.007812 226.027344 182.164062 225.738281 182.015625 C 225.488281 181.882812 225.441406 181.554688 225.664062 181.128906 C 225.894531 180.699219 226.203125 180.5625 226.464844 180.699219 C 226.738281 180.839844 226.765625 181.164062 226.546875 181.574219 Z M 225.839844 181.222656 C 225.660156 181.558594 225.664062 181.804688 225.820312 181.886719 C 226 181.980469 226.195312 181.816406 226.371094 181.492188 C 226.539062 181.175781 226.566406 180.925781 226.386719 180.828125 C 226.234375 180.746094 226.023438 180.875 225.839844 181.222656 Z M 225.839844 181.222656 " fill-opacity="1" fill-rule="nonzero"/><path fill="#000000" d="M 226.292969 177.675781 L 226.351562 177.570312 L 226.558594 177.507812 C 227.050781 177.367188 227.289062 177.28125 227.394531 177.089844 C 227.464844 176.957031 227.464844 176.804688 227.269531 176.703125 C 227.15625 176.640625 227.027344 176.652344 226.941406 176.667969 L 226.949219 176.515625 C 227.078125 176.488281 227.238281 176.5 227.382812 176.578125 C 227.660156 176.722656 227.675781 176.976562 227.578125 177.160156 C 227.453125 177.394531 227.179688 177.496094 226.769531 177.613281 L 226.617188 177.652344 L 226.613281 177.660156 L 227.195312 177.964844 L 227.117188 178.109375 Z M 226.292969 177.675781 " fill-opacity="1" fill-rule="nonzero"/><path fill="#000000" d="M 228.515625 178.007812 C 228.28125 178.445312 227.992188 178.597656 227.707031 178.449219 C 227.457031 178.316406 227.410156 177.988281 227.632812 177.5625 C 227.859375 177.132812 228.171875 176.992188 228.433594 177.128906 C 228.707031 177.273438 228.730469 177.597656 228.515625 178.007812 Z M 227.804688 177.660156 C 227.628906 177.992188 227.628906 178.238281 227.789062 178.320312 C 227.964844 178.414062 228.164062 178.25 228.335938 177.925781 C 228.503906 177.609375 228.53125 177.359375 228.351562 177.261719 C 228.199219 177.179688 227.992188 177.308594 227.804688 177.660156 Z M 227.804688 177.660156 " fill-opacity="1" fill-rule="nonzero"/><path fill="#000000" d="M 228.351562 173.902344 C 228.386719 173.960938 228.472656 174.070312 228.59375 174.136719 C 228.820312 174.253906 228.960938 174.148438 229.015625 174.039062 C 229.109375 173.859375 228.988281 173.695312 228.820312 173.605469 L 228.722656 173.554688 L 228.792969 173.425781 L 228.886719 173.476562 C 229.015625 173.542969 229.210938 173.5625 229.289062 173.410156 C 229.347656 173.308594 229.328125 173.183594 229.167969 173.097656 C 229.066406 173.042969 228.941406 173.039062 228.867188 173.046875 L 228.886719 172.898438 C 228.980469 172.882812 229.136719 172.902344 229.273438 172.976562 C 229.527344 173.109375 229.5625 173.320312 229.480469 173.476562 C 229.410156 173.609375 229.273438 173.683594 229.082031 173.65625 L 229.082031 173.660156 C 229.222656 173.773438 229.285156 173.960938 229.191406 174.140625 C 229.082031 174.347656 228.828125 174.441406 228.519531 174.277344 C 228.375 174.203125 228.269531 174.089844 228.230469 174.015625 Z M 228.351562 173.902344 " fill-opacity="1" fill-rule="nonzero"/><path fill="#000000" d="M 230.425781 174.414062 C 230.195312 174.847656 229.902344 175.003906 229.617188 174.851562 C 229.367188 174.722656 229.320312 174.394531 229.542969 173.96875 C 229.769531 173.539062 230.085938 173.398438 230.34375 173.535156 C 230.617188 173.679688 230.640625 174.003906 230.425781 174.414062 Z M 229.714844 174.0625 C 229.539062 174.394531 229.542969 174.640625 229.699219 174.726562 C 229.878906 174.820312 230.074219 174.65625 230.246094 174.328125 C 230.414062 174.011719 230.445312 173.761719 230.265625 173.667969 C 230.109375 173.585938 229.902344 173.714844 229.714844 174.0625 Z M 229.714844 174.0625 " fill-opacity="1" fill-rule="nonzero"/><path fill="#000000" d="M 230.675781 170.78125 L 230.863281 170.433594 L 230.265625 170.117188 L 230.324219 170.003906 L 231.335938 169.484375 L 231.523438 169.585938 L 231.101562 170.382812 L 231.28125 170.480469 L 231.207031 170.617188 L 231.027344 170.519531 L 230.84375 170.871094 Z M 230.9375 170.296875 L 231.164062 169.867188 C 231.199219 169.800781 231.238281 169.734375 231.277344 169.667969 L 231.269531 169.664062 C 231.191406 169.722656 231.128906 169.757812 231.0625 169.796875 L 230.515625 170.070312 L 230.511719 170.074219 Z M 230.9375 170.296875 " fill-opacity="1" fill-rule="nonzero"/><path fill="#000000" d="M 232.359375 170.832031 C 232.128906 171.265625 231.839844 171.421875 231.550781 171.273438 C 231.300781 171.140625 231.253906 170.8125 231.476562 170.386719 C 231.707031 169.957031 232.019531 169.820312 232.28125 169.957031 C 232.550781 170.097656 232.578125 170.421875 232.359375 170.832031 Z M 231.648438 170.480469 C 231.472656 170.816406 231.472656 171.0625 231.632812 171.144531 C 231.8125 171.238281 232.007812 171.074219 232.179688 170.746094 C 232.347656 170.429688 232.378906 170.179688 232.199219 170.085938 C 232.042969 170.003906 231.835938 170.132812 231.648438 170.480469 Z M 231.648438 170.480469 " fill-opacity="1" fill-rule="nonzero"/><path fill="#000000" d="M 233.394531 166.15625 L 232.902344 165.894531 L 232.679688 166.199219 C 232.707031 166.210938 232.738281 166.222656 232.789062 166.246094 C 232.886719 166.300781 232.976562 166.375 233.027344 166.464844 C 233.097656 166.574219 233.125 166.726562 233.035156 166.890625 C 232.902344 167.140625 232.601562 167.222656 232.324219 167.078125 C 232.179688 167.003906 232.082031 166.898438 232.042969 166.828125 L 232.160156 166.71875 C 232.195312 166.777344 232.28125 166.875 232.394531 166.933594 C 232.558594 167.023438 232.757812 166.988281 232.851562 166.816406 C 232.9375 166.648438 232.890625 166.472656 232.632812 166.335938 C 232.558594 166.296875 232.496094 166.273438 232.445312 166.253906 L 232.855469 165.683594 L 233.472656 166.007812 Z M 233.394531 166.15625 " fill-opacity="1" fill-rule="nonzero"/><path fill="#000000" d="M 234.242188 167.21875 C 234.011719 167.65625 233.722656 167.8125 233.433594 167.660156 C 233.183594 167.527344 233.136719 167.203125 233.359375 166.773438 C 233.585938 166.34375 233.898438 166.207031 234.160156 166.34375 C 234.433594 166.488281 234.457031 166.808594 234.242188 167.21875 Z M 233.53125 166.867188 C 233.351562 167.203125 233.355469 167.449219 233.515625 167.53125 C 233.691406 167.625 233.886719 167.460938 234.0625 167.136719 C 234.230469 166.820312 234.257812 166.570312 234.078125 166.472656 C 233.925781 166.394531 233.714844 166.519531 233.53125 166.867188 Z M 233.53125 166.867188 " fill-opacity="1" fill-rule="nonzero"/><path fill="#000000" d="M 235.289062 162.519531 C 235.253906 162.5 235.207031 162.476562 235.152344 162.457031 C 234.855469 162.359375 234.605469 162.484375 234.460938 162.679688 L 234.46875 162.683594 C 234.574219 162.632812 234.714844 162.625 234.859375 162.699219 C 235.085938 162.820312 235.160156 163.070312 235.027344 163.320312 C 234.902344 163.554688 234.625 163.6875 234.359375 163.546875 C 234.082031 163.402344 234.015625 163.089844 234.191406 162.757812 C 234.328125 162.503906 234.523438 162.355469 234.71875 162.292969 C 234.882812 162.246094 235.058594 162.253906 235.230469 162.320312 C 235.285156 162.339844 235.332031 162.363281 235.363281 162.378906 Z M 234.84375 163.234375 C 234.941406 163.050781 234.894531 162.886719 234.738281 162.800781 C 234.632812 162.746094 234.5 162.761719 234.402344 162.828125 C 234.382812 162.84375 234.359375 162.863281 234.34375 162.894531 C 234.234375 163.109375 234.25 163.316406 234.429688 163.414062 C 234.582031 163.492188 234.746094 163.417969 234.84375 163.234375 Z M 234.84375 163.234375 " fill-opacity="1" fill-rule="nonzero"/><path fill="#000000" d="M 236.15625 163.628906 C 235.925781 164.0625 235.636719 164.21875 235.351562 164.066406 C 235.097656 163.9375 235.050781 163.609375 235.273438 163.183594 C 235.503906 162.753906 235.8125 162.613281 236.074219 162.75 C 236.347656 162.894531 236.375 163.21875 236.15625 163.628906 Z M 235.449219 163.277344 C 235.269531 163.613281 235.273438 163.859375 235.433594 163.941406 C 235.609375 164.035156 235.804688 163.871094 235.980469 163.546875 C 236.148438 163.230469 236.175781 162.980469 235.996094 162.882812 C 235.84375 162.800781 235.632812 162.929688 235.449219 163.277344 Z M 235.449219 163.277344 " fill-opacity="1" fill-rule="nonzero"/><path fill="#000000" d="M 237.339844 158.84375 L 237.277344 158.957031 L 236.097656 159.828125 L 235.917969 159.734375 L 237.078125 158.890625 L 237.078125 158.886719 L 236.449219 158.554688 L 236.523438 158.410156 Z M 237.339844 158.84375 " fill-opacity="1" fill-rule="nonzero"/><path fill="#000000" d="M 238.042969 160.019531 C 237.8125 160.457031 237.519531 160.609375 237.234375 160.460938 C 236.984375 160.328125 236.9375 160 237.160156 159.574219 C 237.386719 159.144531 237.699219 159.003906 237.960938 159.140625 C 238.230469 159.285156 238.257812 159.609375 238.042969 160.019531 Z M 237.332031 159.671875 C 237.15625 160.003906 237.15625 160.25 237.316406 160.332031 C 237.496094 160.425781 237.691406 160.265625 237.863281 159.9375 C 238.03125 159.621094 238.0625 159.371094 237.878906 159.273438 C 237.726562 159.191406 237.519531 159.320312 237.332031 159.671875 Z M 237.332031 159.671875 " fill-opacity="1" fill-rule="nonzero"/><path fill="#000000" d="M 237.90625 155.765625 C 237.992188 155.605469 238.148438 155.539062 238.34375 155.558594 L 238.34375 155.550781 C 238.238281 155.40625 238.230469 155.265625 238.292969 155.152344 C 238.398438 154.949219 238.644531 154.902344 238.871094 155.019531 C 239.121094 155.152344 239.164062 155.375 239.078125 155.535156 C 239.019531 155.644531 238.90625 155.734375 238.707031 155.726562 L 238.703125 155.730469 C 238.832031 155.878906 238.871094 156.046875 238.789062 156.199219 C 238.667969 156.421875 238.398438 156.472656 238.152344 156.34375 C 237.882812 156.199219 237.808594 155.953125 237.90625 155.765625 Z M 238.605469 156.125 C 238.6875 155.96875 238.617188 155.835938 238.46875 155.695312 C 238.296875 155.65625 238.164062 155.714844 238.097656 155.835938 C 238.023438 155.964844 238.0625 156.128906 238.222656 156.21875 C 238.382812 156.300781 238.53125 156.257812 238.605469 156.125 Z M 238.464844 155.226562 C 238.398438 155.355469 238.457031 155.476562 238.585938 155.59375 C 238.714844 155.613281 238.84375 155.578125 238.90625 155.464844 C 238.960938 155.363281 238.957031 155.222656 238.800781 155.140625 C 238.652344 155.0625 238.523438 155.117188 238.464844 155.226562 Z M 238.464844 155.226562 " fill-opacity="1" fill-rule="nonzero"/><path fill="#000000" d="M 239.96875 156.433594 C 239.738281 156.871094 239.449219 157.023438 239.164062 156.875 C 238.910156 156.742188 238.867188 156.417969 239.085938 155.988281 C 239.316406 155.558594 239.628906 155.417969 239.886719 155.554688 C 240.160156 155.699219 240.1875 156.023438 239.96875 156.433594 Z M 239.261719 156.082031 C 239.082031 156.417969 239.085938 156.660156 239.246094 156.746094 C 239.421875 156.839844 239.617188 156.675781 239.792969 156.351562 C 239.960938 156.035156 239.988281 155.785156 239.808594 155.6875 C 239.65625 155.605469 239.445312 155.734375 239.261719 156.082031 Z M 239.261719 156.082031 " fill-opacity="1" fill-rule="nonzero"/><path fill="#000000" d="M 239.820312 152.433594 C 239.851562 152.457031 239.898438 152.476562 239.960938 152.5 C 240.070312 152.539062 240.1875 152.550781 240.296875 152.519531 C 240.421875 152.488281 240.542969 152.40625 240.648438 152.265625 L 240.640625 152.265625 C 240.523438 152.3125 240.394531 152.3125 240.265625 152.242188 C 240.035156 152.121094 239.976562 151.867188 240.09375 151.648438 C 240.222656 151.40625 240.511719 151.285156 240.777344 151.425781 C 241.039062 151.5625 241.089844 151.863281 240.917969 152.191406 C 240.765625 152.476562 240.566406 152.621094 240.375 152.675781 C 240.222656 152.722656 240.054688 152.710938 239.910156 152.652344 C 239.839844 152.625 239.785156 152.601562 239.742188 152.574219 Z M 240.273438 151.726562 C 240.1875 151.886719 240.226562 152.050781 240.375 152.128906 C 240.492188 152.191406 240.617188 152.183594 240.703125 152.128906 C 240.71875 152.121094 240.738281 152.105469 240.75 152.074219 C 240.867188 151.855469 240.875 151.644531 240.695312 151.550781 C 240.546875 151.46875 240.371094 151.546875 240.273438 151.726562 Z M 240.273438 151.726562 " fill-opacity="1" fill-rule="nonzero"/><path fill="#000000" d="M 241.875 152.835938 C 241.644531 153.269531 241.351562 153.425781 241.066406 153.273438 C 240.816406 153.140625 240.769531 152.816406 240.992188 152.390625 C 241.222656 151.960938 241.535156 151.820312 241.796875 151.957031 C 242.066406 152.101562 242.089844 152.425781 241.875 152.835938 Z M 241.164062 152.484375 C 240.984375 152.820312 240.988281 153.066406 241.148438 153.148438 C 241.324219 153.242188 241.519531 153.078125 241.695312 152.75 C 241.863281 152.433594 241.890625 152.183594 241.710938 152.085938 C 241.558594 152.007812 241.351562 152.132812 241.164062 152.484375 Z M 241.164062 152.484375 " fill-opacity="1" fill-rule="nonzero"/><path fill="#000000" d="M 241.964844 147.679688 L 241.671875 147.679688 L 241.710938 147.53125 L 242.070312 147.527344 L 242.21875 147.609375 L 241.539062 148.894531 L 241.371094 148.804688 Z M 241.964844 147.679688 " fill-opacity="1" fill-rule="nonzero"/><path fill="#000000" d="M 243.210938 148.9375 C 242.980469 149.371094 242.691406 149.527344 242.40625 149.375 C 242.152344 149.242188 242.109375 148.917969 242.328125 148.492188 C 242.558594 148.0625 242.871094 147.921875 243.128906 148.058594 C 243.402344 148.203125 243.429688 148.527344 243.210938 148.9375 Z M 242.5 148.585938 C 242.324219 148.921875 242.324219 149.167969 242.484375 149.25 C 242.660156 149.34375 242.859375 149.179688 243.03125 148.855469 C 243.199219 148.539062 243.226562 148.289062 243.046875 148.191406 C 242.898438 148.109375 242.6875 148.234375 242.5 148.585938 Z M 242.5 148.585938 " fill-opacity="1" fill-rule="nonzero"/><path fill="#000000" d="M 244.226562 149.472656 C 243.996094 149.910156 243.707031 150.066406 243.421875 149.917969 C 243.167969 149.785156 243.125 149.457031 243.34375 149.03125 C 243.574219 148.601562 243.886719 148.460938 244.148438 148.597656 C 244.417969 148.742188 244.445312 149.0625 244.226562 149.472656 Z M 243.519531 149.125 C 243.339844 149.457031 243.34375 149.699219 243.503906 149.785156 C 243.679688 149.878906 243.875 149.71875 244.050781 149.390625 C 244.21875 149.074219 244.246094 148.824219 244.066406 148.726562 C 243.914062 148.644531 243.703125 148.773438 243.519531 149.125 Z M 243.519531 149.125 " fill-opacity="1" fill-rule="nonzero"/><path fill="#000000" d="M 230.441406 189.753906 L 230.1875 189.753906 L 230.222656 189.625 L 230.53125 189.625 L 230.660156 189.691406 L 230.074219 190.796875 L 229.929688 190.71875 Z M 230.441406 189.753906 " fill-opacity="1" fill-rule="nonzero"/><path fill="#000000" d="M 234.367188 193.066406 L 234.414062 192.972656 L 234.59375 192.921875 C 235.019531 192.804688 235.222656 192.726562 235.3125 192.5625 C 235.371094 192.449219 235.371094 192.316406 235.207031 192.230469 C 235.105469 192.175781 234.996094 192.183594 234.921875 192.199219 L 234.929688 192.070312 C 235.042969 192.042969 235.175781 192.054688 235.304688 192.121094 C 235.542969 192.246094 235.558594 192.464844 235.472656 192.625 C 235.363281 192.828125 235.128906 192.914062 234.777344 193.015625 L 234.644531 193.050781 L 234.640625 193.050781 L 235.136719 193.316406 L 235.070312 193.4375 Z M 234.367188 193.066406 " fill-opacity="1" fill-rule="nonzero"/><path fill="#000000" d="M 239.339844 195.472656 C 239.367188 195.523438 239.445312 195.617188 239.546875 195.671875 C 239.742188 195.773438 239.867188 195.683594 239.914062 195.589844 C 239.992188 195.4375 239.886719 195.296875 239.742188 195.21875 L 239.660156 195.171875 L 239.71875 195.0625 L 239.800781 195.105469 C 239.910156 195.164062 240.082031 195.179688 240.148438 195.046875 C 240.195312 194.960938 240.179688 194.851562 240.042969 194.78125 C 239.953125 194.734375 239.847656 194.726562 239.78125 194.734375 L 239.800781 194.605469 C 239.878906 194.59375 240.015625 194.609375 240.136719 194.671875 C 240.355469 194.789062 240.386719 194.972656 240.3125 195.105469 C 240.253906 195.21875 240.132812 195.28125 239.96875 195.257812 L 239.96875 195.261719 C 240.089844 195.359375 240.144531 195.519531 240.0625 195.675781 C 239.96875 195.851562 239.75 195.933594 239.484375 195.792969 C 239.359375 195.726562 239.269531 195.628906 239.234375 195.566406 Z M 239.339844 195.472656 " fill-opacity="1" fill-rule="nonzero"/><path fill="#000000" d="M 244.496094 198.417969 L 244.65625 198.117188 L 244.140625 197.84375 L 244.195312 197.746094 L 245.0625 197.304688 L 245.226562 197.386719 L 244.863281 198.074219 L 245.015625 198.15625 L 244.957031 198.277344 L 244.800781 198.195312 L 244.640625 198.496094 Z M 244.71875 198 L 244.914062 197.628906 C 244.945312 197.570312 244.976562 197.515625 245.011719 197.457031 L 245.007812 197.457031 C 244.9375 197.503906 244.886719 197.535156 244.828125 197.570312 L 244.359375 197.804688 L 244.355469 197.808594 Z M 244.71875 198 " fill-opacity="1" fill-rule="nonzero"/><path fill="#000000" d="M 250.0625 200.105469 L 249.640625 199.882812 L 249.445312 200.140625 C 249.472656 200.152344 249.5 200.160156 249.539062 200.183594 C 249.625 200.226562 249.703125 200.292969 249.746094 200.367188 C 249.808594 200.464844 249.828125 200.597656 249.753906 200.734375 C 249.640625 200.953125 249.382812 201.023438 249.140625 200.894531 C 249.023438 200.832031 248.9375 200.742188 248.902344 200.679688 L 249 200.585938 C 249.035156 200.636719 249.105469 200.71875 249.207031 200.773438 C 249.347656 200.847656 249.515625 200.820312 249.597656 200.671875 C 249.667969 200.527344 249.628906 200.375 249.40625 200.257812 C 249.34375 200.222656 249.292969 200.203125 249.25 200.1875 L 249.601562 199.695312 L 250.132812 199.972656 Z M 250.0625 200.105469 " fill-opacity="1" fill-rule="nonzero"/><path fill="#000000" d="M 254.855469 202.609375 C 254.828125 202.59375 254.785156 202.574219 254.738281 202.558594 C 254.484375 202.472656 254.265625 202.578125 254.144531 202.746094 L 254.148438 202.75 C 254.238281 202.707031 254.359375 202.699219 254.484375 202.765625 C 254.679688 202.867188 254.742188 203.082031 254.628906 203.296875 C 254.523438 203.5 254.285156 203.613281 254.054688 203.496094 C 253.816406 203.371094 253.761719 203.105469 253.910156 202.816406 C 254.027344 202.597656 254.199219 202.46875 254.363281 202.414062 C 254.503906 202.375 254.65625 202.382812 254.804688 202.441406 C 254.855469 202.457031 254.890625 202.472656 254.917969 202.488281 Z M 254.476562 203.226562 C 254.558594 203.066406 254.519531 202.921875 254.382812 202.851562 C 254.292969 202.804688 254.175781 202.816406 254.09375 202.875 C 254.078125 202.886719 254.058594 202.90625 254.042969 202.929688 C 253.949219 203.113281 253.960938 203.292969 254.121094 203.375 C 254.246094 203.445312 254.390625 203.382812 254.476562 203.226562 Z M 254.476562 203.226562 " fill-opacity="1" fill-rule="nonzero"/><path fill="#000000" d="M 259.824219 205.101562 L 259.769531 205.199219 L 258.753906 205.949219 L 258.597656 205.867188 L 259.597656 205.144531 L 259.601562 205.140625 L 259.058594 204.855469 L 259.125 204.730469 Z M 259.824219 205.101562 " fill-opacity="1" fill-rule="nonzero"/><path fill="#000000" d="M 263.496094 208.097656 C 263.570312 207.957031 263.707031 207.902344 263.871094 207.917969 L 263.871094 207.910156 C 263.78125 207.789062 263.777344 207.664062 263.828125 207.570312 C 263.921875 207.394531 264.132812 207.355469 264.328125 207.457031 C 264.542969 207.570312 264.578125 207.757812 264.507812 207.898438 C 264.457031 207.992188 264.355469 208.066406 264.1875 208.058594 L 264.183594 208.066406 C 264.292969 208.191406 264.328125 208.335938 264.257812 208.46875 C 264.15625 208.660156 263.921875 208.703125 263.710938 208.59375 C 263.476562 208.46875 263.410156 208.257812 263.496094 208.097656 Z M 264.09375 208.40625 C 264.167969 208.269531 264.109375 208.15625 263.980469 208.035156 C 263.828125 208.003906 263.714844 208.050781 263.65625 208.15625 C 263.59375 208.269531 263.625 208.410156 263.769531 208.484375 C 263.90625 208.554688 264.035156 208.519531 264.09375 208.40625 Z M 263.976562 207.632812 C 263.917969 207.742188 263.96875 207.847656 264.078125 207.949219 C 264.191406 207.96875 264.300781 207.9375 264.355469 207.835938 C 264.402344 207.75 264.398438 207.628906 264.261719 207.558594 C 264.136719 207.492188 264.027344 207.539062 263.976562 207.632812 Z M 263.976562 207.632812 " fill-opacity="1" fill-rule="nonzero"/><path fill="#000000" d="M 268.332031 210.875 C 268.363281 210.894531 268.402344 210.910156 268.457031 210.933594 C 268.550781 210.96875 268.648438 210.976562 268.742188 210.949219 C 268.851562 210.921875 268.957031 210.851562 269.046875 210.730469 L 269.039062 210.730469 C 268.941406 210.773438 268.828125 210.769531 268.71875 210.710938 C 268.515625 210.605469 268.46875 210.390625 268.570312 210.199219 C 268.679688 209.988281 268.929688 209.886719 269.15625 210.003906 C 269.382812 210.125 269.425781 210.382812 269.273438 210.664062 C 269.148438 210.90625 268.976562 211.035156 268.808594 211.082031 C 268.679688 211.121094 268.535156 211.109375 268.410156 211.058594 C 268.347656 211.039062 268.300781 211.015625 268.265625 210.996094 Z M 268.722656 210.265625 C 268.648438 210.40625 268.683594 210.546875 268.8125 210.613281 C 268.910156 210.667969 269.015625 210.660156 269.089844 210.613281 C 269.109375 210.605469 269.121094 210.589844 269.132812 210.566406 C 269.234375 210.375 269.242188 210.195312 269.085938 210.113281 C 268.957031 210.046875 268.808594 210.113281 268.722656 210.265625 Z M 268.722656 210.265625 " fill-opacity="1" fill-rule="nonzero"/><path fill="#000000" d="M 273.371094 212.433594 L 273.117188 212.433594 L 273.152344 212.308594 L 273.460938 212.304688 L 273.589844 212.371094 L 273.003906 213.476562 L 272.859375 213.402344 Z M 273.371094 212.433594 " fill-opacity="1" fill-rule="nonzero"/><path fill="#000000" d="M 274.441406 213.515625 C 274.242188 213.890625 273.992188 214.027344 273.746094 213.894531 C 273.53125 213.78125 273.492188 213.503906 273.683594 213.132812 C 273.878906 212.761719 274.148438 212.644531 274.375 212.761719 C 274.605469 212.886719 274.628906 213.164062 274.441406 213.515625 Z M 273.832031 213.214844 C 273.679688 213.503906 273.679688 213.710938 273.816406 213.785156 C 273.972656 213.867188 274.136719 213.722656 274.289062 213.441406 C 274.433594 213.171875 274.460938 212.957031 274.304688 212.875 C 274.171875 212.804688 273.992188 212.914062 273.832031 213.214844 Z M 273.832031 213.214844 " fill-opacity="1" fill-rule="nonzero"/><path fill="#000000" d="M 278.335938 215.058594 L 278.332031 215.054688 L 278.085938 215.058594 L 278.117188 214.929688 L 278.425781 214.929688 L 278.554688 214.996094 L 277.96875 216.101562 L 277.820312 216.023438 Z M 278.335938 215.058594 " fill-opacity="1" fill-rule="nonzero"/><path fill="#000000" d="M 279.210938 215.523438 L 279.207031 215.519531 L 278.960938 215.523438 L 278.992188 215.394531 L 279.300781 215.390625 L 279.429688 215.457031 L 278.84375 216.5625 L 278.699219 216.488281 Z M 279.210938 215.523438 " fill-opacity="1" fill-rule="nonzero"/><path fill="#000000" d="M 283.050781 217.550781 L 283.046875 217.546875 L 282.800781 217.550781 L 282.832031 217.421875 L 283.144531 217.417969 L 283.273438 217.484375 L 282.683594 218.589844 L 282.539062 218.515625 Z M 283.050781 217.550781 " fill-opacity="1" fill-rule="nonzero"/><path fill="#000000" d="M 283.089844 218.804688 L 283.136719 218.714844 L 283.316406 218.660156 C 283.738281 218.542969 283.945312 218.46875 284.035156 218.300781 C 284.09375 218.1875 284.09375 218.054688 283.929688 217.96875 C 283.828125 217.914062 283.71875 217.921875 283.644531 217.9375 L 283.652344 217.804688 C 283.761719 217.78125 283.898438 217.792969 284.027344 217.859375 C 284.265625 217.984375 284.277344 218.203125 284.195312 218.359375 C 284.085938 218.5625 283.851562 218.648438 283.496094 218.75 L 283.363281 218.785156 L 283.363281 218.789062 L 283.859375 219.054688 L 283.792969 219.175781 Z M 283.089844 218.804688 " fill-opacity="1" fill-rule="nonzero"/><path fill="#ffffff" d="M 305.40625 177.851562 C 305.261719 178.125 304.925781 178.226562 304.648438 178.085938 C 304.375 177.941406 304.273438 177.601562 304.417969 177.328125 C 304.5625 177.054688 304.898438 176.953125 305.171875 177.097656 C 305.449219 177.238281 305.550781 177.578125 305.40625 177.851562 Z M 305.40625 177.851562 " fill-opacity="1" fill-rule="nonzero"/><path fill="#da1f20" d="M 304.625 178.132812 C 304.324219 177.972656 304.207031 177.601562 304.367188 177.300781 C 304.527344 177 304.902344 176.886719 305.203125 177.042969 C 305.503906 177.203125 305.617188 177.578125 305.457031 177.875 C 305.296875 178.175781 304.925781 178.292969 304.625 178.132812 Z M 305.148438 177.144531 C 304.902344 177.019531 304.597656 177.113281 304.46875 177.355469 C 304.339844 177.597656 304.429688 177.902344 304.675781 178.03125 C 304.921875 178.160156 305.226562 178.066406 305.355469 177.824219 C 305.484375 177.582031 305.390625 177.277344 305.148438 177.144531 Z M 305.148438 177.144531 " fill-opacity="1" fill-rule="nonzero"/><path fill="#a1a1a1" d="M 224.800781 247.984375 L 225.839844 246.023438 L 260.1875 264.167969 L 259.148438 266.128906 Z M 224.800781 247.984375 " fill-opacity="1" fill-rule="nonzero"/><path fill="#000000" d="M 286.339844 109.019531 C 286 119.574219 277.152344 127.851562 266.578125 127.511719 C 256.003906 127.171875 247.703125 118.347656 248.042969 107.792969 C 248.382812 97.238281 257.230469 88.957031 267.804688 89.296875 C 278.382812 89.636719 286.679688 98.464844 286.339844 109.019531 Z M 286.339844 109.019531 " fill-opacity="1" fill-rule="nonzero"/><path fill="#231f20" d="M 267.28125 104.238281 C 272.773438 101.320312 277.324219 97.828125 280.3125 94.476562 C 277.03125 91.398438 272.660156 89.453125 267.808594 89.296875 C 257.234375 88.960938 248.386719 97.238281 248.046875 107.792969 C 248.027344 108.457031 248.039062 109.109375 248.082031 109.757812 C 252.992188 109.960938 260.097656 108.046875 267.28125 104.238281 Z M 267.28125 104.238281 " fill-opacity="1" fill-rule="nonzero"/><path fill="#b20000" d="M 299.886719 109.449219 C 299.824219 111.371094 298.214844 112.875 296.292969 112.816406 L 287.917969 112.546875 C 285.996094 112.484375 284.484375 110.878906 284.546875 108.960938 C 284.605469 107.042969 286.21875 105.539062 288.140625 105.597656 L 296.515625 105.867188 C 298.4375 105.929688 299.945312 107.535156 299.886719 109.449219 Z M 299.886719 109.449219 " fill-opacity="1" fill-rule="nonzero"/><path fill="#ed0000" d="M 266.5 129.902344 C 254.625 129.523438 245.269531 119.570312 245.652344 107.71875 C 246.03125 95.863281 256.007812 86.53125 267.882812 86.910156 C 279.761719 87.289062 289.113281 97.242188 288.734375 109.097656 C 288.355469 120.949219 278.378906 130.28125 266.5 129.902344 Z M 267.730469 91.683594 C 258.492188 91.390625 250.734375 98.648438 250.4375 107.871094 C 250.140625 117.089844 257.417969 124.832031 266.65625 125.125 C 275.894531 125.421875 283.652344 118.160156 283.949219 108.941406 C 284.242188 99.722656 276.96875 91.980469 267.730469 91.683594 Z M 267.730469 91.683594 " fill-opacity="1" fill-rule="nonzero"/><path fill="#e32500" d="M 306.882812 284.921875 C 307.070312 286.050781 307.101562 286.988281 306.953125 287.011719 C 306.800781 287.039062 306.527344 286.140625 306.339844 285.011719 C 306.152344 283.878906 306.121094 282.941406 306.269531 282.917969 C 306.421875 282.894531 306.695312 283.789062 306.882812 284.921875 Z M 306.882812 284.921875 " fill-opacity="1" fill-rule="evenodd"/><path fill="#ec2500" d="M 307.203125 287.921875 C 307.253906 288.214844 307.070312 288.488281 306.800781 288.535156 L 303.527344 289.074219 C 303.253906 289.121094 302.996094 288.921875 302.945312 288.628906 L 301.957031 282.679688 C 301.910156 282.390625 302.089844 282.117188 302.359375 282.070312 L 305.636719 281.527344 C 305.90625 281.484375 306.167969 281.683594 306.214844 281.976562 Z M 307.203125 287.921875 " fill-opacity="1" fill-rule="evenodd"/><path fill="#ff2500" d="M 305.886719 286.828125 C 306.070312 287.9375 305.3125 288.988281 304.203125 289.167969 L 241.234375 299.449219 C 240.125 299.628906 239.066406 298.875 238.882812 297.765625 L 238.371094 294.691406 C 238.1875 293.585938 238.945312 292.527344 240.050781 292.339844 L 302.96875 281.761719 C 304.078125 281.578125 305.136719 282.328125 305.320312 283.4375 Z M 305.886719 286.828125 " fill-opacity="1" fill-rule="evenodd"/><path fill="#ffffff" d="M 305.832031 289.03125 L 238.828125 299.964844 L 237.605469 292.628906 L 304.554688 281.367188 Z M 305.832031 289.03125 " fill-opacity="1" fill-rule="evenodd"/><path fill="#ebebeb" d="M 238.226562 296.347656 L 305.203125 285.25 L 304.554688 281.367188 L 237.605469 292.628906 Z M 238.226562 296.347656 " fill-opacity="1" fill-rule="evenodd"/><path fill="#ec2500" d="M 226.277344 292.597656 L 214.5625 294.539062 C 214.554688 294.539062 214.550781 294.539062 214.542969 294.542969 C 214.539062 294.542969 214.535156 294.542969 214.53125 294.546875 C 214.402344 294.566406 214.304688 294.660156 214.269531 294.777344 C 214.257812 294.816406 214.25 294.863281 214.261719 294.910156 C 214.261719 294.914062 214.261719 294.914062 214.261719 294.914062 C 214.261719 294.917969 214.261719 294.917969 214.261719 294.921875 L 214.5625 296.738281 C 214.589844 296.914062 214.761719 297.035156 214.9375 297.007812 C 215.117188 296.980469 215.238281 296.808594 215.207031 296.632812 L 214.957031 295.113281 L 225.355469 293.390625 C 225.402344 293.476562 225.621094 293.511719 225.867188 293.46875 C 226.117188 293.429688 226.3125 293.324219 226.328125 293.230469 L 226.382812 293.222656 C 226.578125 293.1875 226.714844 293.023438 226.683594 292.851562 C 226.65625 292.679688 226.472656 292.5625 226.277344 292.597656 Z M 226.277344 292.597656 " fill-opacity="1" fill-rule="evenodd"/><path fill="#e32500" d="M 217.15625 299.796875 C 217.363281 301.046875 216.964844 302.15625 216.261719 302.273438 C 215.558594 302.390625 214.820312 301.46875 214.613281 300.21875 C 214.402344 298.964844 214.804688 297.855469 215.507812 297.738281 C 216.210938 297.625 216.949219 298.546875 217.15625 299.796875 Z M 217.15625 299.796875 " fill-opacity="1" fill-rule="evenodd"/><path fill="#ff2500" d="M 238.925781 298.023438 C 239.109375 299.132812 238.351562 300.1875 237.242188 300.371094 L 217.777344 303.597656 C 216.667969 303.78125 215.609375 303.023438 215.425781 301.917969 L 214.832031 298.34375 C 214.644531 297.234375 215.402344 296.179688 216.511719 295.996094 L 235.980469 292.773438 C 237.089844 292.589844 238.144531 293.34375 238.332031 294.449219 Z M 238.925781 298.023438 " fill-opacity="1" fill-rule="evenodd"/><g clip-path="url(#8fc6405959)"><path fill="#e32500" d="M 217.839844 303.410156 C 217.902344 303.785156 217.734375 304.128906 217.460938 304.171875 L 217.09375 304.234375 C 216.820312 304.28125 216.550781 304.011719 216.488281 303.632812 L 215.292969 296.460938 C 215.230469 296.085938 215.402344 295.742188 215.671875 295.699219 L 216.039062 295.636719 C 216.3125 295.589844 216.582031 295.859375 216.644531 296.238281 Z M 217.839844 303.410156 " fill-opacity="1" fill-rule="evenodd"/></g><path fill="#e32500" d="M 220.417969 302.980469 C 220.484375 303.359375 220.3125 303.703125 220.042969 303.746094 L 219.671875 303.808594 C 219.402344 303.851562 219.132812 303.582031 219.066406 303.207031 L 217.875 296.035156 C 217.8125 295.660156 217.980469 295.316406 218.253906 295.269531 L 218.621094 295.210938 C 218.890625 295.164062 219.160156 295.433594 219.226562 295.8125 Z M 220.417969 302.980469 " fill-opacity="1" fill-rule="evenodd"/><path fill="#e32500" d="M 223 302.554688 C 223.0625 302.929688 222.894531 303.273438 222.621094 303.320312 L 222.253906 303.378906 C 221.980469 303.425781 221.710938 303.15625 221.648438 302.777344 L 220.453125 295.609375 C 220.390625 295.230469 220.558594 294.886719 220.832031 294.84375 L 221.199219 294.78125 C 221.472656 294.738281 221.742188 295.007812 221.804688 295.382812 Z M 223 302.554688 " fill-opacity="1" fill-rule="evenodd"/><path fill="#e32500" d="M 225.578125 302.128906 C 225.640625 302.503906 225.472656 302.847656 225.199219 302.890625 L 224.832031 302.953125 C 224.5625 303 224.289062 302.730469 224.226562 302.351562 L 223.035156 295.179688 C 222.96875 294.804688 223.140625 294.460938 223.410156 294.417969 L 223.78125 294.355469 C 224.050781 294.308594 224.320312 294.578125 224.386719 294.957031 Z M 225.578125 302.128906 " fill-opacity="1" fill-rule="evenodd"/><path fill="#e32500" d="M 228.15625 301.699219 C 228.21875 302.078125 228.050781 302.417969 227.777344 302.464844 L 227.410156 302.523438 C 227.136719 302.570312 226.867188 302.300781 226.804688 301.921875 L 225.613281 294.753906 C 225.546875 294.375 225.71875 294.03125 225.988281 293.988281 L 226.359375 293.925781 C 226.628906 293.882812 226.898438 294.152344 226.960938 294.527344 Z M 228.15625 301.699219 " fill-opacity="1" fill-rule="evenodd"/><path fill="#e32500" d="M 230.734375 301.273438 C 230.800781 301.648438 230.628906 301.992188 230.359375 302.039062 L 229.988281 302.097656 C 229.71875 302.144531 229.449219 301.875 229.386719 301.496094 L 228.191406 294.324219 C 228.128906 293.949219 228.296875 293.605469 228.570312 293.558594 L 228.9375 293.5 C 229.210938 293.453125 229.480469 293.722656 229.542969 294.101562 Z M 230.734375 301.273438 " fill-opacity="1" fill-rule="evenodd"/><path fill="#e32500" d="M 233.316406 300.84375 C 233.378906 301.222656 233.210938 301.5625 232.9375 301.609375 L 232.570312 301.671875 C 232.296875 301.714844 232.027344 301.445312 231.964844 301.070312 L 230.769531 293.898438 C 230.707031 293.519531 230.878906 293.179688 231.148438 293.132812 L 231.515625 293.070312 C 231.789062 293.027344 232.058594 293.296875 232.121094 293.675781 Z M 233.316406 300.84375 " fill-opacity="1" fill-rule="evenodd"/><path fill="#e32500" d="M 235.894531 300.417969 C 235.960938 300.796875 235.789062 301.136719 235.519531 301.183594 L 235.148438 301.246094 C 234.878906 301.289062 234.609375 301.019531 234.542969 300.640625 L 233.351562 293.472656 C 233.289062 293.09375 233.457031 292.75 233.730469 292.707031 L 234.097656 292.644531 C 234.367188 292.601562 234.636719 292.871094 234.703125 293.246094 Z M 235.894531 300.417969 " fill-opacity="1" fill-rule="evenodd"/><path fill="#e32500" d="M 238.472656 299.988281 C 238.535156 300.367188 238.367188 300.710938 238.09375 300.753906 L 237.726562 300.816406 C 237.457031 300.859375 237.1875 300.589844 237.121094 300.214844 L 235.929688 293.042969 C 235.863281 292.667969 236.035156 292.324219 236.304688 292.277344 L 236.675781 292.21875 C 236.945312 292.171875 237.214844 292.441406 237.28125 292.820312 Z M 238.472656 299.988281 " fill-opacity="1" fill-rule="evenodd"/><path fill="#bcbec0" d="M 140.710938 145.765625 L 230.363281 145.765625 L 230.363281 263.945312 L 140.710938 263.945312 Z M 140.710938 145.765625 " fill-opacity="1" fill-rule="nonzero"/><path fill="#f1f2f2" d="M 143.074219 147.847656 L 228 147.847656 L 228 261.863281 L 143.074219 261.863281 Z M 143.074219 147.847656 " fill-opacity="1" fill-rule="nonzero"/><path fill="#ffffff" d="M 209.722656 173.328125 L 224.574219 173.328125 L 224.574219 188.148438 L 209.722656 188.148438 Z M 209.722656 173.328125 " fill-opacity="1" fill-rule="nonzero"/><path fill="#ed1c24" d="M 217.148438 187.179688 L 212.75 175.0625 C 212.640625 174.765625 212.792969 174.4375 213.09375 174.332031 C 213.390625 174.222656 213.71875 174.375 213.828125 174.675781 L 217.152344 183.828125 L 220.472656 174.675781 C 220.582031 174.378906 220.910156 174.226562 221.207031 174.332031 C 221.503906 174.4375 221.65625 174.765625 221.550781 175.0625 Z M 217.148438 187.179688 " fill-opacity="1" fill-rule="nonzero"/><path fill="#ffffff" d="M 209.722656 190.574219 L 224.574219 190.574219 L 224.574219 205.398438 L 209.722656 205.398438 Z M 209.722656 190.574219 " fill-opacity="1" fill-rule="nonzero"/><path fill="#ffffff" d="M 209.722656 207.824219 L 224.574219 207.824219 L 224.574219 222.648438 L 209.722656 222.648438 Z M 209.722656 207.824219 " fill-opacity="1" fill-rule="nonzero"/><path fill="#ffffff" d="M 209.722656 225.074219 L 224.574219 225.074219 L 224.574219 239.898438 L 209.722656 239.898438 Z M 209.722656 225.074219 " fill-opacity="1" fill-rule="nonzero"/><path fill="#ffffff" d="M 209.722656 242.324219 L 224.574219 242.324219 L 224.574219 257.148438 L 209.722656 257.148438 Z M 209.722656 242.324219 " fill-opacity="1" fill-rule="nonzero"/><path fill="#939598" d="M 147.914062 176.8125 L 181.941406 176.8125 L 181.941406 177.636719 L 147.914062 177.636719 Z M 147.914062 176.8125 " fill-opacity="1" fill-rule="nonzero"/><path fill="#939598" d="M 161.757812 180.660156 L 193.308594 180.660156 L 193.308594 181.484375 L 161.757812 181.484375 Z M 161.757812 180.660156 " fill-opacity="1" fill-rule="nonzero"/><path fill="#939598" d="M 152.527344 191.484375 L 179.253906 191.484375 L 179.253906 192.308594 L 152.527344 192.308594 Z M 152.527344 191.484375 " fill-opacity="1" fill-rule="nonzero"/><path fill="#939598" d="M 154.148438 197.574219 L 180.871094 197.574219 L 180.871094 198.398438 L 154.148438 198.398438 Z M 154.148438 197.574219 " fill-opacity="1" fill-rule="nonzero"/><path fill="#939598" d="M 164.824219 194.320312 L 193.683594 194.320312 L 193.683594 195.144531 L 164.824219 195.144531 Z M 164.824219 194.320312 " fill-opacity="1" fill-rule="nonzero"/><path fill="#939598" d="M 164.824219 200.84375 L 193.683594 200.84375 L 193.683594 201.667969 L 164.824219 201.667969 Z M 164.824219 200.84375 " fill-opacity="1" fill-rule="nonzero"/><path fill="#939598" d="M 158.65625 208.980469 L 190.757812 208.980469 L 190.757812 209.804688 L 158.65625 209.804688 Z M 158.65625 208.980469 " fill-opacity="1" fill-rule="nonzero"/><path fill="#939598" d="M 147.914062 211.867188 L 187.105469 211.867188 L 187.105469 212.695312 L 147.914062 212.695312 Z M 147.914062 211.867188 " fill-opacity="1" fill-rule="nonzero"/><path fill="#939598" d="M 160.792969 214.480469 L 192.6875 214.480469 L 192.6875 215.304688 L 160.792969 215.304688 Z M 160.792969 214.480469 " fill-opacity="1" fill-rule="nonzero"/><path fill="#939598" d="M 151.566406 218.285156 L 183.320312 218.285156 L 183.320312 219.109375 L 151.566406 219.109375 Z M 151.566406 218.285156 " fill-opacity="1" fill-rule="nonzero"/><path fill="#939598" d="M 151.566406 228.757812 L 183.320312 228.757812 L 183.320312 229.582031 L 151.566406 229.582031 Z M 151.566406 228.757812 " fill-opacity="1" fill-rule="nonzero"/><path fill="#939598" d="M 168.714844 233.152344 L 193.308594 233.152344 L 193.308594 233.976562 L 168.714844 233.976562 Z M 168.714844 233.152344 " fill-opacity="1" fill-rule="nonzero"/><path fill="#939598" d="M 163.273438 236.863281 L 191.789062 236.863281 L 191.789062 237.6875 L 163.273438 237.6875 Z M 163.273438 236.863281 " fill-opacity="1" fill-rule="nonzero"/><path fill="#939598" d="M 150.738281 247.0625 L 190.757812 247.0625 L 190.757812 247.886719 L 150.738281 247.886719 Z M 150.738281 247.0625 " fill-opacity="1" fill-rule="nonzero"/><path fill="#939598" d="M 151.90625 252.285156 L 195.371094 252.285156 L 195.371094 253.109375 L 151.90625 253.109375 Z M 151.90625 252.285156 " fill-opacity="1" fill-rule="nonzero"/><path fill="#939598" d="M 167.507812 256.683594 L 198.402344 256.683594 L 198.402344 257.507812 L 167.507812 257.507812 Z M 167.507812 256.683594 " fill-opacity="1" fill-rule="nonzero"/><path fill="#bcbec0" d="M 169.457031 153.136719 L 201.621094 153.136719 C 203.445312 153.136719 204.929688 151.65625 204.929688 149.835938 L 204.929688 145.765625 L 203.273438 145.765625 L 203.273438 149.835938 C 203.273438 150.746094 202.53125 151.488281 201.621094 151.488281 L 169.457031 151.488281 C 168.542969 151.488281 167.800781 150.746094 167.800781 149.835938 L 167.800781 145.765625 L 166.148438 145.765625 L 166.148438 149.835938 C 166.148438 151.65625 167.632812 153.136719 169.457031 153.136719 Z M 169.457031 153.136719 " fill-opacity="1" fill-rule="nonzero"/><path fill="#d1d3d4" d="M 203.273438 149.21875 L 203.273438 149.835938 C 203.273438 150.746094 202.53125 151.484375 201.621094 151.484375 L 169.457031 151.484375 C 168.542969 151.484375 167.800781 150.746094 167.800781 149.835938 L 167.800781 145.765625 L 166.148438 145.765625 L 166.148438 149.21875 C 166.148438 151.035156 167.632812 152.515625 169.457031 152.515625 L 201.621094 152.515625 C 203.445312 152.515625 204.929688 151.035156 204.929688 149.21875 L 204.929688 145.765625 L 203.273438 145.765625 Z M 203.273438 149.21875 " fill-opacity="1" fill-rule="nonzero"/><path fill="#000000" d="M 165.453125 156.429688 C 166.25 156.296875 167.289062 156.1875 168.617188 156.1875 C 170.242188 156.1875 171.4375 156.5625 172.191406 157.246094 C 172.894531 157.847656 173.308594 158.773438 173.308594 159.910156 C 173.308594 161.0625 172.96875 161.96875 172.324219 162.628906 C 171.453125 163.554688 170.03125 164.023438 168.425781 164.023438 C 167.933594 164.023438 167.480469 164.007812 167.101562 163.910156 L 167.101562 169.011719 L 165.453125 169.011719 Z M 167.101562 162.570312 C 167.460938 162.664062 167.914062 162.703125 168.464844 162.703125 C 170.449219 162.703125 171.664062 161.742188 171.664062 159.984375 C 171.664062 158.304688 170.472656 157.492188 168.652344 157.492188 C 167.933594 157.492188 167.386719 157.546875 167.101562 157.625 Z M 167.101562 162.570312 " fill-opacity="1" fill-rule="nonzero"/><path fill="#000000" d="M 175.523438 156.28125 L 177.171875 156.28125 L 177.171875 167.632812 L 182.625 167.632812 L 182.625 169.011719 L 175.527344 169.011719 L 175.527344 156.28125 Z M 175.523438 156.28125 " fill-opacity="1" fill-rule="nonzero"/><path fill="#000000" d="M 186.523438 165.007812 L 185.199219 169.011719 L 183.496094 169.011719 L 187.832031 156.28125 L 189.816406 156.28125 L 194.167969 169.011719 L 192.410156 169.011719 L 191.046875 165.007812 Z M 190.703125 163.722656 L 189.457031 160.058594 C 189.171875 159.230469 188.984375 158.472656 188.792969 157.734375 L 188.753906 157.734375 C 188.566406 158.492188 188.355469 159.265625 188.109375 160.042969 L 186.863281 163.726562 L 190.703125 163.726562 Z M 190.703125 163.722656 " fill-opacity="1" fill-rule="nonzero"/><path fill="#000000" d="M 196.042969 169.011719 L 196.042969 156.28125 L 197.839844 156.28125 L 201.929688 162.722656 C 202.875 164.214844 203.613281 165.554688 204.222656 166.859375 L 204.257812 166.839844 C 204.105469 165.140625 204.066406 163.589844 204.066406 161.609375 L 204.066406 156.28125 L 205.621094 156.28125 L 205.621094 169.011719 L 203.957031 169.011719 L 199.902344 162.550781 C 199.015625 161.136719 198.160156 159.683594 197.519531 158.304688 L 197.460938 158.320312 C 197.554688 159.925781 197.59375 161.457031 197.59375 163.574219 L 197.59375 169.011719 Z M 196.042969 169.011719 " fill-opacity="1" fill-rule="nonzero"/><g fill="#000000" fill-opacity="1"><g transform="translate(185.382005, 289.364542)"><g><path d="M 2.109375 0.078125 C 1.804688 0.078125 1.566406 -0.00390625 1.390625 -0.171875 C 1.222656 -0.335938 1.140625 -0.5625 1.140625 -0.84375 C 1.140625 -1.113281 1.222656 -1.332031 1.390625 -1.5 C 1.566406 -1.675781 1.804688 -1.765625 2.109375 -1.765625 C 2.410156 -1.765625 2.644531 -1.679688 2.8125 -1.515625 C 2.988281 -1.347656 3.078125 -1.128906 3.078125 -0.859375 C 3.078125 -0.578125 2.988281 -0.347656 2.8125 -0.171875 C 2.632812 -0.00390625 2.398438 0.078125 2.109375 0.078125 Z M 2.109375 0.078125 "/></g></g></g></svg>