<svg xmlns="http://www.w3.org/2000/svg" xmlns:xlink="http://www.w3.org/1999/xlink" width="500" zoomAndPan="magnify" viewBox="0 0 375 374.999991" height="500" preserveAspectRatio="xMidYMid meet" version="1.0"><defs><g/><clipPath id="462a8491b6"><path d="M 91 98.777344 L 296.941406 98.777344 L 296.941406 305.027344 L 91 305.027344 Z M 91 98.777344 " clip-rule="nonzero"/></clipPath></defs><path fill="#fcd770" d="M 121.101562 262.128906 L 121.101562 288.570312 C 121.101562 292.199219 119.613281 295.503906 117.238281 297.917969 C 114.824219 300.292969 111.519531 301.792969 107.878906 301.792969 C 100.570312 301.792969 94.65625 295.867188 94.65625 288.570312 L 94.65625 262.128906 L 121.101562 262.128906 " fill-opacity="1" fill-rule="nonzero"/><path fill="#fcd770" d="M 121.101562 156.359375 L 121.101562 182.800781 L 94.65625 182.800781 L 94.65625 156.359375 C 94.65625 152.71875 96.140625 149.414062 98.519531 147 C 100.933594 144.625 104.238281 143.140625 107.878906 143.140625 C 115.1875 143.140625 121.101562 149.050781 121.101562 156.359375 " fill-opacity="1" fill-rule="nonzero"/><path fill="#e6e9ed" d="M 213.648438 262.128906 L 180.59375 262.128906 L 180.59375 248.90625 L 213.648438 248.90625 Z M 213.648438 288.570312 L 180.59375 288.570312 L 180.59375 275.351562 L 213.648438 275.351562 Z M 226.867188 143.140625 L 107.878906 143.140625 C 115.1875 143.140625 121.101562 149.050781 121.101562 156.359375 L 121.101562 288.570312 C 121.101562 292.199219 119.613281 295.503906 117.238281 297.917969 C 114.824219 300.292969 111.519531 301.792969 107.878906 301.792969 L 213.648438 301.792969 C 220.957031 301.792969 226.867188 295.867188 226.867188 288.570312 L 226.867188 143.140625 " fill-opacity="1" fill-rule="nonzero"/><path fill="#b4dd7f" d="M 213.648438 275.351562 L 213.648438 288.570312 L 180.59375 288.570312 L 180.59375 275.351562 L 213.648438 275.351562 " fill-opacity="1" fill-rule="nonzero"/><path fill="#b4dd7f" d="M 213.648438 248.90625 L 213.648438 262.128906 L 180.59375 262.128906 L 180.59375 248.90625 L 213.648438 248.90625 " fill-opacity="1" fill-rule="nonzero"/><path fill="#ef7385" d="M 134.320312 235.6875 L 134.320312 182.800781 L 202.710938 182.800781 C 204.917969 190.199219 208.652344 197.042969 213.648438 202.890625 L 213.648438 235.6875 L 134.320312 235.6875 " fill-opacity="1" fill-rule="nonzero"/><path fill="#b4dd7f" d="M 292.976562 123.308594 L 292.976562 167.101562 C 292.976562 190.394531 278.332031 211.15625 256.382812 218.992188 L 246.699219 222.464844 L 237.015625 218.992188 C 233.414062 217.703125 230.046875 216.074219 226.867188 214.125 C 221.847656 211.089844 217.378906 207.292969 213.648438 202.890625 C 208.652344 197.042969 204.917969 190.199219 202.710938 182.800781 C 201.214844 177.765625 200.425781 172.511719 200.425781 167.101562 L 200.425781 123.308594 C 208.882812 123.308594 217.183594 121.617188 224.855469 118.4375 C 232.523438 115.261719 239.5625 110.613281 245.578125 104.597656 L 246.699219 103.476562 L 247.824219 104.597656 C 259.820312 116.59375 276.046875 123.308594 292.976562 123.308594 " fill-opacity="1" fill-rule="nonzero"/><path fill="#fcd770" d="M 279.753906 135.894531 L 279.753906 167.101562 C 279.753906 184.75 268.585938 200.605469 251.957031 206.558594 L 246.699219 208.417969 L 241.445312 206.558594 C 224.816406 200.605469 213.648438 184.75 213.648438 167.101562 L 213.648438 135.894531 C 225.769531 134.242188 237.144531 129.386719 246.699219 121.847656 C 256.253906 129.386719 267.628906 134.242188 279.753906 135.894531 " fill-opacity="1" fill-rule="nonzero"/><path fill="#000000" d="M 276.449219 138.722656 L 276.449219 167.089844 C 276.449219 183.355469 266.15625 197.960938 250.832031 203.433594 L 246.699219 204.90625 L 242.554688 203.433594 C 227.242188 197.960938 216.953125 183.355469 216.953125 167.089844 L 216.953125 138.722656 C 227.707031 136.8125 237.894531 132.449219 246.699219 125.992188 C 255.507812 132.449219 265.691406 136.8125 276.449219 138.722656 Z M 244.648438 119.238281 C 235.570312 126.429688 224.6875 131.054688 213.195312 132.617188 L 210.34375 133.003906 L 210.34375 167.089844 C 210.34375 186.144531 222.402344 203.253906 240.335938 209.65625 L 246.699219 211.929688 L 253.054688 209.65625 C 271 203.253906 283.058594 186.144531 283.058594 167.089844 L 283.058594 133.003906 L 280.207031 132.617188 C 268.714844 131.054688 257.832031 126.429688 248.753906 119.238281 L 246.699219 117.625 L 244.648438 119.238281 " fill-opacity="1" fill-rule="nonzero"/><g clip-path="url(#462a8491b6)"><path fill="#000000" d="M 289.667969 167.089844 C 289.667969 188.933594 275.855469 208.535156 255.285156 215.878906 L 246.699219 218.953125 L 238.113281 215.878906 C 217.546875 208.535156 203.730469 188.933594 203.730469 167.089844 L 203.730469 126.523438 C 219.871094 125.746094 234.964844 119.292969 246.699219 108.109375 C 258.4375 119.292969 273.53125 125.746094 289.667969 126.523438 Z M 223.5625 288.570312 C 223.5625 294.03125 219.121094 298.488281 213.648438 298.488281 L 121.023438 298.488281 C 123.113281 295.710938 124.40625 292.300781 124.40625 288.570312 L 124.40625 156.359375 C 124.40625 152.617188 123.113281 149.207031 121.023438 146.445312 L 197.121094 146.445312 L 197.121094 167.089844 C 197.121094 171.324219 197.613281 175.46875 198.488281 179.496094 L 131.015625 179.496094 L 131.015625 238.992188 L 216.953125 238.992188 L 216.953125 210.910156 C 219.03125 212.742188 221.226562 214.433594 223.5625 215.972656 Z M 97.960938 288.570312 L 97.960938 265.433594 L 117.792969 265.433594 L 117.792969 288.570312 C 117.792969 294.03125 113.351562 298.488281 107.878906 298.488281 C 102.402344 298.488281 97.960938 294.03125 97.960938 288.570312 Z M 97.960938 179.496094 L 97.960938 156.359375 C 97.960938 150.886719 102.402344 146.445312 107.878906 146.445312 C 113.351562 146.445312 117.792969 150.886719 117.792969 156.359375 L 117.792969 179.496094 Z M 210.34375 204.054688 L 210.34375 232.382812 L 137.625 232.382812 L 137.625 186.109375 L 200.347656 186.109375 C 202.609375 192.640625 205.992188 198.722656 210.34375 204.054688 Z M 292.976562 120 C 276.808594 120 261.601562 113.699219 250.171875 102.273438 L 246.699219 98.789062 L 243.226562 102.261719 C 231.800781 113.699219 216.589844 120 200.425781 120 L 197.121094 120 L 197.121094 139.832031 L 107.878906 139.832031 C 98.761719 139.832031 91.351562 147.246094 91.351562 156.359375 L 91.351562 186.109375 L 117.792969 186.109375 L 117.792969 258.824219 L 91.351562 258.824219 L 91.351562 288.570312 C 91.351562 297.671875 98.761719 305.097656 107.878906 305.097656 L 213.648438 305.097656 C 222.761719 305.097656 230.175781 297.671875 230.175781 288.570312 L 230.175781 219.675781 C 232.035156 220.566406 233.929688 221.40625 235.894531 222.117188 L 246.699219 225.964844 L 257.507812 222.117188 C 280.695312 213.828125 296.28125 191.710938 296.28125 167.089844 L 296.28125 120 L 292.976562 120 " fill-opacity="1" fill-rule="nonzero"/></g><path fill="#000000" d="M 232.511719 170.550781 L 227.835938 175.222656 L 240.089844 187.476562 L 272.175781 155.390625 L 267.5 150.71875 L 240.089844 178.128906 L 232.511719 170.550781 " fill-opacity="1" fill-rule="nonzero"/><path fill="#000000" d="M 137.625 153.054688 L 131.015625 153.054688 L 131.015625 159.664062 L 137.625 159.664062 L 137.625 153.054688 " fill-opacity="1" fill-rule="nonzero"/><path fill="#000000" d="M 190.511719 153.054688 L 144.238281 153.054688 L 144.238281 159.664062 L 190.511719 159.664062 L 190.511719 153.054688 " fill-opacity="1" fill-rule="nonzero"/><path fill="#000000" d="M 190.511719 166.277344 L 131.015625 166.277344 L 131.015625 172.886719 L 190.511719 172.886719 L 190.511719 166.277344 " fill-opacity="1" fill-rule="nonzero"/><path fill="#000000" d="M 183.898438 252.214844 L 210.34375 252.214844 L 210.34375 258.824219 L 183.898438 258.824219 Z M 177.289062 265.433594 L 216.953125 265.433594 L 216.953125 245.601562 L 177.289062 245.601562 L 177.289062 265.433594 " fill-opacity="1" fill-rule="nonzero"/><path fill="#000000" d="M 183.898438 278.65625 L 210.34375 278.65625 L 210.34375 285.265625 L 183.898438 285.265625 Z M 177.289062 291.875 L 216.953125 291.875 L 216.953125 272.046875 L 177.289062 272.046875 L 177.289062 291.875 " fill-opacity="1" fill-rule="nonzero"/><path fill="#000000" d="M 154.152344 258.824219 C 155.972656 258.824219 157.457031 260.296875 157.457031 262.128906 L 164.070312 262.128906 C 164.070312 256.65625 159.628906 252.214844 154.152344 252.214844 L 154.152344 245.601562 L 147.542969 245.601562 L 147.542969 252.214844 L 137.625 252.214844 L 137.625 262.128906 C 137.625 267.589844 142.066406 272.046875 147.542969 272.046875 L 154.152344 272.046875 C 155.972656 272.046875 157.457031 273.515625 157.457031 275.351562 L 157.457031 278.65625 L 147.542969 278.65625 C 145.722656 278.65625 144.238281 277.171875 144.238281 275.351562 L 137.625 275.351562 C 137.625 280.8125 142.066406 285.265625 147.542969 285.265625 L 147.542969 291.875 L 154.152344 291.875 L 154.152344 285.265625 L 164.070312 285.265625 L 164.070312 275.351562 C 164.070312 269.875 159.628906 265.433594 154.152344 265.433594 L 147.542969 265.433594 C 145.722656 265.433594 144.238281 263.949219 144.238281 262.128906 L 144.238281 258.824219 L 154.152344 258.824219 " fill-opacity="1" fill-rule="nonzero"/><path fill="#000000" d="M 150.847656 192.71875 L 144.238281 192.71875 L 144.238281 199.328125 L 150.847656 199.328125 L 150.847656 192.71875 " fill-opacity="1" fill-rule="nonzero"/><path fill="#000000" d="M 164.070312 192.71875 L 157.457031 192.71875 L 157.457031 199.328125 L 164.070312 199.328125 L 164.070312 192.71875 " fill-opacity="1" fill-rule="nonzero"/><path fill="#000000" d="M 177.289062 192.71875 L 170.679688 192.71875 L 170.679688 199.328125 L 177.289062 199.328125 L 177.289062 192.71875 " fill-opacity="1" fill-rule="nonzero"/><g fill="#000000" fill-opacity="1"><g transform="translate(185.382005, 289.364542)"><g><path d="M 2.109375 0.078125 C 1.804688 0.078125 1.566406 -0.00390625 1.390625 -0.171875 C 1.222656 -0.335938 1.140625 -0.5625 1.140625 -0.84375 C 1.140625 -1.113281 1.222656 -1.332031 1.390625 -1.5 C 1.566406 -1.675781 1.804688 -1.765625 2.109375 -1.765625 C 2.410156 -1.765625 2.644531 -1.679688 2.8125 -1.515625 C 2.988281 -1.347656 3.078125 -1.128906 3.078125 -0.859375 C 3.078125 -0.578125 2.988281 -0.347656 2.8125 -0.171875 C 2.632812 -0.00390625 2.398438 0.078125 2.109375 0.078125 Z M 2.109375 0.078125 "/></g></g></g></svg>