<svg xmlns="http://www.w3.org/2000/svg" xmlns:xlink="http://www.w3.org/1999/xlink" width="500" zoomAndPan="magnify" viewBox="0 0 375 374.999991" height="500" preserveAspectRatio="xMidYMid meet" version="1.0"><defs><g/><clipPath id="617d8e8c40"><path d="M 0 263 L 375 263 L 375 265.726562 L 0 265.726562 Z M 0 263 " clip-rule="nonzero"/></clipPath></defs><path fill="#ffffff" d="M 380.65625 211.585938 C 379.636719 216.1875 379.910156 211.578125 379.910156 262.78125 L 376.808594 262.78125 L 376.808594 230.234375 C 372.390625 231.886719 368.480469 229.703125 364.441406 229.269531 C 361.117188 228.90625 357.855469 228.007812 354.539062 227.535156 C 352.875 227.300781 351.15625 227.492188 349.285156 227.492188 L 349.285156 262.398438 L 346.15625 262.398438 L 346.15625 228.191406 L 262.269531 239.003906 L 262.269531 262.773438 L 254.695312 262.773438 L 254.695312 240.519531 L 251.386719 239.863281 L 251.386719 262.789062 L 237.652344 262.789062 L 237.652344 234.28125 L 254.574219 237.117188 C 254.574219 235.957031 254.839844 234.835938 254.488281 233.96875 C 254.230469 233.347656 253.144531 232.746094 252.414062 232.722656 C 241.734375 232.34375 251.460938 234.640625 230.015625 231.679688 L 230.015625 260.085938 C 230.015625 263.265625 230.144531 262.902344 225.261719 262.902344 L 225.261719 228.898438 L 216.820312 227.992188 L 216.820312 261.152344 L 214.308594 261.378906 C 212.992188 264.484375 210.371094 262.003906 208.109375 263.394531 C 209.441406 244.730469 209.472656 223.992188 209.472656 205.28125 C 206.523438 206.140625 203.378906 206.984375 200.285156 208.019531 C 199.746094 208.195312 199.121094 209.152344 199.121094 209.753906 C 199.121094 223.292969 199.933594 209.769531 198.613281 237.984375 C 198.574219 238.898438 198.582031 238 198.582031 262.816406 L 195.394531 262.816406 L 195.394531 223.511719 C 190.238281 224.457031 190.164062 223.511719 190.148438 227.164062 L 190.148438 262.757812 L 183.78125 262.757812 L 183.78125 260.003906 L 184.183594 260.195312 C 184.550781 259.554688 185.242188 258.910156 185.242188 258.269531 C 185.242188 257.386719 185.394531 214.257812 185.171875 212.339844 C 181.878906 213.277344 178.664062 214.152344 175.492188 215.175781 C 174.289062 215.558594 175.277344 216.628906 174.394531 256.246094 C 174.34375 258.367188 174.03125 260.484375 173.832031 262.773438 L 160.203125 262.773438 L 161.269531 219.253906 L 152.28125 221.839844 L 152.28125 262.808594 L 102.851562 262.808594 L 102.851562 222.417969 L 148.910156 226.933594 L 148.910156 223.695312 L 76.917969 216.597656 L 76.429688 219.71875 L 80.796875 220.304688 L 80.796875 262.816406 L 75.777344 262.816406 L 75.777344 217.117188 L 72.519531 217.117188 L 72.519531 262.757812 L 68.886719 262.757812 L 68.886719 185.441406 C 55.515625 192.648438 60.824219 190.15625 54.90625 193.515625 C 47.558594 197.675781 46.679688 197.207031 33.0625 206.863281 C 32.304688 207.398438 32.578125 206.863281 32.554688 262.765625 L 28.539062 262.765625 L 28.539062 207.792969 L 25.34375 207.792969 L 25.34375 262.808594 L 20.964844 262.808594 L 20.964844 219.269531 C 18.042969 218.613281 18.042969 218.613281 18.035156 221.324219 L 18.035156 262.757812 L 14.4375 262.757812 L 14.4375 220.554688 C 14.066406 220.773438 1.730469 227.976562 1.363281 228.175781 C 0.09375 228.851562 -0.515625 229.679688 -0.507812 231.164062 C -0.324219 255.84375 -0.894531 242.585938 0.078125 262.796875 L -5.246094 262.796875 L -5.246094 232.160156 C -6.277344 231.910156 -7.214844 231.917969 -7.867188 231.484375 C -10.097656 230.015625 -9.945312 227.832031 -7.398438 226.289062 C -2.597656 223.382812 2.308594 220.644531 7.136719 217.777344 C 18.992188 210.726562 12.644531 213.785156 20.917969 209.929688 C 20.71875 210.316406 20.84375 210.1875 20.828125 210.082031 C 20.316406 207.457031 21.800781 206.242188 23.882812 204.992188 C 34.949219 198.332031 66.542969 179.121094 71.207031 176.191406 L 69.644531 173.582031 L 19.398438 205.253906 L 17.671875 202.628906 C 21.09375 200.300781 36.066406 190.9375 39.582031 188.761719 C 40.707031 188.070312 41.09375 187.3125 41.050781 186.019531 C 40.957031 182.738281 41.101562 179.4375 40.988281 176.152344 C 40.9375 174.714844 41.4375 173.847656 42.5625 172.988281 L 138.71875 99.460938 C 139.617188 98.769531 140.339844 98.523438 141.5625 98.828125 L 226.363281 119.835938 C 234.335938 121.796875 232.972656 121.691406 248.34375 114.558594 C 248.792969 114.351562 249.121094 113.878906 249.476562 113.554688 L 123.820312 81.199219 C 122.527344 80.863281 121.628906 81.046875 120.574219 81.921875 L 5.578125 177.003906 L 37.695312 183.84375 L 37.695312 187.257812 L 1.296875 180.285156 C 1.980469 170.546875 1.628906 170.585938 3.480469 168.964844 L 116.359375 70.050781 C 119.835938 66.976562 121.8125 68.695312 134.808594 72.421875 C 135.53125 72.628906 252.175781 105.253906 258.179688 106.335938 L 258.179688 187.722656 C 259.28125 187.410156 260.238281 187.3125 261.015625 186.878906 C 267.222656 183.453125 274.195312 187.1875 296.652344 192.359375 Z M 229.332031 195.996094 C 224.660156 194.953125 163.300781 187.03125 163.171875 187.023438 C 160.964844 186.878906 158.554688 184.480469 156.195312 187.121094 C 155.808594 187.554688 153.769531 187.234375 153.183594 186.617188 C 150.460938 183.714844 153.0625 181.765625 153.015625 180.039062 C 152.796875 172.359375 152.363281 164.683594 152.273438 157.003906 C 152.15625 146.996094 152.4375 136.992188 152.234375 126.984375 C 152.164062 123.339844 152.417969 120.308594 156.28125 118.824219 C 156.492188 118.746094 156.667969 118.558594 157.140625 118.230469 L 157.140625 182.574219 L 160.296875 182.984375 L 160.296875 118.261719 C 160.296875 116.863281 160.023438 114.578125 162.546875 115.164062 C 174.699219 117.972656 186.855469 120.726562 199 123.585938 C 200.332031 123.898438 201.441406 124.648438 201.433594 126.46875 C 201.28125 188.664062 201.617188 185.015625 201.152344 188.679688 C 206.804688 189.472656 212.636719 190.445312 218.5 191.066406 C 221.761719 191.410156 225.148438 193.175781 228.402344 190.742188 L 228.433594 129.714844 C 228.433594 128.203125 227.597656 128.003906 226.492188 127.722656 L 172.03125 114.207031 C 168.59375 113.355469 164.882812 113.097656 161.777344 111.589844 C 159.34375 110.398438 157.753906 110.6875 155.882812 111.988281 L 78.292969 165.839844 C 75.222656 168.039062 77.929688 169.164062 78.058594 171.53125 C 78.253906 175.050781 78.40625 178.578125 78.582031 182.304688 L 82.1875 183.027344 C 83.335938 179.042969 83.625 175.1875 87.511719 176.40625 C 90.265625 177.273438 88.941406 181.203125 88.386719 183.980469 C 93.140625 185.75 98.925781 185.707031 103.96875 185.449219 C 106.378906 185.332031 107.4375 187.105469 109.558594 187.933594 L 107.246094 189.441406 C 109.300781 193.257812 106.449219 192.832031 99.460938 194.46875 C 96.523438 195.160156 94.675781 197.570312 94.613281 200.558594 C 94.492188 205.722656 94.242188 203.449219 94.242188 212.210938 C 96.464844 211.421875 145.167969 191.773438 145.265625 191.660156 C 146.292969 190.367188 145.03125 189.53125 145.03125 188.070312 C 144.992188 168.519531 145.054688 148.980469 144.933594 129.433594 C 144.917969 126.816406 145.988281 125.5 148.226562 124.511719 C 148.226562 188.046875 148.195312 184.648438 148.285156 188.109375 C 148.300781 188.695312 148.933594 189.683594 149.414062 189.773438 C 158.347656 191.394531 203.089844 195.730469 212.78125 198.140625 C 218.507812 199.578125 223.648438 198.019531 229.332031 195.996094 Z M 213.117188 221.414062 C 216.554688 221.414062 213.238281 220.765625 226.898438 224.007812 C 250.609375 229.644531 252.679688 230.9375 254.847656 227.058594 C 255.5625 227.058594 256.351562 227.308594 256.761719 227.019531 C 258.359375 225.871094 259.242188 226.449219 259.8125 228.070312 C 266.910156 227.300781 266.511719 227.558594 267.859375 226.441406 C 268.558594 225.863281 269.207031 224.652344 269.800781 224.691406 C 270.597656 224.753906 271.320312 225.757812 272.363281 226.59375 C 272.355469 226.59375 268.332031 227.140625 324.285156 220.484375 C 326.414062 220.226562 328.902344 220.492188 330.558594 219.445312 C 332.074219 218.484375 332.308594 218.652344 343.117188 218.425781 L 343.109375 217.839844 C 338.917969 217.0625 280.445312 206.113281 276.234375 205.398438 C 272.832031 204.820312 269.480469 203.3125 265.90625 204.089844 C 264.492188 204.40625 263.128906 204.925781 261.714844 205.253906 L 219.230469 215.117188 C 215.601562 215.960938 215.609375 215.984375 215.480469 219.632812 C 215.472656 219.75 215.398438 219.871094 215.351562 219.992188 L 214.980469 219.617188 Z M 210.066406 201.015625 C 209.691406 200.378906 210.164062 200.628906 206.832031 200.195312 C 190.328125 198.027344 199.882812 199.230469 184.246094 197.523438 C 151.746094 193.972656 150.707031 193.371094 147.488281 195.160156 C 147.480469 195.167969 118.527344 206.476562 118.167969 206.621094 C 113.148438 208.53125 108.480469 211.390625 103.050781 212.226562 C 102.410156 212.324219 101.75 212.636719 101.222656 213.03125 C 100.84375 213.3125 100.675781 213.875 100.410156 214.316406 C 101.839844 215.109375 100.304688 214.910156 106.503906 215.558594 C 119.988281 216.964844 133.464844 218.417969 146.957031 219.6875 C 148.4375 219.824219 150.019531 218.867188 151.519531 218.339844 C 151.585938 218.3125 151.441406 217.398438 151.214844 216.988281 C 151.085938 216.757812 150.605469 216.722656 150.226562 216.578125 L 151.480469 215.132812 L 154.1875 215.929688 C 154.445312 216.441406 154.757812 217.292969 154.867188 217.261719 C 161.648438 215.710938 159.6875 215.890625 160.683594 213.230469 C 160.875 212.699219 161.199219 212.226562 161.460938 211.722656 C 161.945312 212 162.601562 212.171875 162.875 212.589844 C 164 214.28125 165.421875 214.796875 167.332031 214.113281 C 170.667969 212.917969 173.695312 213.261719 173.148438 209.449219 C 173.878906 209.730469 174.632812 209.824219 174.707031 210.089844 C 175.148438 211.839844 176.222656 211.359375 177.363281 211.03125 C 181.660156 209.808594 183.691406 209.640625 183.910156 208.964844 C 184.535156 207.015625 184.761719 206.855469 186.625 206.878906 C 192.292969 206.957031 189.160156 207.996094 207.835938 202.355469 C 208.644531 202.109375 209.328125 201.472656 210.066406 201.015625 Z M 233.210938 192.984375 C 238.914062 194.636719 240.183594 192.46875 247.453125 190.9375 C 249.027344 190.605469 249.371094 189.882812 249.371094 188.351562 L 249.371094 115.660156 C 244.570312 117.773438 239.976562 119.910156 235.285156 121.765625 C 233.695312 122.398438 233.210938 123.105469 233.210938 124.785156 Z M 266.582031 200.117188 L 370.351562 219.726562 C 372.648438 220.160156 373.035156 219.792969 373.066406 217.398438 C 373.082031 216.332031 373.011719 215.238281 373.234375 214.210938 C 373.582031 212.605469 373.097656 211.671875 371.484375 211.335938 C 326.582031 202.140625 274.386719 190.148438 266.582031 188.503906 Z M 123.886719 77.273438 C 130.886719 80.765625 204.550781 97.757812 251.988281 111.4375 C 253.339844 111.820312 254.230469 112.640625 253.226562 114.214844 C 252.375 115.546875 252.59375 125.53125 252.574219 189.152344 C 254.527344 189.402344 254.609375 188.324219 254.609375 186.953125 C 254.582031 161.367188 254.566406 135.777344 254.640625 110.191406 C 254.648438 108.238281 254.09375 107.476562 252.191406 106.953125 L 121.234375 70.613281 C 121.234375 72.371094 121.082031 73.859375 121.265625 75.304688 C 121.578125 77.738281 121.828125 77.824219 123.886719 77.273438 Z M 4.503906 172.699219 L 4.976562 173.019531 L 118.527344 79.441406 C 120.414062 77.882812 119.972656 77.222656 119.972656 70.613281 C 104.625 84.128906 90.265625 98.039062 28.757812 150.476562 C 25.847656 152.957031 17.3125 159.910156 6.101562 170.007812 C 5.363281 170.671875 5.023438 171.789062 4.503906 172.699219 Z M 265.082031 189.59375 C 263.699219 189.890625 262.566406 190.269531 261.410156 190.351562 C 257.425781 190.632812 257.8125 193.328125 257.8125 196.710938 L 254.550781 196.710938 L 254.550781 192.695312 C 253.828125 192.886719 253.304688 193 252.816406 193.167969 C 238.808594 198.058594 253.015625 193.890625 214.355469 204.140625 C 213.875 204.269531 213.160156 204.8125 213.152344 205.175781 C 213.09375 207.738281 213.199219 210.308594 213.261719 213.175781 C 243.132812 206.234375 249.539062 204.8125 261.875 201.84375 C 263.046875 201.5625 264.839844 200.507812 264.925781 199.667969 C 265.289062 196.367188 265.082031 193.015625 265.082031 189.59375 Z M 83.640625 213.777344 L 92.433594 213.777344 L 92.917969 205.425781 L 92.410156 205.128906 L 88.886719 208.164062 C 88.324219 206.628906 89.40625 206.78125 92.007812 203.511719 C 92.371094 203.0625 92.628906 202.210938 92.441406 201.730469 C 91.992188 200.566406 86.886719 200.429688 85.648438 200.558594 C 84.46875 200.679688 82.46875 201.402344 82.363281 202.089844 C 81.824219 205.503906 81.792969 209 81.554688 212.917969 L 85 210.957031 Z M 312.488281 226.328125 C 310.117188 226.328125 312.457031 226.082031 273.921875 231.003906 C 271.328125 231.332031 271.078125 231.757812 271.859375 234.496094 L 312.769531 229.230469 Z M 76.605469 188.199219 C 76.542969 189.160156 76.644531 189.804688 76.445312 190.34375 C 75.800781 192.050781 76.253906 192.742188 78.140625 192.902344 C 92.917969 194.1875 96.128906 196.027344 101.511719 192.316406 C 93.0625 190.6875 85.109375 188.519531 76.605469 188.199219 Z M 195.265625 209.558594 C 189.027344 210.53125 188.695312 210.871094 188.90625 216.089844 C 188.914062 216.226562 188.847656 216.410156 188.914062 216.484375 C 190.503906 218.058594 189.015625 217.984375 195.257812 216.859375 L 195.257812 209.558594 Z M 355.582031 225.070312 L 355.640625 225.613281 C 368.890625 225.613281 363.445312 225.171875 376.535156 227.261719 L 376.535156 223.878906 C 374.898438 225.332031 373.703125 225.101562 372.59375 223.605469 C 372.3125 223.222656 371.476562 223.09375 370.90625 223.101562 C 360.402344 223.332031 362.089844 223.558594 355.582031 225.070312 Z M 165.535156 262.4375 C 165.535156 222.789062 165.863281 225.628906 164.328125 225.9375 C 164.328125 265.449219 164 262.742188 165.535156 262.4375 Z M 75.441406 185.023438 C 76.269531 185.417969 76.695312 185.738281 77.160156 185.828125 C 85.824219 187.425781 94.484375 189.007812 103.164062 190.535156 C 103.726562 190.632812 104.378906 190.253906 105.203125 190.035156 C 103.902344 188.71875 77.464844 184.253906 75.441406 185.023438 Z M 331.410156 223.832031 C 328.726562 224.136719 326.171875 224.515625 323.609375 224.683594 C 321.425781 224.828125 320.40625 225.863281 320.382812 228.234375 L 331.410156 226.8125 Z M 267.699219 231.789062 C 258.046875 232.996094 258.550781 232.3125 259.347656 236.078125 L 267.699219 235.019531 Z M 348.027344 222.996094 C 347.183594 222.851562 346.667969 222.628906 346.203125 222.707031 C 340.925781 223.574219 345.101562 223.367188 336.097656 224.136719 L 336.421875 226.273438 C 340.164062 225.230469 344.308594 226.265625 348.027344 222.996094 Z M 168.828125 217.054688 L 168.828125 221.511719 C 173.269531 220.851562 173.71875 220.273438 173.226562 215.785156 Z M 168.828125 217.054688 " fill-opacity="1" fill-rule="nonzero"/><g clip-path="url(#617d8e8c40)"><path fill="#ffffff" d="M -13.277344 263.417969 L 388.277344 263.417969 L 388.277344 265.996094 L -13.277344 265.996094 Z M -13.277344 263.417969 " fill-opacity="1" fill-rule="nonzero"/></g><path fill="#ffffff" d="M 352.980469 262.789062 L 352.980469 230.570312 C 365.992188 232.890625 369.429688 233.484375 373.726562 234.335938 C 374.238281 234.441406 375.011719 235.15625 375.011719 235.589844 C 375.082031 244.617188 375.066406 253.644531 375.066406 262.789062 Z M 352.980469 262.789062 " fill-opacity="1" fill-rule="nonzero"/><path fill="#ffffff" d="M 99.375 262.863281 L 84.308594 262.863281 L 84.308594 220.554688 L 99.375 222.058594 Z M 99.375 262.863281 " fill-opacity="1" fill-rule="nonzero"/><path fill="#ffffff" d="M 102.28125 171.863281 C 102.273438 168.28125 104.410156 165.339844 106.988281 165.398438 C 109.492188 165.453125 111.53125 168.328125 111.542969 171.804688 C 111.550781 175.394531 109.414062 178.328125 106.835938 178.269531 C 104.328125 178.214844 102.289062 175.347656 102.28125 171.863281 Z M 102.28125 171.863281 " fill-opacity="1" fill-rule="nonzero"/><path fill="#ffffff" d="M 144.855469 216.128906 C 140.414062 216.128906 140.558594 215.9375 140.5 213.023438 C 140.4375 209.609375 140.285156 206.195312 140.21875 202.78125 C 140.1875 201.230469 142.097656 199.410156 143.5625 199.640625 C 145.457031 199.9375 145.601562 201.214844 145.472656 202.910156 C 145.152344 207.230469 145.054688 211.578125 144.855469 216.128906 Z M 144.855469 216.128906 " fill-opacity="1" fill-rule="nonzero"/><path fill="#ffffff" d="M 128.148438 214.394531 C 123.875 214.371094 123.78125 214.296875 123.308594 210.996094 C 122.898438 208.15625 123.78125 207.085938 127.347656 206.140625 C 129.585938 208.75 127.53125 211.664062 128.148438 214.394531 Z M 128.148438 214.394531 " fill-opacity="1" fill-rule="nonzero"/><g fill="#000000" fill-opacity="1"><g transform="translate(240.198313, 209.71153)"><g><path d="M 2.109375 0.078125 C 1.804688 0.078125 1.566406 -0.00390625 1.390625 -0.171875 C 1.222656 -0.335938 1.140625 -0.5625 1.140625 -0.84375 C 1.140625 -1.113281 1.222656 -1.332031 1.390625 -1.5 C 1.566406 -1.675781 1.804688 -1.765625 2.109375 -1.765625 C 2.410156 -1.765625 2.644531 -1.679688 2.8125 -1.515625 C 2.988281 -1.347656 3.078125 -1.128906 3.078125 -0.859375 C 3.078125 -0.578125 2.988281 -0.347656 2.8125 -0.171875 C 2.632812 -0.00390625 2.398438 0.078125 2.109375 0.078125 Z M 2.109375 0.078125 "/></g></g></g></svg>